<svg width="426" height="402" viewBox="0 0 426 402" fill="none" xmlns="http://www.w3.org/2000/svg">
<path d="M228.636 16.364C207.513 16.165 79.5823 14.186 75.8213 49.837C72.2173 83.983 121.788 71.482 122.271 86.633C122.785 102.549 113.332 107.155 86.9463 106.146C75.5113 105.708 39.4233 109.752 38.8473 132.532C38.2713 155.185 78.5703 152.325 76.5763 171.121C75.4203 192.484 44.8133 197.131 32.7573 202.779C19.6573 209.631 -4.45166 220.928 1.08734 245.178C8.37834 273.299 54.6743 268.242 72.1123 271.706C83.7583 273.597 120.791 276.862 115.524 301.782C112.756 316.758 82.3573 317.632 88.1693 336.847C94.0503 354.811 147.061 358.361 157.8 358.943C202.376 361.354 300.261 365.297 343.858 346.908C359.886 340.215 374.035 332.155 372.394 308.12C371.598 286.653 360.019 283.507 379.52 266.918C391.847 256.241 415.448 257.1 414.052 225.936C413.298 209.123 370.295 202.142 371.248 184.549C372.744 156.903 425.534 180.378 425.727 131.477C425.845 100.954 329.807 118.03 330.787 87.837C329.492 75.584 350.632 70.383 349.723 56.822C350.22 35.105 325.345 19.035 228.636 16.364Z" fill="#38548A"/>
<path d="M144.833 237.78C144.729 237.844 144.604 237.882 144.449 237.882C119.939 237.882 95.4292 237.882 70.9202 237.882C70.5942 237.882 70.2672 237.654 70.1922 237.329C69.3882 233.833 73.4322 231.085 76.1632 232.427C76.5482 230.65 78.3082 229.424 80.1472 229.652C79.1372 226.46 80.5342 223.227 83.8872 221.675C86.9712 220.242 89.8432 221.421 91.6722 223.755C92.7252 218.341 97.3952 213.662 103.081 213.27C106.172 213.061 109.444 213.931 111.849 215.958C114.249 217.973 115.031 220.18 115.631 222.884C117.427 220.305 120.334 219.086 123.677 220.123C126.978 221.147 127.395 224.518 127.242 227.547C129.902 225.339 133.1 224.267 136.571 226.355C139.453 228.088 140.076 230.875 140.196 233.902C142.564 232.492 145.015 233.89 145.205 237.13C145.225 237.46 145.061 237.676 144.833 237.78Z" fill="#223B6C"/>
<path d="M349.944 85.3961C349.944 99.4911 388.183 102.09 390.169 85.3961C392.155 68.6991 349.944 64.2341 349.944 85.3961Z" fill="#38548A"/>
<path d="M41.2085 302.191C41.2085 316.287 88.5295 319.012 90.2445 302.191C92.3605 281.453 41.2085 277.508 41.2085 302.191Z" fill="#38548A"/>
<path d="M317.009 381.703C317.009 398.42 373.13 401.652 375.164 381.703C377.672 357.109 317.009 352.43 317.009 381.703Z" fill="#38548A"/>
<path d="M37.2085 86.3902C37.2085 95.5932 63.2935 97.3732 64.2385 86.3902C65.4055 72.8522 37.2085 70.2762 37.2085 86.3902Z" fill="#38548A"/>
<path d="M186.681 250.286C187.459 246.372 181.67 242.775 177.209 244.218C177.937 241.534 177.107 239.1 173.153 237.899C171.505 237.399 169.525 237.405 167.786 237.875C170.905 231.657 168.003 224.577 158.363 223.114C147.883 221.521 136.251 226.665 134.171 234.942C125.648 226.567 107.588 236.601 112.919 246.24C109.626 245.716 106.233 247.581 106.032 250.351C102.698 249.218 100.071 252.617 102.128 255.544C102.277 255.758 102.585 255.892 102.892 255.892C132.544 255.892 162.198 255.892 191.849 255.892C192.076 255.892 192.254 255.834 192.39 255.747C192.531 255.666 192.644 255.545 192.702 255.377C193.715 252.492 189.984 249.755 186.681 250.286Z" fill="#21263A"/>
<path d="M187.601 316.641C187.947 314.91 185.385 313.32 183.413 313.957C183.736 312.769 183.368 311.692 181.62 311.162C180.891 310.942 180.017 310.944 179.247 311.151C180.626 308.402 179.342 305.271 175.079 304.625C170.444 303.92 165.302 306.196 164.381 309.855C160.611 306.15 152.627 310.588 154.985 314.85C153.528 314.618 152.026 315.443 151.938 316.668C150.463 316.168 149.302 317.671 150.213 318.964C150.278 319.059 150.414 319.118 150.55 319.118C163.662 319.118 176.775 319.118 189.887 319.118C189.986 319.118 190.067 319.094 190.127 319.055C190.189 319.018 190.238 318.965 190.263 318.89C190.711 317.616 189.063 316.404 187.601 316.641Z" fill="#21263A"/>
<path d="M346.402 156.248C346.48 156.295 346.573 156.323 346.688 156.323C364.919 156.323 383.152 156.323 401.383 156.323C401.625 156.323 401.868 156.153 401.924 155.911C402.523 153.311 399.514 151.267 397.483 152.265C397.197 150.943 395.887 150.031 394.519 150.201C395.27 147.827 394.231 145.423 391.737 144.267C389.443 143.202 387.306 144.078 385.946 145.814C385.163 141.787 381.689 138.306 377.46 138.015C375.16 137.858 372.727 138.506 370.938 140.013C369.153 141.512 368.571 143.155 368.124 145.165C366.788 143.247 364.626 142.34 362.139 143.112C359.684 143.874 359.373 146.382 359.487 148.634C357.508 146.992 355.13 146.194 352.548 147.747C350.404 149.036 349.941 151.109 349.852 153.36C348.09 152.312 346.267 153.352 346.126 155.761C346.111 156.01 346.233 156.17 346.402 156.248Z" fill="#21263A"/>
<path d="M203.831 58.03C203.886 58.062 203.946 58.082 204.024 58.082C216.346 58.082 228.666 58.082 240.987 58.082C241.151 58.082 241.315 57.967 241.352 57.803C241.757 56.047 239.724 54.666 238.35 55.34C238.158 54.447 237.274 53.83 236.347 53.944C236.856 52.34 236.155 50.715 234.468 49.935C232.918 49.216 231.476 49.808 230.555 50.981C230.026 48.26 227.677 45.907 224.819 45.711C223.264 45.605 221.621 46.043 220.412 47.061C219.206 48.075 218.814 49.184 218.511 50.543C217.609 49.247 216.147 48.634 214.466 49.155C212.805 49.669 212.596 51.364 212.674 52.887C211.335 51.777 209.73 51.239 207.983 52.288C206.534 53.159 206.222 54.559 206.162 56.081C204.972 55.372 203.741 56.076 203.644 57.704C203.635 57.87 203.717 57.978 203.831 58.03Z" fill="#21263A"/>
<path d="M291.397 378.74C291.392 378.597 291.345 378.483 291.284 378.386C291.181 378.177 290.985 378.018 290.679 378.023C281.371 378.171 272.067 378.325 262.757 378.474C262.379 378.48 262.025 378.794 262.041 379.191C262.265 384.573 261.807 390.117 262.696 395.448C263.525 400.417 268.974 400.798 273.184 401.042C278.581 401.355 286.286 401.546 289.388 398.69C292.978 395.38 291.583 384.012 291.397 378.74Z" fill="#0C7CC6"/>
<path d="M266.894 389.253C262.67 389.253 261.705 385.275 261.694 385.232C261.64 385.001 261.786 384.771 262.016 384.717C262.251 384.668 262.48 384.809 262.534 385.039C262.572 385.203 263.552 389.106 268.134 388.274C271.183 387.72 271.412 381.336 271.414 381.273C271.423 381.058 271.58 380.883 271.792 380.858C271.994 380.826 272.2 380.962 272.258 381.166C272.338 381.443 272.422 381.804 272.516 382.22C272.869 383.766 273.404 386.105 274.519 387.081C275.916 388.303 279.127 388.448 280.78 387.716C282.497 387.044 283.33 384.639 283.266 382.457C283.221 382.144 283.192 381.82 283.178 381.492C283.171 381.265 283.341 381.069 283.569 381.049C283.786 381.028 284 381.185 284.036 381.409C284.085 381.724 284.113 382.046 284.127 382.374C284.483 384.714 285.86 386.669 287.603 387.192C288.99 387.606 290.336 387.015 291.39 385.53C291.529 385.336 291.795 385.292 291.992 385.429C292.183 385.567 292.229 385.835 292.091 386.029C290.821 387.812 289.096 388.538 287.357 388.013C285.875 387.571 284.643 386.335 283.907 384.693C283.508 386.42 282.576 387.938 281.113 388.51C279.201 389.359 275.647 389.207 273.955 387.728C272.948 386.847 272.375 385.196 271.993 383.726C271.589 385.866 270.618 388.698 268.29 389.121C267.787 389.212 267.323 389.253 266.894 389.253Z" fill="#BCBCBC"/>
<path d="M276.076 376.136C273.121 376.133 263.077 376.268 261.971 378.532C260.499 381.716 276.839 381.466 279.996 381.361C294.956 380.87 296.74 375.386 276.076 376.136Z" fill="#0671A2"/>
<path d="M276.076 375.564C274.365 375.566 260.03 375.317 261.335 379.197C261.973 381.092 265.009 381.261 266.618 381.487C270.166 381.981 273.791 382.002 277.368 381.984C280.537 381.968 283.7 381.802 286.826 381.243C288.222 380.994 291.255 380.513 291.875 378.887C293.471 374.689 277.209 375.528 276.076 375.564C275.337 375.586 275.335 376.733 276.076 376.71C279.342 376.611 282.599 376.606 285.855 376.919C286.428 376.976 292.117 377.734 290.251 378.953C286.809 381.198 281.315 380.8 277.368 380.838C272.97 380.878 268.271 380.958 263.994 379.815C261.929 379.261 263.326 378.066 264.697 377.669C266.135 377.252 267.674 377.122 269.159 376.98C271.452 376.757 273.771 376.715 276.076 376.71C276.816 376.709 276.816 375.563 276.076 375.564Z" fill="#BCBCBC"/>
<path d="M291.597 344.463C291.409 355.771 291.004 367.081 290.854 378.386C290.846 378.94 291.708 378.94 291.713 378.386C291.865 367.081 292.27 355.771 292.455 344.463C292.466 343.909 291.604 343.909 291.597 344.463Z" fill="#38548A"/>
<path d="M259.843 344.27C260.19 355.72 260.341 367.129 261.541 378.533C261.599 379.077 262.46 379.081 262.401 378.533C261.201 367.13 261.048 355.72 260.702 344.27C260.685 343.716 259.824 343.715 259.843 344.27Z" fill="#38548A"/>
<path d="M275.336 346.185C276.301 357.728 275.092 369.307 276.1 380.844C276.15 381.392 277.009 381.398 276.963 380.844C275.954 369.307 277.16 357.728 276.198 346.185C276.152 345.637 275.291 345.632 275.336 346.185Z" fill="#38548A"/>
<path d="M335.421 246.135L335.421 246.135C340.284 258.462 341.06 271.376 339.441 284.456L339.937 284.517L339.441 284.456C337.856 297.27 332.91 310.461 323.224 319.466L323.224 319.466C319.423 323.001 314.746 325.706 310.007 328.447C308.965 329.05 307.92 329.655 306.881 330.27C301.147 333.665 295.611 337.383 291.988 342.952L291.988 342.952C291.51 343.687 290.41 343.52 290.18 342.736L290.18 342.735C283.571 320.394 287.466 295.671 291.266 272.981C293.199 261.449 295.354 249.508 300.255 238.856L300.255 238.856C301.614 235.9 303.4 232.542 305.785 230.024C308.16 227.516 311.091 225.88 314.775 226.254L314.776 226.254C314.777 226.254 314.783 226.255 314.799 226.259C314.801 226.259 314.804 226.26 314.807 226.261C314.828 226.265 314.87 226.275 314.911 226.282L314.939 226.287L314.967 226.288C314.983 226.289 314.997 226.29 315.01 226.291C315.068 226.294 315.099 226.295 315.135 226.301C325.284 228.136 331.838 237.044 335.421 246.135Z" fill="#0C7CC6" stroke="#0C7CC6"/>
<path d="M258.504 282.621C255.052 263.97 246.906 245.325 237.503 228.796C237.175 228.222 236.646 228.035 236.138 228.103C235.926 228.109 235.704 228.16 235.478 228.278C226.028 233.138 220.947 242.453 217.765 252.066C214.348 262.385 212.559 274.964 214.147 285.767C216.2 299.749 224.101 312.092 234.503 321.648C243.027 329.484 253.637 334.562 261.248 343.519C262.098 344.518 263.786 343.678 263.774 342.494C263.576 322.522 262.141 302.278 258.504 282.621Z" fill="#223B6C"/>
<path d="M303.455 214.997C295.105 210.441 285.349 209.67 276.12 211.494C275.549 211.605 275.229 211.947 275.106 212.351C269.528 220.311 268.71 231.443 267.891 240.748C266.604 255.388 266.952 270.18 267.603 284.841C268.48 304.606 270.142 324.407 272.661 344.039C272.761 344.822 273.258 345.487 274.141 345.487C279.803 345.487 285.465 345.487 291.126 345.487C291.631 345.487 292.162 345.216 292.405 344.77C308.088 315.97 312.479 281.328 315.103 249.216C315.703 241.901 316.183 234.548 316.304 227.206C316.387 222.36 306.989 216.926 303.455 214.997Z" fill="#223B6C"/>
<path d="M243.344 219.72L243.344 219.72C246.871 217.139 255.365 212.802 263.289 211.021C267.255 210.13 271.009 209.896 273.908 210.785C275.349 211.227 276.568 211.943 277.506 212.986C278.442 214.028 279.121 215.423 279.44 217.261L279.932 217.175L279.44 217.261C281.502 229.144 280.997 241.683 280.505 253.884C280.423 255.941 280.34 257.988 280.271 260.021C279.311 288.039 277.46 316.053 275.124 343.997C275.114 344.111 275.084 344.214 275.038 344.323L275.029 344.345L275.022 344.368C274.914 344.717 274.642 344.989 274.141 344.989C272.945 344.989 271.608 345.084 270.25 345.179C269.481 345.234 268.704 345.289 267.943 345.327C265.803 345.435 263.741 345.417 262.029 344.955L262.029 344.955C261.58 344.835 261.052 344.411 260.471 343.691C259.905 342.988 259.346 342.074 258.817 341.097C258.289 340.122 257.8 339.101 257.369 338.189C257.311 338.065 257.253 337.943 257.197 337.823C256.842 337.068 256.527 336.399 256.275 335.94C253.788 331.398 251.515 326.771 249.439 322.036C242.627 306.496 238.376 289.815 236.229 273.043L236.229 273.043C234.663 260.829 234.006 248.457 234.708 236.169C234.919 232.5 235.467 229.582 236.754 226.992C238.038 224.407 240.079 222.109 243.344 219.72Z" fill="#0C7CC6" stroke="#0C7CC6"/>
<path d="M259.456 346.135C270.416 348.177 281.982 348.043 292.933 346.135C296.067 345.592 294.736 341.399 291.618 341.942C281.593 343.686 270.815 343.809 260.773 341.942C257.655 341.36 256.331 345.556 259.456 346.135Z" fill="#0671A2"/>
<path d="M158.323 73.5022C158.321 73.4402 158.302 73.3912 158.275 73.3492C158.229 73.2582 158.144 73.1902 158.012 73.1912C153.98 73.2562 149.948 73.3212 145.914 73.3872C145.751 73.3902 145.598 73.5262 145.603 73.6982C145.702 76.0292 145.502 78.4302 145.888 80.7412C146.247 82.8942 148.608 83.0582 150.431 83.1642C152.769 83.2992 156.107 83.3832 157.451 82.1442C159.008 80.7102 158.405 75.7852 158.323 73.5022Z" fill="#0C7CC6"/>
<path d="M147.708 78.0561C145.876 78.0561 145.459 76.3331 145.454 76.3141C145.431 76.2141 145.493 76.1151 145.594 76.0911C145.697 76.0701 145.793 76.1311 145.816 76.2301C145.836 76.3021 146.259 77.9931 148.243 77.6321C149.565 77.3931 149.665 74.6271 149.666 74.5991C149.669 74.5061 149.737 74.4301 149.829 74.4201C149.917 74.4071 150.006 74.4641 150.032 74.5531C150.065 74.6721 150.102 74.8301 150.142 75.0101C150.293 75.6801 150.526 76.6941 151.009 77.1171C151.615 77.6461 153.007 77.7091 153.721 77.3911C154.465 77.1001 154.826 76.0581 154.799 75.1131C154.779 74.9761 154.769 74.8361 154.76 74.6951C154.757 74.5961 154.832 74.5111 154.931 74.5031C155.025 74.4941 155.119 74.5621 155.133 74.6601C155.153 74.7961 155.166 74.9351 155.17 75.0771C155.326 76.0921 155.922 76.9371 156.679 77.1631C157.279 77.3441 157.862 77.0881 158.319 76.4441C158.38 76.3611 158.495 76.3411 158.581 76.4011C158.663 76.4601 158.683 76.5771 158.623 76.6611C158.073 77.4331 157.325 77.7471 156.573 77.5211C155.929 77.3291 155.396 76.7931 155.078 76.0821C154.904 76.8311 154.5 77.4881 153.866 77.7361C153.038 78.1041 151.498 78.0381 150.764 77.3971C150.328 77.0161 150.081 76.3001 149.916 75.6631C149.738 76.5891 149.318 77.8161 148.311 78.0001C148.093 78.0391 147.892 78.0561 147.708 78.0561Z" fill="#F6F6F6"/>
<path d="M151.685 72.3741C150.403 72.3731 146.053 72.4311 145.575 73.4121C144.936 74.7911 152.017 74.6831 153.385 74.6371C159.865 74.4251 160.636 72.0471 151.685 72.3741Z" fill="#0C7CC6"/>
<path d="M151.685 72.1262C150.943 72.1272 144.733 72.0192 145.298 73.7002C145.575 74.5222 146.89 74.5942 147.587 74.6912C149.125 74.9062 150.696 74.9152 152.244 74.9072C153.616 74.9002 154.988 74.8272 156.342 74.5852C156.948 74.4772 158.26 74.2682 158.529 73.5652C159.22 71.7462 152.177 72.1102 151.685 72.1262C151.366 72.1362 151.363 72.6332 151.685 72.6232C153.099 72.5802 154.51 72.5772 155.921 72.7122C156.169 72.7372 158.634 73.0662 157.826 73.5942C156.335 74.5672 153.953 74.3932 152.244 74.4102C150.338 74.4282 148.304 74.4632 146.45 73.9672C145.555 73.7262 146.161 73.2092 146.755 73.0372C147.379 72.8562 148.045 72.8002 148.688 72.7392C149.682 72.6432 150.686 72.6242 151.685 72.6232C152.006 72.6222 152.006 72.1242 151.685 72.1262Z" fill="#F6F6F6"/>
<path d="M158.409 58.6522C158.327 63.5502 158.152 68.4512 158.087 73.3482C158.083 73.5882 158.456 73.5882 158.458 73.3482C158.526 68.4512 158.699 63.5502 158.783 58.6522C158.786 58.4122 158.412 58.4122 158.409 58.6522Z" fill="#0C7CC6"/>
<path d="M144.651 58.5682C144.802 63.5282 144.868 68.4712 145.388 73.4112C145.412 73.6472 145.784 73.6482 145.76 73.4112C145.24 68.4712 145.177 63.5282 145.025 58.5682C145.017 58.3292 144.644 58.3292 144.651 58.5682Z" fill="#0C7CC6"/>
<path d="M151.366 59.3981C151.781 64.3981 151.26 69.4161 151.696 74.4141C151.719 74.6501 152.09 74.6531 152.07 74.4141C151.633 69.4151 152.156 64.3981 151.739 59.3981C151.718 59.1601 151.347 59.1571 151.366 59.3981Z" fill="#0C7CC6"/>
<path d="M177.597 15.9741C176.034 12.0101 173.154 8.06109 168.642 7.24809C168.609 7.24309 168.578 7.24209 168.545 7.24109C168.52 7.23609 168.497 7.2281 168.472 7.2261C165.106 6.8841 163.146 10.2391 161.962 12.8111C159.828 17.4561 158.889 22.6561 158.051 27.6501C156.406 37.4701 154.707 48.2321 157.587 57.9671C157.744 58.5011 158.462 58.5731 158.759 58.1161C161.84 53.3821 168.195 51.7601 172.258 47.9821C176.504 44.0351 178.661 38.2651 179.353 32.6821C180.054 26.9891 179.719 21.3561 177.597 15.9741Z" fill="#0C7CC6"/>
<path d="M144.072 31.86C142.577 23.779 139.048 15.702 134.973 8.54201C134.832 8.29301 134.602 8.21101 134.383 8.24101C134.29 8.24301 134.194 8.26501 134.097 8.31601C130.002 10.422 127.801 14.458 126.422 18.622C124.942 23.093 124.168 28.542 124.856 33.222C125.745 39.279 129.168 44.626 133.676 48.766C137.366 52.161 141.963 54.361 145.26 58.242C145.628 58.676 146.362 58.312 146.357 57.797C146.269 49.147 145.646 40.377 144.072 31.86Z" fill="#223B6C"/>
<path d="M163.547 2.56307C159.929 0.589066 155.702 0.255064 151.704 1.04506C151.456 1.09306 151.316 1.24207 151.264 1.41707C148.847 4.86507 148.494 9.68807 148.139 13.7191C147.582 20.0611 147.733 26.4691 148.015 32.8221C148.394 41.3851 149.114 49.9631 150.206 58.4681C150.249 58.8071 150.464 59.0961 150.848 59.0961C153.301 59.0961 155.753 59.0961 158.206 59.0961C158.425 59.0961 158.654 58.9781 158.76 58.7851C165.554 46.3071 167.457 31.3001 168.594 17.3881C168.854 14.2181 169.062 11.0331 169.114 7.85307C169.148 5.75307 165.077 3.39807 163.547 2.56307Z" fill="#223B6C"/>
<path d="M153.356 3.50611C152.204 -3.13289 140.479 2.1651 137.377 4.4341C134.509 6.5321 133.73 8.51711 133.548 11.7241C133.242 17.0631 133.526 22.4371 134.207 27.7381C135.14 35.0211 136.986 42.2691 139.947 49.0221C140.848 51.0801 141.835 53.0891 142.917 55.0631C143.404 55.9551 144.486 58.7901 145.541 59.0741C147.098 59.4941 149.233 59.0971 150.847 59.0971C151.168 59.0971 151.363 58.9071 151.435 58.6751C151.461 58.6131 151.484 58.5451 151.489 58.4691C152.501 46.3601 153.302 34.2201 153.719 22.0771C153.927 15.9851 154.404 9.55111 153.356 3.50611Z" fill="#0C7CC6"/>
<path d="M144.485 59.377C149.233 60.262 154.243 60.204 158.987 59.377C160.345 59.142 159.769 57.325 158.419 57.56C154.075 58.315 149.408 58.369 145.056 57.56C143.706 57.308 143.131 59.126 144.485 59.377Z" fill="#0C7CC6"/>
<path d="M329.254 192.286C328.669 192.286 328.14 192.173 327.667 191.948C327.194 191.712 326.817 191.402 326.536 191.02C326.265 190.626 326.13 190.187 326.13 189.703C326.13 188.915 326.451 188.29 327.093 187.828C327.734 187.356 328.573 187.04 329.609 186.883L331.922 186.545V186.191C331.922 185.718 331.804 185.352 331.567 185.093C331.331 184.834 330.926 184.705 330.352 184.705C329.946 184.705 329.614 184.789 329.355 184.958C329.108 185.116 328.922 185.329 328.798 185.6C328.708 185.746 328.579 185.819 328.41 185.819H327.076C326.952 185.819 326.856 185.785 326.789 185.718C326.733 185.65 326.704 185.56 326.704 185.448C326.716 185.268 326.789 185.048 326.924 184.789C327.07 184.53 327.284 184.283 327.566 184.046C327.858 183.799 328.235 183.59 328.697 183.421C329.158 183.253 329.716 183.168 330.368 183.168C331.078 183.168 331.674 183.258 332.158 183.438C332.654 183.607 333.048 183.838 333.34 184.131C333.633 184.423 333.847 184.767 333.982 185.161C334.117 185.555 334.184 185.971 334.184 186.41V191.712C334.184 191.824 334.145 191.92 334.066 191.999C333.987 192.078 333.892 192.117 333.779 192.117H332.412C332.288 192.117 332.186 192.078 332.108 191.999C332.04 191.92 332.006 191.824 332.006 191.712V191.053C331.86 191.256 331.663 191.453 331.415 191.644C331.168 191.836 330.864 191.993 330.504 192.117C330.155 192.23 329.738 192.286 329.254 192.286ZM329.828 190.682C330.222 190.682 330.577 190.598 330.892 190.429C331.218 190.26 331.472 190.001 331.652 189.652C331.843 189.292 331.939 188.842 331.939 188.301V187.947L330.25 188.217C329.586 188.318 329.091 188.481 328.764 188.706C328.438 188.932 328.275 189.207 328.275 189.534C328.275 189.781 328.348 189.995 328.494 190.175C328.652 190.344 328.849 190.474 329.085 190.564C329.322 190.643 329.569 190.682 329.828 190.682Z" fill="white"/>
<path d="M316.59 192.117C316.477 192.117 316.382 192.078 316.303 191.999C316.224 191.92 316.185 191.824 316.185 191.712V183.742C316.185 183.63 316.224 183.534 316.303 183.455C316.382 183.376 316.477 183.337 316.59 183.337H317.991C318.115 183.337 318.211 183.376 318.278 183.455C318.357 183.534 318.396 183.63 318.396 183.742V186.765H322.212V183.742C322.212 183.63 322.252 183.534 322.331 183.455C322.409 183.376 322.505 183.337 322.618 183.337H324.019C324.132 183.337 324.227 183.376 324.306 183.455C324.385 183.534 324.424 183.63 324.424 183.742V191.712C324.424 191.824 324.385 191.92 324.306 191.999C324.227 192.078 324.132 192.117 324.019 192.117H322.618C322.505 192.117 322.409 192.078 322.331 191.999C322.252 191.92 322.212 191.824 322.212 191.712V188.537H318.396V191.712C318.396 191.824 318.357 191.92 318.278 191.999C318.211 192.078 318.115 192.117 317.991 192.117H316.59Z" fill="white"/>
<path d="M310.221 192.286C308.972 192.286 307.981 191.926 307.25 191.205C306.518 190.485 306.124 189.461 306.068 188.132C306.056 188.02 306.051 187.879 306.051 187.71C306.051 187.53 306.056 187.389 306.068 187.288C306.113 186.433 306.304 185.701 306.642 185.093C306.991 184.474 307.469 184.001 308.077 183.675C308.685 183.337 309.4 183.168 310.221 183.168C311.133 183.168 311.899 183.36 312.518 183.742C313.137 184.114 313.604 184.637 313.919 185.313C314.234 185.977 314.392 186.748 314.392 187.626V187.98C314.392 188.093 314.352 188.189 314.274 188.267C314.195 188.346 314.094 188.386 313.97 188.386H308.364C308.364 188.386 308.364 188.403 308.364 188.436C308.364 188.47 308.364 188.498 308.364 188.521C308.375 188.915 308.448 189.281 308.584 189.618C308.73 189.945 308.938 190.209 309.208 190.412C309.49 190.614 309.822 190.716 310.204 190.716C310.52 190.716 310.784 190.671 310.998 190.581C311.212 190.479 311.386 190.367 311.521 190.243C311.657 190.119 311.752 190.018 311.809 189.939C311.91 189.804 311.989 189.725 312.045 189.703C312.112 189.669 312.208 189.652 312.332 189.652H313.784C313.897 189.652 313.987 189.686 314.054 189.753C314.133 189.821 314.167 189.905 314.155 190.007C314.144 190.187 314.049 190.406 313.868 190.665C313.7 190.924 313.452 191.177 313.126 191.425C312.799 191.673 312.388 191.881 311.893 192.05C311.409 192.207 310.852 192.286 310.221 192.286ZM308.364 186.967H312.096V186.917C312.096 186.478 312.022 186.095 311.876 185.768C311.73 185.431 311.516 185.172 311.234 184.992C310.953 184.8 310.615 184.705 310.221 184.705C309.827 184.705 309.49 184.8 309.208 184.992C308.927 185.172 308.713 185.431 308.567 185.768C308.432 186.095 308.364 186.478 308.364 186.917V186.967Z" fill="white"/>
<path d="M295.499 193.974C295.386 193.974 295.291 193.935 295.212 193.856C295.133 193.777 295.094 193.682 295.094 193.569V190.732C295.094 190.62 295.133 190.524 295.212 190.445C295.291 190.367 295.386 190.327 295.499 190.327H295.634C295.927 190.327 296.163 190.175 296.343 189.871C296.535 189.556 296.675 189.083 296.765 188.453C296.855 187.811 296.9 187.001 296.9 186.022V183.742C296.9 183.63 296.94 183.534 297.019 183.455C297.097 183.376 297.193 183.337 297.306 183.337H303.317C303.44 183.337 303.536 183.376 303.604 183.455C303.682 183.534 303.722 183.63 303.722 183.742V190.31H304.482C304.606 190.31 304.701 190.35 304.769 190.429C304.848 190.507 304.887 190.603 304.887 190.716V193.569C304.887 193.682 304.848 193.777 304.769 193.856C304.701 193.935 304.606 193.974 304.482 193.974H303.097C302.973 193.974 302.872 193.935 302.793 193.856C302.714 193.777 302.675 193.682 302.675 193.569V192.117H297.306V193.569C297.306 193.682 297.266 193.777 297.187 193.856C297.109 193.935 297.013 193.974 296.9 193.974H295.499ZM298.234 190.327L301.527 190.31V185.127H299.028V186.258C299.028 187.271 298.96 188.11 298.825 188.774C298.69 189.438 298.493 189.956 298.234 190.327Z" fill="white"/>
<path d="M285.705 192.117C285.604 192.117 285.514 192.078 285.435 191.999C285.356 191.92 285.317 191.83 285.317 191.729V183.742C285.317 183.63 285.356 183.534 285.435 183.455C285.514 183.376 285.61 183.337 285.722 183.337H287.124C287.247 183.337 287.343 183.376 287.411 183.455C287.489 183.534 287.529 183.63 287.529 183.742V190.412L286.938 189.99L291.581 183.607C291.637 183.528 291.699 183.466 291.767 183.421C291.834 183.365 291.924 183.337 292.037 183.337H293.32C293.422 183.337 293.512 183.376 293.59 183.455C293.669 183.523 293.709 183.607 293.709 183.708V191.712C293.709 191.824 293.669 191.92 293.59 191.999C293.512 192.078 293.416 192.117 293.303 192.117H291.902C291.778 192.117 291.677 192.078 291.598 191.999C291.53 191.92 291.497 191.824 291.497 191.712V185.346L292.121 185.431L287.444 191.847C287.399 191.914 287.337 191.976 287.259 192.033C287.191 192.089 287.101 192.117 286.988 192.117H285.705ZM289.606 182.189C288.93 182.189 288.39 182.082 287.985 181.868C287.579 181.654 287.287 181.378 287.107 181.041C286.938 180.692 286.853 180.32 286.853 179.926C286.853 179.836 286.882 179.763 286.938 179.707C286.994 179.639 287.073 179.605 287.174 179.605H288.137C288.238 179.605 288.317 179.639 288.373 179.707C288.429 179.763 288.457 179.836 288.457 179.926C288.457 180.174 288.536 180.399 288.694 180.602C288.851 180.793 289.155 180.889 289.606 180.889C290.078 180.889 290.388 180.793 290.534 180.602C290.681 180.399 290.754 180.174 290.754 179.926C290.754 179.836 290.782 179.763 290.838 179.707C290.895 179.639 290.973 179.605 291.075 179.605H292.054C292.155 179.605 292.234 179.639 292.29 179.707C292.347 179.763 292.375 179.836 292.375 179.926C292.375 180.32 292.285 180.692 292.105 181.041C291.924 181.378 291.632 181.654 291.227 181.868C290.833 182.082 290.292 182.189 289.606 182.189Z" fill="white"/>
<path d="M278.22 192.286C277.635 192.286 277.106 192.173 276.633 191.948C276.16 191.712 275.783 191.402 275.502 191.02C275.232 190.626 275.097 190.187 275.097 189.703C275.097 188.915 275.417 188.29 276.059 187.828C276.701 187.356 277.539 187.04 278.575 186.883L280.888 186.545V186.191C280.888 185.718 280.77 185.352 280.534 185.093C280.297 184.834 279.892 184.705 279.318 184.705C278.913 184.705 278.581 184.789 278.322 184.958C278.074 185.116 277.888 185.329 277.764 185.6C277.674 185.746 277.545 185.819 277.376 185.819H276.042C275.918 185.819 275.823 185.785 275.755 185.718C275.699 185.65 275.671 185.56 275.671 185.448C275.682 185.268 275.755 185.048 275.89 184.789C276.037 184.53 276.25 184.283 276.532 184.046C276.825 183.799 277.202 183.59 277.663 183.421C278.125 183.253 278.682 183.168 279.335 183.168C280.044 183.168 280.641 183.258 281.125 183.438C281.62 183.607 282.014 183.838 282.306 184.131C282.599 184.423 282.813 184.767 282.948 185.161C283.083 185.555 283.151 185.971 283.151 186.41V191.712C283.151 191.824 283.111 191.92 283.033 191.999C282.954 192.078 282.858 192.117 282.745 192.117H281.378C281.254 192.117 281.153 192.078 281.074 191.999C281.006 191.92 280.973 191.824 280.973 191.712V191.053C280.826 191.256 280.629 191.453 280.382 191.644C280.134 191.836 279.83 191.993 279.47 192.117C279.121 192.23 278.704 192.286 278.22 192.286ZM278.794 190.682C279.188 190.682 279.543 190.598 279.858 190.429C280.185 190.26 280.438 190.001 280.618 189.652C280.809 189.292 280.905 188.842 280.905 188.301V187.947L279.217 188.217C278.552 188.318 278.057 188.481 277.731 188.706C277.404 188.932 277.241 189.207 277.241 189.534C277.241 189.781 277.314 189.995 277.461 190.175C277.618 190.344 277.815 190.474 278.052 190.564C278.288 190.643 278.536 190.682 278.794 190.682Z" fill="white"/>
<path d="M265.556 192.117C265.444 192.117 265.348 192.078 265.269 191.999C265.19 191.92 265.151 191.824 265.151 191.712V183.742C265.151 183.63 265.19 183.534 265.269 183.455C265.348 183.376 265.444 183.337 265.556 183.337H266.958C267.081 183.337 267.177 183.376 267.245 183.455C267.323 183.534 267.363 183.63 267.363 183.742V186.765H271.179V183.742C271.179 183.63 271.218 183.534 271.297 183.455C271.376 183.376 271.471 183.337 271.584 183.337H272.985C273.098 183.337 273.194 183.376 273.272 183.455C273.351 183.534 273.391 183.63 273.391 183.742V191.712C273.391 191.824 273.351 191.92 273.272 191.999C273.194 192.078 273.098 192.117 272.985 192.117H271.584C271.471 192.117 271.376 192.078 271.297 191.999C271.218 191.92 271.179 191.824 271.179 191.712V188.537H267.363V191.712C267.363 191.824 267.323 191.92 267.245 191.999C267.177 192.078 267.081 192.117 266.958 192.117H265.556Z" fill="white"/>
<path d="M255.329 192.286C254.08 192.286 253.089 191.926 252.358 191.205C251.626 190.485 251.232 189.461 251.176 188.132C251.164 188.02 251.159 187.879 251.159 187.71C251.159 187.53 251.164 187.389 251.176 187.288C251.221 186.433 251.412 185.701 251.75 185.093C252.099 184.474 252.577 184.001 253.185 183.675C253.793 183.337 254.508 183.168 255.329 183.168C256.241 183.168 257.006 183.36 257.626 183.742C258.245 184.114 258.712 184.637 259.027 185.313C259.342 185.977 259.5 186.748 259.5 187.626V187.98C259.5 188.093 259.46 188.189 259.382 188.267C259.303 188.346 259.201 188.386 259.078 188.386H253.472C253.472 188.386 253.472 188.403 253.472 188.436C253.472 188.47 253.472 188.498 253.472 188.521C253.483 188.915 253.556 189.281 253.691 189.618C253.838 189.945 254.046 190.209 254.316 190.412C254.598 190.614 254.93 190.716 255.312 190.716C255.628 190.716 255.892 190.671 256.106 190.581C256.32 190.479 256.494 190.367 256.629 190.243C256.764 190.119 256.86 190.018 256.916 189.939C257.018 189.804 257.097 189.725 257.153 189.703C257.22 189.669 257.316 189.652 257.44 189.652H258.892C259.004 189.652 259.095 189.686 259.162 189.753C259.241 189.821 259.275 189.905 259.263 190.007C259.252 190.187 259.156 190.406 258.976 190.665C258.808 190.924 258.56 191.177 258.233 191.425C257.907 191.673 257.496 191.881 257.001 192.05C256.517 192.207 255.96 192.286 255.329 192.286ZM253.472 186.967H257.203V186.917C257.203 186.478 257.13 186.095 256.984 185.768C256.838 185.431 256.624 185.172 256.342 184.992C256.061 184.8 255.723 184.705 255.329 184.705C254.935 184.705 254.598 184.8 254.316 184.992C254.035 185.172 253.821 185.431 253.675 185.768C253.539 186.095 253.472 186.478 253.472 186.917V186.967Z" fill="white"/>
<path d="M241.433 192.117C241.32 192.117 241.224 192.078 241.146 191.999C241.067 191.92 241.027 191.824 241.027 191.712V183.742C241.027 183.63 241.067 183.534 241.146 183.455C241.224 183.376 241.32 183.337 241.433 183.337H242.834C242.958 183.337 243.054 183.376 243.121 183.455C243.2 183.534 243.239 183.63 243.239 183.742V186.765H247.055V183.742C247.055 183.63 247.095 183.534 247.173 183.455C247.252 183.376 247.348 183.337 247.46 183.337H248.862C248.974 183.337 249.07 183.376 249.149 183.455C249.228 183.534 249.267 183.63 249.267 183.742V191.712C249.267 191.824 249.228 191.92 249.149 191.999C249.07 192.078 248.974 192.117 248.862 192.117H247.46C247.348 192.117 247.252 192.078 247.173 191.999C247.095 191.92 247.055 191.824 247.055 191.712V188.537H243.239V191.712C243.239 191.824 243.2 191.92 243.121 191.999C243.054 192.078 242.958 192.117 242.834 192.117H241.433Z" fill="white"/>
<path d="M230.072 192.286C229.487 192.286 228.958 192.173 228.485 191.948C228.012 191.712 227.635 191.402 227.354 191.02C227.084 190.626 226.949 190.187 226.949 189.703C226.949 188.915 227.27 188.29 227.911 187.828C228.553 187.356 229.391 187.04 230.427 186.883L232.74 186.545V186.191C232.74 185.718 232.622 185.352 232.386 185.093C232.149 184.834 231.744 184.705 231.17 184.705C230.765 184.705 230.433 184.789 230.174 184.958C229.926 185.116 229.74 185.329 229.617 185.6C229.526 185.746 229.397 185.819 229.228 185.819H227.894C227.77 185.819 227.675 185.785 227.607 185.718C227.551 185.65 227.523 185.56 227.523 185.448C227.534 185.268 227.607 185.048 227.742 184.789C227.889 184.53 228.103 184.283 228.384 184.046C228.677 183.799 229.054 183.59 229.515 183.421C229.977 183.253 230.534 183.168 231.187 183.168C231.896 183.168 232.493 183.258 232.977 183.438C233.472 183.607 233.866 183.838 234.159 184.131C234.451 184.423 234.665 184.767 234.8 185.161C234.935 185.555 235.003 185.971 235.003 186.41V191.712C235.003 191.824 234.963 191.92 234.885 191.999C234.806 192.078 234.71 192.117 234.598 192.117H233.23C233.106 192.117 233.005 192.078 232.926 191.999C232.858 191.92 232.825 191.824 232.825 191.712V191.053C232.678 191.256 232.481 191.453 232.234 191.644C231.986 191.836 231.682 191.993 231.322 192.117C230.973 192.23 230.556 192.286 230.072 192.286ZM230.646 190.682C231.04 190.682 231.395 190.598 231.71 190.429C232.037 190.26 232.29 190.001 232.47 189.652C232.661 189.292 232.757 188.842 232.757 188.301V187.947L231.069 188.217C230.404 188.318 229.909 188.481 229.583 188.706C229.256 188.932 229.093 189.207 229.093 189.534C229.093 189.781 229.166 189.995 229.313 190.175C229.47 190.344 229.667 190.474 229.904 190.564C230.14 190.643 230.388 190.682 230.646 190.682Z" fill="white"/>
<path d="M224.168 194.177C224.055 194.177 223.959 194.138 223.88 194.059C223.802 193.98 223.762 193.884 223.762 193.772V192.117H217.177C217.065 192.117 216.969 192.078 216.89 191.999C216.811 191.92 216.772 191.824 216.772 191.712V183.742C216.772 183.63 216.811 183.534 216.89 183.455C216.969 183.376 217.065 183.337 217.177 183.337H218.579C218.702 183.337 218.798 183.376 218.866 183.455C218.944 183.534 218.984 183.63 218.984 183.742V190.327H222.597V183.742C222.597 183.63 222.637 183.534 222.715 183.455C222.794 183.376 222.89 183.337 223.002 183.337H224.404C224.528 183.337 224.623 183.376 224.691 183.455C224.77 183.534 224.809 183.63 224.809 183.742V190.327H225.569C225.682 190.327 225.777 190.367 225.856 190.445C225.935 190.524 225.974 190.62 225.974 190.732V193.772C225.974 193.884 225.935 193.98 225.856 194.059C225.777 194.138 225.682 194.177 225.569 194.177H224.168Z" fill="white"/>
<path d="M206.64 192.117C206.539 192.117 206.449 192.078 206.37 191.999C206.291 191.92 206.252 191.83 206.252 191.729V183.742C206.252 183.63 206.291 183.534 206.37 183.455C206.449 183.376 206.545 183.337 206.657 183.337H208.059C208.182 183.337 208.278 183.376 208.346 183.455C208.424 183.534 208.464 183.63 208.464 183.742V190.412L207.873 189.99L212.516 183.607C212.572 183.528 212.634 183.466 212.702 183.421C212.769 183.365 212.86 183.337 212.972 183.337H214.255C214.357 183.337 214.447 183.376 214.526 183.455C214.604 183.523 214.644 183.607 214.644 183.708V191.712C214.644 191.824 214.604 191.92 214.526 191.999C214.447 192.078 214.351 192.117 214.238 192.117H212.837C212.713 192.117 212.612 192.078 212.533 191.999C212.466 191.92 212.432 191.824 212.432 191.712V185.346L213.057 185.431L208.379 191.847C208.334 191.914 208.273 191.976 208.194 192.033C208.126 192.089 208.036 192.117 207.924 192.117H206.64Z" fill="white"/>
<path d="M196.137 192.117C196.025 192.117 195.929 192.078 195.85 191.999C195.771 191.92 195.732 191.824 195.732 191.712V183.742C195.732 183.63 195.771 183.534 195.85 183.455C195.929 183.376 196.025 183.337 196.137 183.337H197.539C197.662 183.337 197.758 183.376 197.826 183.455C197.904 183.534 197.944 183.63 197.944 183.742V186.765H201.76V183.742C201.76 183.63 201.799 183.534 201.878 183.455C201.957 183.376 202.052 183.337 202.165 183.337H203.566C203.679 183.337 203.775 183.376 203.854 183.455C203.932 183.534 203.972 183.63 203.972 183.742V191.712C203.972 191.824 203.932 191.92 203.854 191.999C203.775 192.078 203.679 192.117 203.566 192.117H202.165C202.052 192.117 201.957 192.078 201.878 191.999C201.799 191.92 201.76 191.824 201.76 191.712V188.537H197.944V191.712C197.944 191.824 197.904 191.92 197.826 191.999C197.758 192.078 197.662 192.117 197.539 192.117H196.137Z" fill="white"/>
<path d="M188.635 192.286C188.05 192.286 187.521 192.173 187.048 191.948C186.575 191.712 186.198 191.402 185.917 191.02C185.647 190.626 185.512 190.187 185.512 189.703C185.512 188.915 185.833 188.29 186.474 187.828C187.116 187.356 187.954 187.04 188.99 186.883L191.303 186.545V186.191C191.303 185.718 191.185 185.352 190.949 185.093C190.712 184.834 190.307 184.705 189.733 184.705C189.328 184.705 188.996 184.789 188.737 184.958C188.489 185.116 188.303 185.329 188.18 185.6C188.089 185.746 187.96 185.819 187.791 185.819H186.457C186.333 185.819 186.238 185.785 186.17 185.718C186.114 185.65 186.086 185.56 186.086 185.448C186.097 185.268 186.17 185.048 186.305 184.789C186.452 184.53 186.666 184.283 186.947 184.046C187.24 183.799 187.617 183.59 188.078 183.421C188.54 183.253 189.097 183.168 189.75 183.168C190.459 183.168 191.056 183.258 191.54 183.438C192.035 183.607 192.429 183.838 192.722 184.131C193.014 184.423 193.228 184.767 193.363 185.161C193.498 185.555 193.566 185.971 193.566 186.41V191.712C193.566 191.824 193.526 191.92 193.448 191.999C193.369 192.078 193.273 192.117 193.161 192.117H191.793C191.669 192.117 191.568 192.078 191.489 191.999C191.421 191.92 191.388 191.824 191.388 191.712V191.053C191.241 191.256 191.044 191.453 190.797 191.644C190.549 191.836 190.245 191.993 189.885 192.117C189.536 192.23 189.119 192.286 188.635 192.286ZM189.209 190.682C189.603 190.682 189.958 190.598 190.273 190.429C190.6 190.26 190.853 190.001 191.033 189.652C191.224 189.292 191.32 188.842 191.32 188.301V187.947L189.632 188.217C188.967 188.318 188.472 188.481 188.146 188.706C187.819 188.932 187.656 189.207 187.656 189.534C187.656 189.781 187.729 189.995 187.876 190.175C188.033 190.344 188.23 190.474 188.467 190.564C188.703 190.643 188.951 190.682 189.209 190.682Z" fill="white"/>
<path d="M176.136 195.325C176.024 195.325 175.928 195.286 175.849 195.207C175.77 195.128 175.731 195.033 175.731 194.92V183.742C175.731 183.63 175.77 183.534 175.849 183.455C175.928 183.376 176.024 183.337 176.136 183.337H177.47C177.594 183.337 177.69 183.376 177.757 183.455C177.836 183.534 177.875 183.63 177.875 183.742V184.418C178.145 184.057 178.5 183.759 178.939 183.523C179.378 183.286 179.924 183.168 180.577 183.168C181.173 183.168 181.691 183.264 182.13 183.455C182.569 183.647 182.935 183.922 183.228 184.283C183.52 184.632 183.746 185.048 183.903 185.532C184.061 186.016 184.151 186.551 184.173 187.136C184.185 187.328 184.19 187.524 184.19 187.727C184.19 187.93 184.185 188.132 184.173 188.335C184.162 188.898 184.078 189.421 183.92 189.905C183.762 190.378 183.532 190.795 183.228 191.155C182.935 191.504 182.569 191.779 182.13 191.982C181.691 192.185 181.173 192.286 180.577 192.286C179.969 192.286 179.451 192.179 179.023 191.965C178.596 191.74 178.247 191.447 177.977 191.087V194.92C177.977 195.033 177.937 195.128 177.858 195.207C177.791 195.286 177.695 195.325 177.571 195.325H176.136ZM179.952 190.479C180.436 190.479 180.813 190.378 181.083 190.175C181.354 189.962 181.551 189.686 181.674 189.348C181.798 189.01 181.871 188.639 181.894 188.234C181.905 187.896 181.905 187.558 181.894 187.221C181.871 186.815 181.798 186.444 181.674 186.106C181.551 185.768 181.354 185.498 181.083 185.296C180.813 185.082 180.436 184.975 179.952 184.975C179.491 184.975 179.114 185.082 178.821 185.296C178.539 185.51 178.331 185.785 178.196 186.123C178.072 186.449 177.999 186.787 177.977 187.136C177.965 187.339 177.96 187.553 177.96 187.778C177.96 188.003 177.965 188.222 177.977 188.436C177.988 188.774 178.067 189.1 178.213 189.416C178.359 189.72 178.573 189.973 178.855 190.175C179.136 190.378 179.502 190.479 179.952 190.479Z" fill="white"/>
<path d="M169.445 192.117C169.321 192.117 169.22 192.078 169.141 191.999C169.074 191.92 169.04 191.824 169.04 191.712V185.127H166.288C166.164 185.127 166.062 185.087 165.984 185.009C165.916 184.93 165.882 184.828 165.882 184.705V183.742C165.882 183.63 165.916 183.534 165.984 183.455C166.062 183.376 166.164 183.337 166.288 183.337H173.953C174.077 183.337 174.178 183.376 174.257 183.455C174.336 183.534 174.375 183.63 174.375 183.742V184.705C174.375 184.828 174.336 184.93 174.257 185.009C174.178 185.087 174.077 185.127 173.953 185.127H171.218V191.712C171.218 191.824 171.179 191.92 171.1 191.999C171.021 192.078 170.925 192.117 170.813 192.117H169.445Z" fill="white"/>
<path d="M160.913 192.286C160.103 192.286 159.388 192.134 158.769 191.83C158.161 191.526 157.683 191.087 157.334 190.513C156.996 189.928 156.81 189.224 156.777 188.403C156.765 188.234 156.76 188.014 156.76 187.744C156.76 187.463 156.765 187.232 156.777 187.052C156.81 186.23 156.996 185.532 157.334 184.958C157.683 184.373 158.161 183.928 158.769 183.624C159.388 183.32 160.103 183.168 160.913 183.168C161.634 183.168 162.247 183.27 162.754 183.472C163.26 183.664 163.677 183.917 164.003 184.232C164.33 184.536 164.572 184.857 164.729 185.194C164.898 185.521 164.988 185.819 165 186.089C165.011 186.213 164.971 186.314 164.881 186.393C164.803 186.461 164.707 186.495 164.594 186.495H163.108C162.996 186.495 162.906 186.466 162.838 186.41C162.782 186.354 162.726 186.269 162.669 186.157C162.501 185.707 162.275 185.391 161.994 185.211C161.724 185.02 161.375 184.924 160.947 184.924C160.384 184.924 159.934 185.104 159.596 185.465C159.27 185.813 159.095 186.371 159.073 187.136C159.05 187.564 159.05 187.958 159.073 188.318C159.095 189.095 159.27 189.658 159.596 190.007C159.934 190.356 160.384 190.53 160.947 190.53C161.386 190.53 161.741 190.44 162.011 190.26C162.281 190.068 162.501 189.748 162.669 189.297C162.726 189.185 162.782 189.1 162.838 189.044C162.906 188.988 162.996 188.96 163.108 188.96H164.594C164.707 188.96 164.803 188.999 164.881 189.078C164.971 189.145 165.011 189.241 165 189.365C164.988 189.568 164.932 189.798 164.831 190.057C164.741 190.305 164.589 190.564 164.375 190.834C164.172 191.093 163.913 191.335 163.598 191.56C163.283 191.774 162.9 191.948 162.45 192.083C162.011 192.218 161.499 192.286 160.913 192.286Z" fill="white"/>
<path d="M315.661 164.937C315.025 164.937 314.485 164.714 314.04 164.269C313.595 163.824 313.373 163.284 313.373 162.648V150.443H283.147C282.448 150.443 281.875 150.221 281.43 149.776C281.049 149.331 280.858 148.791 280.858 148.155V141.671C280.858 141.29 280.922 140.845 281.049 140.336C281.24 139.764 281.526 139.256 281.907 138.811L310.035 99.8128C310.862 98.7322 312.038 98.1919 313.563 98.1919H323.956C324.592 98.1919 325.132 98.4144 325.577 98.8593C326.022 99.3043 326.245 99.8446 326.245 100.48V139.192H334.731C335.494 139.192 336.066 139.415 336.447 139.86C336.892 140.241 337.115 140.781 337.115 141.481V148.155C337.115 148.791 336.892 149.331 336.447 149.776C336.002 150.221 335.462 150.443 334.826 150.443H326.245V162.648C326.245 163.284 326.022 163.824 325.577 164.269C325.132 164.714 324.592 164.937 323.956 164.937H315.661ZM294.112 139.574H313.659V112.018L294.112 139.574Z" fill="white"/>
<path d="M246.606 165.89C242.093 165.89 238.247 165.223 235.069 163.888C231.89 162.553 229.284 160.709 227.25 158.357C225.216 156.005 223.69 153.304 222.673 150.253C221.656 147.138 221.052 143.832 220.862 140.336C220.798 138.62 220.734 136.745 220.671 134.711C220.671 132.613 220.671 130.515 220.671 128.418C220.734 126.32 220.798 124.381 220.862 122.601C220.989 119.105 221.593 115.831 222.673 112.78C223.754 109.666 225.311 106.964 227.345 104.676C229.443 102.387 232.081 100.576 235.259 99.2406C238.438 97.9057 242.22 97.2383 246.606 97.2383C251.056 97.2383 254.87 97.9057 258.048 99.2406C261.226 100.576 263.832 102.387 265.867 104.676C267.964 106.964 269.522 109.666 270.539 112.78C271.619 115.831 272.223 119.105 272.35 122.601C272.478 124.381 272.541 126.32 272.541 128.418C272.541 130.515 272.541 132.613 272.541 134.711C272.541 136.745 272.478 138.62 272.35 140.336C272.223 143.832 271.651 147.138 270.634 150.253C269.617 153.304 268.091 156.005 266.057 158.357C264.023 160.709 261.385 162.553 258.143 163.888C254.965 165.223 251.119 165.89 246.606 165.89ZM246.606 154.925C250.738 154.925 253.757 153.59 255.664 150.92C257.635 148.187 258.652 144.5 258.715 139.86C258.843 138.016 258.906 136.173 258.906 134.329C258.906 132.422 258.906 130.515 258.906 128.608C258.906 126.701 258.843 124.89 258.715 123.173C258.652 118.66 257.635 115.037 255.664 112.304C253.757 109.507 250.738 108.108 246.606 108.108C242.538 108.108 239.518 109.507 237.548 112.304C235.641 115.037 234.624 118.66 234.497 123.173C234.497 124.89 234.465 126.701 234.401 128.608C234.401 130.515 234.401 132.422 234.401 134.329C234.465 136.173 234.497 138.016 234.497 139.86C234.624 144.5 235.673 148.187 237.643 150.92C239.614 153.59 242.601 154.925 246.606 154.925Z" fill="white"/>
<path d="M190.794 164.937C190.158 164.937 189.618 164.714 189.173 164.269C188.728 163.824 188.505 163.284 188.505 162.648V150.443H158.28C157.58 150.443 157.008 150.221 156.563 149.776C156.182 149.331 155.991 148.791 155.991 148.155V141.671C155.991 141.29 156.055 140.845 156.182 140.336C156.373 139.764 156.659 139.256 157.04 138.811L185.168 99.8128C185.995 98.7322 187.171 98.1919 188.696 98.1919H199.089C199.725 98.1919 200.265 98.4144 200.71 98.8593C201.155 99.3043 201.378 99.8446 201.378 100.48V139.192H209.864C210.627 139.192 211.199 139.415 211.58 139.86C212.025 140.241 212.247 140.781 212.247 141.481V148.155C212.247 148.791 212.025 149.331 211.58 149.776C211.135 150.221 210.595 150.443 209.959 150.443H201.378V162.648C201.378 163.284 201.155 163.824 200.71 164.269C200.265 164.714 199.725 164.937 199.089 164.937H190.794ZM169.245 139.574H188.791V112.018L169.245 139.574Z" fill="white"/>
<path d="M229.045 84.619C228.866 84.619 228.714 84.5654 228.589 84.4581C228.464 84.333 228.402 84.1721 228.402 83.9754V71.6932C228.402 71.5144 228.464 71.3624 228.589 71.2373C228.714 71.1121 228.866 71.0496 229.045 71.0496H231.217C231.414 71.0496 231.566 71.1121 231.673 71.2373C231.798 71.3624 231.861 71.5144 231.861 71.6932V83.9754C231.861 84.1721 231.798 84.333 231.673 84.4581C231.566 84.5654 231.414 84.619 231.217 84.619H229.045ZM228.884 89.8215C228.706 89.8215 228.554 89.759 228.428 89.6338C228.303 89.5087 228.241 89.3567 228.241 89.1779V86.6839C228.241 86.4873 228.303 86.3264 228.428 86.2012C228.554 86.0761 228.706 86.0135 228.884 86.0135H231.378C231.575 86.0135 231.736 86.0761 231.861 86.2012C231.986 86.3264 232.049 86.4873 232.049 86.6839V89.1779C232.049 89.3567 231.986 89.5087 231.861 89.6338C231.736 89.759 231.575 89.8215 231.378 89.8215H228.884Z" fill="white"/>
<path d="M212.23 89.8214C212.069 89.8214 211.926 89.7589 211.801 89.6337C211.676 89.5086 211.613 89.3655 211.613 89.2046V76.5201C211.613 76.3414 211.676 76.1894 211.801 76.0643C211.926 75.9391 212.078 75.8765 212.257 75.8765H214.483C214.679 75.8765 214.831 75.9391 214.939 76.0643C215.064 76.1894 215.126 76.3414 215.126 76.5201V87.1129L214.188 86.4425L221.562 76.3056C221.652 76.1805 221.75 76.0821 221.857 76.0106C221.965 75.9212 222.108 75.8765 222.286 75.8765H224.325C224.485 75.8765 224.629 75.9391 224.754 76.0643C224.879 76.1715 224.941 76.3056 224.941 76.4665V89.1778C224.941 89.3566 224.879 89.5086 224.754 89.6337C224.629 89.7589 224.477 89.8214 224.298 89.8214H222.072C221.875 89.8214 221.714 89.7589 221.589 89.6337C221.482 89.5086 221.428 89.3566 221.428 89.1778V79.0678L222.421 79.2019L214.992 89.3924C214.921 89.4996 214.822 89.5979 214.697 89.6873C214.59 89.7767 214.447 89.8214 214.268 89.8214H212.23ZM218.425 74.053C217.352 74.053 216.494 73.8831 215.85 73.5434C215.207 73.2038 214.742 72.7657 214.456 72.2294C214.188 71.6752 214.054 71.0852 214.054 70.4595C214.054 70.3165 214.098 70.2002 214.188 70.1109C214.277 70.0036 214.402 69.95 214.563 69.95H216.092C216.253 69.95 216.378 70.0036 216.467 70.1109C216.557 70.2002 216.601 70.3165 216.601 70.4595C216.601 70.8528 216.726 71.2104 216.977 71.5322C217.227 71.8361 217.71 71.9881 218.425 71.9881C219.176 71.9881 219.667 71.8361 219.9 71.5322C220.132 71.2104 220.248 70.8528 220.248 70.4595C220.248 70.3165 220.293 70.2002 220.382 70.1109C220.472 70.0036 220.597 69.95 220.758 69.95H222.313C222.474 69.95 222.599 70.0036 222.689 70.1109C222.778 70.2002 222.823 70.3165 222.823 70.4595C222.823 71.0852 222.68 71.6752 222.394 72.2294C222.108 72.7657 221.643 73.2038 220.999 73.5434C220.374 73.8831 219.515 74.053 218.425 74.053Z" fill="white"/>
<path d="M200.502 90.0896C198.911 90.0896 197.544 89.8303 196.399 89.3119C195.255 88.7755 194.361 87.9621 193.718 86.8715C193.074 85.7631 192.725 84.3865 192.672 82.7417C192.654 81.9729 192.645 81.2131 192.645 80.4622C192.645 79.7113 192.654 78.9426 192.672 78.156C192.725 76.529 193.083 75.1703 193.745 74.0798C194.406 72.9892 195.309 72.1668 196.453 71.6126C197.615 71.0584 198.965 70.7812 200.502 70.7812C202.04 70.7812 203.39 71.0584 204.552 71.6126C205.714 72.1668 206.626 72.9892 207.287 74.0798C207.949 75.1703 208.306 76.529 208.36 78.156C208.396 78.9426 208.413 79.7113 208.413 80.4622C208.413 81.2131 208.396 81.9729 208.36 82.7417C208.306 84.3865 207.958 85.7631 207.314 86.8715C206.67 87.9621 205.768 88.7755 204.605 89.3119C203.461 89.8303 202.094 90.0896 200.502 90.0896ZM200.502 87.0056C201.665 87.0056 202.612 86.6659 203.345 85.9865C204.078 85.2893 204.471 84.163 204.525 82.6076C204.561 81.821 204.579 81.0969 204.579 80.4354C204.579 79.756 204.561 79.032 204.525 78.2632C204.489 77.2263 204.293 76.386 203.935 75.7424C203.595 75.0809 203.131 74.6072 202.541 74.3211C201.951 74.0172 201.271 73.8652 200.502 73.8652C199.752 73.8652 199.081 74.0172 198.491 74.3211C197.901 74.6072 197.427 75.0809 197.07 75.7424C196.73 76.386 196.542 77.2263 196.507 78.2632C196.489 79.032 196.48 79.756 196.48 80.4354C196.48 81.0969 196.489 81.821 196.507 82.6076C196.56 84.163 196.954 85.2893 197.687 85.9865C198.42 86.6659 199.358 87.0056 200.502 87.0056Z" fill="white"/>
</svg>
