<svg width="311" height="26" viewBox="0 0 311 26" fill="none" xmlns="http://www.w3.org/2000/svg">
<path d="M99.5816 2.0282L97.8832 11.6483H87.9498L89.6482 2.0282H83.8394L79.2866 25.5104H85.0954L87.1077 16.0198H97.0411L95.043 25.5104H100.838L105.39 2.0282H99.5816Z" fill="white"/>
<path d="M116.508 2.0282L103.592 25.5248H109.715L112.041 21.2684H121.532L122.231 25.5248H128.112L124.115 2.0282H116.508ZM120.89 16.8682H114.353L119.363 7.69384L120.89 16.8682Z" fill="white"/>
<path d="M201.285 2.37326C199.971 1.98501 198.202 1.78369 196.032 1.78369C193.906 1.78369 192.108 1.97063 190.709 2.33013C189.267 2.704 188.04 3.32233 187.07 4.1995C186.099 5.06229 185.3 6.22705 184.686 7.67941C184.087 9.08864 183.559 10.9436 183.116 13.2013C182.588 15.8615 182.303 17.9897 182.303 19.5428C182.303 21.1821 182.617 22.4762 183.245 23.3966C183.887 24.3312 184.914 24.9783 186.285 25.3378C187.569 25.6686 189.353 25.8267 191.608 25.8267C193.763 25.8267 195.547 25.6542 196.932 25.3091C198.373 24.9496 199.6 24.3169 200.585 23.4109C201.57 22.5194 202.398 21.254 203.04 19.6434C203.668 18.0904 204.239 16.0053 204.738 13.4313C205.124 11.5044 205.324 9.83639 205.324 8.48468C205.324 6.81663 204.995 5.4793 204.353 4.50147C203.711 3.49489 202.683 2.7759 201.285 2.37326ZM192.322 20.952C191.137 20.952 190.238 20.8801 189.638 20.7507C189.153 20.6356 188.811 20.4343 188.597 20.1323C188.368 19.8016 188.254 19.2408 188.254 18.4787C188.254 17.6015 188.454 16.0485 188.854 13.8915C189.21 12.0365 189.567 10.6129 189.881 9.64945C190.181 8.74352 190.538 8.06767 190.952 7.63628C191.337 7.23364 191.808 6.97481 192.393 6.85977C193.05 6.71597 194.034 6.65845 195.333 6.65845C196.518 6.65845 197.417 6.71597 198.016 6.84539C198.501 6.94605 198.844 7.14736 199.072 7.46372C199.229 7.69379 199.429 8.16833 199.429 9.16054C199.429 10.0377 199.229 11.562 198.83 13.6902C198.487 15.4733 198.159 16.8681 197.831 17.8172C197.531 18.7087 197.16 19.399 196.746 19.8447C196.346 20.2761 195.847 20.5637 195.219 20.7219C194.52 20.8657 193.549 20.952 192.322 20.952Z" fill="white"/>
<path d="M229.643 2.0282H209.791L208.82 6.94609H215.757L212.174 25.5104H218.012L221.594 6.94609H228.673L229.643 2.0282Z" fill="white"/>
<path d="M277.912 2.0282L276.941 6.94609H283.877L280.309 25.5104H286.147L289.729 6.94609H296.808L297.778 2.0282H277.912Z" fill="white"/>
<path d="M266.037 17.4722C266.009 17.5873 265.966 17.7023 265.937 17.803C265.638 18.6945 265.267 19.3848 264.853 19.8305C264.453 20.2619 263.954 20.5495 263.326 20.7077C262.641 20.8803 261.67 20.9665 260.443 20.9665C259.258 20.9665 258.359 20.8946 257.774 20.7652C257.288 20.6502 256.946 20.4489 256.732 20.1469C256.504 19.8161 256.389 19.2553 256.389 18.4932C256.389 17.616 256.589 16.063 256.989 13.906C257.346 12.051 257.702 10.6274 258.016 9.64962C258.316 8.74369 258.673 8.06784 259.087 7.63645C259.472 7.23381 259.943 6.97498 260.528 6.85994C261.185 6.71614 262.17 6.65862 263.468 6.65862C264.653 6.65862 265.552 6.71614 266.151 6.84556C266.637 6.94621 266.979 7.14753 267.208 7.46389C267.365 7.69396 267.564 8.1685 267.564 9.16071C267.564 9.43392 267.55 9.76466 267.507 10.1529H273.402C273.459 9.56334 273.487 9.01691 273.487 8.51362C273.487 6.84556 273.159 5.50823 272.517 4.53041C271.86 3.52382 270.818 2.81921 269.42 2.4022C268.107 2.01394 266.337 1.81262 264.168 1.81262C262.027 1.81262 260.243 1.99956 258.844 2.35905C257.403 2.73293 256.175 3.35126 255.205 4.22843C254.234 5.09122 253.435 6.25598 252.821 7.70834C252.222 9.11757 251.694 10.9726 251.251 13.2302C250.709 15.8905 250.438 18.0187 250.438 19.5717C250.438 21.211 250.752 22.5052 251.38 23.4255C252.022 24.3602 253.05 25.0073 254.42 25.3668C255.704 25.6975 257.488 25.8557 259.743 25.8557C261.884 25.8557 263.682 25.6831 265.067 25.338C266.508 24.9785 267.736 24.3458 268.72 23.4399C269.705 22.5483 270.533 21.2829 271.175 19.6723C271.432 19.0396 271.675 18.3063 271.917 17.501H266.037V17.4722Z" fill="white"/>
<path d="M155.942 7.5644C155.942 6.12642 155.6 4.97603 154.929 4.142C154.258 3.32235 153.288 2.74716 152.046 2.44519C150.876 2.15759 149.377 2.01379 147.564 2.01379H141.37H135.462L130.923 25.5104H136.732L137.688 20.5206H144.639C146.308 20.5206 147.75 20.4056 148.892 20.1611C150.076 19.9167 151.104 19.4709 151.946 18.8526C152.802 18.2342 153.502 17.3714 154.03 16.3073C154.372 15.6315 155.014 13 155.428 11.2456C155.514 10.8861 155.585 10.5266 155.642 10.1671C155.742 9.40502 155.942 8.03893 155.942 7.5644ZM148.578 14.5961C148.292 15.0131 147.893 15.3007 147.379 15.4733C146.808 15.6602 145.994 15.7609 144.981 15.7609H138.602L139.572 10.7567L140.328 6.84541H140.4H146.922C148.392 6.84541 149.063 7.08987 149.377 7.29119C149.52 7.37746 149.934 7.65068 149.934 8.71479C149.934 9.10304 149.876 9.54881 149.791 10.0521C149.62 10.6848 148.82 14.2366 148.578 14.5961Z" fill="white"/>
<path d="M79.615 7.5644C79.615 6.12642 79.2724 4.97603 78.6016 4.142C77.9309 3.32235 76.9604 2.74716 75.7187 2.44519C74.5484 2.15759 73.0498 2.01379 71.2372 2.01379H65.0431H59.1345L54.5959 25.5104H60.4047L61.3609 20.5206H68.3115C69.9813 20.5206 71.4085 20.4056 72.5503 20.1611C73.7349 19.9167 74.7624 19.4709 75.6045 18.8526C76.4608 18.2342 77.1602 17.3714 77.6882 16.3073C78.0308 15.6315 78.673 13 79.0869 11.2456C79.1725 10.8861 79.2439 10.5266 79.301 10.1671C79.4152 9.40502 79.615 8.03893 79.615 7.5644ZM72.2506 14.5961C71.9651 15.0131 71.5655 15.3007 71.0517 15.4733C70.4808 15.6602 69.6673 15.7609 68.654 15.7609H62.2743L63.2449 10.7567L64.0013 6.84541H64.0726H70.595C72.065 6.84541 72.7358 7.08987 73.0498 7.29119C73.1925 7.37746 73.6064 7.65068 73.6064 8.71479C73.6064 9.10304 73.5493 9.54881 73.4637 10.0521C73.2924 10.6848 72.4932 14.2366 72.2506 14.5961Z" fill="white"/>
<path d="M180.79 7.47814C180.79 7.44939 180.79 7.40624 180.79 7.37748C180.79 6.12644 180.504 5.09109 179.948 4.28583C179.391 3.48056 178.549 2.87661 177.45 2.53149C176.423 2.20076 175.124 2.0282 173.582 2.0282H172.398H166.204H160.295L158.625 10.6273L155.742 25.5248H161.465H161.565L162.522 20.535L162.721 19.514H163.135L169.986 25.5248H178.892L171.484 19.4565C172.426 19.399 173.254 19.2983 173.982 19.1402C175.167 18.8957 176.194 18.4499 177.036 17.8316C177.893 17.2133 178.592 16.3505 179.12 15.2864C179.363 14.8118 179.719 13.417 180.062 12.0222H180.076C180.148 11.7489 180.205 11.4901 180.262 11.26C180.276 11.2313 180.276 11.2025 180.276 11.1738C180.29 11.1162 180.305 11.0587 180.319 11.0012H180.305C180.362 10.728 180.419 10.4548 180.462 10.1815C180.476 10.0521 180.504 9.90833 180.533 9.76453C180.533 9.72139 180.547 9.69264 180.562 9.6495C180.69 9.03116 180.761 8.41283 180.79 7.82326C180.804 7.7226 180.804 7.63632 180.804 7.5788C180.79 7.53567 180.79 7.5069 180.79 7.47814ZM173.682 13.5608C173.397 13.9778 172.997 14.2654 172.484 14.438C171.913 14.6249 171.099 14.7256 170.086 14.7256H163.635L164.405 10.7424L165.148 6.88857H172.326C172.669 6.88857 172.954 6.90295 173.211 6.93171C173.725 7.01799 174.039 7.14741 174.225 7.26245C174.367 7.34873 174.781 7.62194 174.781 8.68605C174.781 9.0743 174.724 9.52008 174.639 10.0234C174.567 10.311 174.382 11.145 174.168 12.0222H174.182C173.968 12.7843 173.782 13.4314 173.682 13.5608Z" fill="white"/>
<path d="M249.139 6.75915L250.081 2.0282H232.541L228.002 25.5104H245.628L246.527 20.8082H234.653L235.638 15.7465L236.465 11.3607L237.365 6.75915H249.139Z" fill="white"/>
<path d="M246.784 16.0054L247.612 11.6339H236.408L235.566 16.0054H246.784Z" fill="white"/>
<path d="M27.2789 2.0282H19.6862L6.7699 25.5104H12.8784L17.5739 16.8682H17.5311L22.5406 7.70822L24.0677 16.8682H24.0249L25.3807 25.3091L25.4093 25.5104H31.2894L27.2789 2.0282Z" fill="white"/>
<path d="M44.748 2.0282H38.9107L34.3722 25.5104H51.2989L52.2266 20.5925H41.1514L44.748 2.0282Z" fill="white"/>
<path d="M25.3095 25.4673C25.3809 25.496 25.4094 25.5104 25.4094 25.5104L23.6968 14.6968H0.932739C9.79572 16.7675 18.0307 20.4775 25.3095 25.4673Z" fill="#C10B19"/>
<path d="M302.203 2.25837C301.832 2.93422 301.632 3.65321 301.632 4.40096C301.632 5.13433 301.818 5.83893 302.189 6.51479C302.56 7.19064 303.088 7.72269 303.759 8.08219C305.1 8.82994 306.627 8.82994 307.969 8.08219C308.64 7.70831 309.153 7.17626 309.524 6.51479C309.896 5.83893 310.081 5.11995 310.081 4.40096C310.081 3.66759 309.896 2.9486 309.51 2.25837C309.139 1.58251 308.611 1.05046 307.926 0.690962C307.255 0.317087 306.556 0.144531 305.842 0.144531C305.129 0.144531 304.429 0.331467 303.759 0.690962C303.102 1.05046 302.574 1.56813 302.203 2.25837ZM304.03 1.10798C305.214 0.460889 306.499 0.460889 307.698 1.10798C308.297 1.43872 308.768 1.89887 309.096 2.50282C309.425 3.10677 309.596 3.73948 309.596 4.38658C309.596 5.03367 309.425 5.66638 309.096 6.25595C308.768 6.84552 308.297 7.32006 307.712 7.65079C307.127 7.98153 306.499 8.15409 305.857 8.15409C305.214 8.15409 304.586 7.98153 304.001 7.65079C303.416 7.32006 302.945 6.84552 302.617 6.25595C302.288 5.66638 302.117 5.03367 302.117 4.38658C302.117 3.73948 302.288 3.10677 302.617 2.50282C302.959 1.89887 303.43 1.42434 304.03 1.10798Z" fill="white"/>
<path d="M306.713 2.34465C306.484 2.25837 306.085 2.22961 305.557 2.22961H304.072V6.70174H304.586V4.70294H305.143C305.428 4.70294 305.657 4.76046 305.828 4.88988C306.042 5.04806 306.313 5.42193 306.641 6.02588L307.027 6.70174H307.669L307.212 5.95398C306.941 5.52259 306.713 5.22062 306.541 5.04806C306.456 4.96178 306.327 4.88988 306.185 4.81798L305.742 4.63104L306.227 4.5879C306.613 4.55914 306.898 4.42973 307.127 4.19965C307.355 3.96957 307.455 3.69635 307.455 3.38C307.455 3.1643 307.384 2.94861 307.255 2.76167C307.112 2.56035 306.941 2.41655 306.713 2.34465ZM306.599 4.05585C306.413 4.21403 306.099 4.28593 305.628 4.28593H304.6V2.63225H305.571C305.956 2.63225 306.213 2.66101 306.37 2.71853C306.527 2.77605 306.656 2.8767 306.741 3.00612C306.827 3.13554 306.884 3.29372 306.884 3.4519C306.87 3.69635 306.784 3.89767 306.599 4.05585Z" fill="white"/>
</svg>
