<svg width="11" height="10" viewBox="0 0 11 10" fill="none" xmlns="http://www.w3.org/2000/svg">
<path d="M10.4766 5C10.4766 5.32812 10.2188 5.58594 9.91406 5.58594H1.94531L5.0625 8.53906C5.29688 8.75 5.29688 9.125 5.08594 9.33594C4.875 9.57031 4.52344 9.57031 4.28906 9.35938L0.164062 5.42188C0.046875 5.30469 0 5.16406 0 5C0 4.85938 0.046875 4.71875 0.164062 4.60156L4.28906 0.664062C4.52344 0.453125 4.875 0.453125 5.08594 0.6875C5.29688 0.898438 5.29688 1.27344 5.0625 1.48438L1.94531 4.4375H9.91406C10.2422 4.4375 10.4766 4.69531 10.4766 5Z" fill="white"/>
</svg>
