<svg width="28" height="20" viewBox="0 0 28 20" fill="none" xmlns="http://www.w3.org/2000/svg">
<path d="M14.9375 10.9375C14.9375 11.3242 14.5938 11.625 14.207 11.625C13.8633 11.625 13.5195 11.3242 13.5195 10.9375V5.4375C13.5195 5.09375 13.8633 4.75 14.207 4.75C14.5938 4.75 14.9375 5.09375 14.9375 5.4375V10.9375ZM13.1758 14.375C13.1758 13.8164 13.6484 13.3438 14.207 13.3438C14.8086 13.3438 15.2812 13.8164 15.2812 14.375C15.2812 14.9766 14.8086 15.4062 14.207 15.4062C13.6484 15.4062 13.1758 14.9766 13.1758 14.375ZM4.58203 10.25C4.58203 4.96484 8.92188 0.625 14.207 0.625C19.5352 0.625 23.875 4.96484 23.875 10.25C23.875 15.5781 19.5352 19.875 14.207 19.875C8.92188 19.875 4.58203 15.5781 4.58203 10.25ZM14.207 18.5C18.8047 18.5 22.5 14.8047 22.5 10.25C22.5 5.69531 18.8047 2 14.207 2C9.65234 2 5.95703 5.69531 5.95703 10.25C5.95703 14.8047 9.65234 18.5 14.207 18.5ZM1.83203 10.25C1.83203 12.7422 2.5625 15.0195 3.80859 16.9531C4.02344 17.2539 3.9375 17.6836 3.59375 17.8984C3.29297 18.1133 2.86328 18.0273 2.64844 17.6836C1.27344 15.5352 0.5 13 0.5 10.25C0.5 7.54297 1.27344 5.00781 2.64844 2.85938C2.86328 2.51562 3.29297 2.42969 3.59375 2.64453C3.9375 2.85938 4.02344 3.28906 3.80859 3.58984C2.5625 5.52344 1.83203 7.80078 1.83203 10.25ZM28 10.25C28 13 27.1836 15.5352 25.8086 17.6836C25.5938 18.0273 25.1641 18.1133 24.8633 17.8984C24.5195 17.6836 24.4336 17.2539 24.6484 16.9531C25.8945 15.0195 26.625 12.7422 26.625 10.25C26.625 7.80078 25.8945 5.52344 24.6484 3.58984C24.4336 3.28906 24.5195 2.85938 24.8633 2.64453C25.1641 2.42969 25.5938 2.51562 25.8086 2.85938C27.1836 5.00781 28 7.54297 28 10.25Z" fill="white"/>
</svg>
