<svg width="11" height="15" viewBox="0 0 11 15" fill="none" xmlns="http://www.w3.org/2000/svg">
<path d="M3.09375 7.53125C3.44922 7.53125 3.75 7.83203 3.75 8.1875C3.75 8.57031 3.44922 8.84375 3.09375 8.84375C2.71094 8.84375 2.4375 8.57031 2.4375 8.1875C2.4375 7.83203 2.71094 7.53125 3.09375 7.53125ZM3.09375 10.1562C3.44922 10.1562 3.75 10.457 3.75 10.8125C3.75 11.1953 3.44922 11.4688 3.09375 11.4688C2.71094 11.4688 2.4375 11.1953 2.4375 10.8125C2.4375 10.457 2.71094 10.1562 3.09375 10.1562ZM8.125 10.375C8.34375 10.375 8.5625 10.5938 8.5625 10.8125C8.5625 11.0586 8.34375 11.25 8.125 11.25H5.0625C4.81641 11.25 4.625 11.0586 4.625 10.8125C4.625 10.5938 4.81641 10.375 5.0625 10.375H8.125ZM9 2.5C9.95703 2.5 10.75 3.29297 10.75 4.25V13C10.75 13.9844 9.95703 14.75 9 14.75H2C1.01562 14.75 0.25 13.9844 0.25 13V4.25C0.25 3.29297 1.01562 2.5 2 2.5H3.33984C3.55859 1.51562 4.43359 0.75 5.5 0.75C6.53906 0.75 7.41406 1.51562 7.63281 2.5H9ZM5.5 2.0625C5.11719 2.0625 4.84375 2.36328 4.84375 2.71875C4.84375 3.10156 5.11719 3.375 5.5 3.375C5.85547 3.375 6.15625 3.10156 6.15625 2.71875C6.15625 2.36328 5.85547 2.0625 5.5 2.0625ZM9.4375 13V4.25C9.4375 4.03125 9.21875 3.8125 9 3.8125H8.48047C8.53516 3.97656 8.5625 4.11328 8.5625 4.25V4.6875C8.5625 4.93359 8.34375 5.125 8.125 5.125H2.875C2.62891 5.125 2.4375 4.93359 2.4375 4.6875V4.25C2.4375 4.11328 2.4375 3.97656 2.49219 3.8125H2C1.75391 3.8125 1.5625 4.03125 1.5625 4.25V13C1.5625 13.2461 1.75391 13.4375 2 13.4375H9C9.21875 13.4375 9.4375 13.2461 9.4375 13ZM8.125 7.75C8.34375 7.75 8.5625 7.96875 8.5625 8.1875C8.5625 8.43359 8.34375 8.625 8.125 8.625H5.0625C4.81641 8.625 4.625 8.43359 4.625 8.1875C4.625 7.96875 4.81641 7.75 5.0625 7.75H8.125Z" fill="white"/>
</svg>
