<svg width="26" height="23" viewBox="0 0 26 23" fill="none" xmlns="http://www.w3.org/2000/svg">
<path d="M22.5 0.75C24.0039 0.75 25.25 1.99609 25.25 3.5V15.875C25.25 17.4219 24.0039 18.625 22.5 18.625H16.0547L16.8711 21.375H19.0625C19.4062 21.375 19.75 21.7188 19.75 22.0625C19.75 22.4492 19.4062 22.75 19.0625 22.75H6.6875C6.30078 22.75 6 22.4492 6 22.0625C6 21.7188 6.30078 21.375 6.6875 21.375H8.83594L9.65234 18.625H3.25C1.70312 18.625 0.5 17.4219 0.5 15.875V3.5C0.5 1.99609 1.70312 0.75 3.25 0.75H22.5ZM10.2539 21.375H15.4531L14.5938 18.625H11.1133L10.2539 21.375ZM23.875 15.875V13.125H1.875V15.875C1.875 16.6484 2.47656 17.25 3.25 17.25H22.5C23.2305 17.25 23.875 16.6484 23.875 15.875ZM23.875 11.75V3.5C23.875 2.76953 23.2305 2.125 22.5 2.125H3.25C2.47656 2.125 1.875 2.76953 1.875 3.5V11.75H23.875Z" fill="white"/>
</svg>
