<svg width="86" height="86" viewBox="0 0 86 86" fill="none" xmlns="http://www.w3.org/2000/svg">
<path d="M84.3201 83.5366H49.1139C48.1957 83.5366 47.4343 82.7752 47.4343 81.8569C47.4343 80.9387 48.1957 80.1773 49.1139 80.1773H82.6404V74.5783H3.35937V80.1773H34.3327C35.251 80.1773 36.0124 80.9387 36.0124 81.8569C36.0124 82.7752 35.251 83.5366 34.3327 83.5366H1.67968C0.761456 83.5366 0 82.7752 0 81.8569V72.8986C0 71.9804 0.761456 71.2189 1.67968 71.2189H84.3201C85.2383 71.2189 85.9998 71.9804 85.9998 72.8986V81.8569C85.9998 82.7752 85.2383 83.5366 84.3201 83.5366Z" fill="white"/>
<path d="M80.8936 74.5784H38.252C37.3338 74.5784 36.5723 73.8169 36.5723 72.8987V70.0544C36.5723 64.4779 41.0963 59.9539 46.6728 59.9539H72.4952C78.0717 59.9539 82.5956 64.4779 82.5956 70.0544V72.8987C82.5732 73.8169 81.8342 74.5784 80.8936 74.5784ZM39.9317 71.219H79.2139V70.0544C79.2139 66.3367 76.1905 63.3133 72.4728 63.3133H46.6728C42.9551 63.3133 39.9317 66.3367 39.9317 70.0544V71.219Z" fill="white"/>
<path d="M29.4505 41.5894C28.5322 41.5894 27.7708 40.8279 27.7708 39.9097V35.0274L24.1203 31.1081H15.6771L12.0265 35.0274V39.9097C12.0265 40.8279 11.2651 41.5894 10.3469 41.5894C9.42863 41.5894 8.66718 40.8279 8.66718 39.9097V34.3779C8.66718 33.9524 8.82395 33.5493 9.11509 33.2357L13.7286 28.2863C14.0422 27.9503 14.4901 27.7488 14.9604 27.7488H24.8369C25.3072 27.7488 25.7552 27.9503 26.0687 28.2863L30.6822 33.2357C30.9734 33.5493 31.1301 33.9524 31.1301 34.3779V39.9097C31.1301 40.8279 30.3687 41.5894 29.4505 41.5894Z" fill="white"/>
<path d="M69.0233 63.3354H50.1437C49.6734 63.3354 49.2479 63.1339 48.9119 62.7979C48.5984 62.462 48.4416 62.0141 48.464 61.5438L50.2781 32.1829C50.3229 31.2871 51.1067 30.5704 52.0026 30.6152C52.9208 30.6376 53.6374 31.3767 53.6374 32.2949C53.6374 35.5647 56.3025 38.2522 59.5947 38.2522C62.8645 38.2522 65.552 35.5871 65.552 32.2949C65.552 31.3767 66.2687 30.6376 67.1869 30.6152C68.1051 30.5928 68.8666 31.2871 68.9114 32.1829L70.7254 61.5438C70.7478 62.0141 70.591 62.462 70.2775 62.7979C69.9192 63.1339 69.4713 63.3354 69.0233 63.3354ZM51.9354 59.9761H67.2317L65.9327 39.0808C64.2754 40.6485 62.0359 41.6115 59.5723 41.6115C57.1088 41.6115 54.8692 40.6485 53.2119 39.0808L51.9354 59.9761Z" fill="white"/>
<path d="M59.5728 41.5894C54.4441 41.5894 50.2785 37.4237 50.2785 32.2951C50.2785 27.1665 54.4441 23.0009 59.5728 23.0009C64.7014 23.0009 68.867 27.1665 68.867 32.2951C68.8894 37.4237 64.7238 41.5894 59.5728 41.5894ZM59.5728 26.3378C56.303 26.3378 53.6379 29.0029 53.6379 32.2727C53.6379 35.5425 56.303 38.2076 59.5728 38.2076C62.8425 38.2076 65.5076 35.5425 65.5076 32.2727C65.53 29.0029 62.8649 26.3378 59.5728 26.3378Z" fill="white"/>
<path d="M51.9582 33.9749C51.3983 33.9749 50.8608 33.7061 50.5473 33.2134L37.8489 13.7291C37.3562 12.9676 37.5577 11.9598 38.2968 11.4447C39.0358 10.9296 40.0661 11.0864 40.6036 11.803C41.3202 12.7437 42.3952 13.2811 43.5822 13.2811C45.6426 13.2811 47.2999 11.6015 47.2999 9.56346C47.2999 8.82439 47.0983 8.13012 46.6952 7.50304C46.2025 6.76398 46.3817 5.75617 47.0983 5.21867C47.815 4.68117 48.8228 4.81555 49.3827 5.48742L66.5827 26.1363C66.8514 26.4275 67.0306 26.8306 67.0306 27.2785C67.0306 28.1967 66.2915 28.9582 65.3733 28.9582C64.903 28.9582 64.4103 28.7566 64.0743 28.3759C62.9321 27.077 61.2973 26.3155 59.5728 26.3155C56.303 26.3155 53.6155 28.9806 53.6155 32.2504C53.6155 32.9894 53.1228 33.6389 52.4061 33.8629C52.2718 33.9525 52.115 33.9749 51.9582 33.9749ZM43.7614 16.6405L51.2415 28.1296C52.7645 25.0837 55.9223 22.9785 59.5504 22.9785L50.2785 11.8478C49.3603 14.5801 46.8072 16.5509 43.7614 16.6405Z" fill="white"/>
<path d="M19.8871 31.1079C16.6173 31.1079 13.9746 28.4652 13.9746 25.1954V8.39859C13.9746 7.48037 14.7361 6.71891 15.6543 6.71891C16.5725 6.71891 17.334 7.48037 17.334 8.39859C17.334 9.80953 18.4762 10.9517 19.8871 10.9517C20.5814 10.9517 21.2084 10.683 21.7012 10.2127C22.1939 9.71995 22.4402 9.09286 22.4402 8.39859C22.4402 7.48037 23.2017 6.71891 24.1199 6.71891C25.0381 6.71891 25.7996 7.48037 25.7996 8.39859V25.1954C25.7996 28.4428 23.1569 31.1079 19.8871 31.1079ZM17.334 13.7288V25.1954C17.334 26.6064 18.4762 27.7485 19.8871 27.7485C21.298 27.7485 22.4402 26.6064 22.4402 25.1954V13.7288C21.6564 14.1095 20.7829 14.3111 19.8871 14.3111C18.9913 14.3111 18.1178 14.0871 17.334 13.7288Z" fill="white"/>
<path d="M43.5822 16.6404C39.6853 16.6404 36.5051 13.4602 36.5051 9.56332C36.5051 5.66646 39.6853 2.48625 43.5822 2.48625C47.4791 2.48625 50.6593 5.66646 50.6593 9.56332C50.6817 13.4602 47.5015 16.6404 43.5822 16.6404ZM43.5822 5.82322C41.5218 5.82322 39.8645 7.50291 39.8645 9.54092C39.8645 11.6013 41.5442 13.2586 43.5822 13.2586C45.6426 13.2586 47.2999 11.5789 47.2999 9.54092C47.3223 7.50291 45.6426 5.82322 43.5822 5.82322Z" fill="white"/>
<path d="M19.8871 14.3113C16.6173 14.3113 13.9746 11.6686 13.9746 8.3988C13.9746 5.12901 16.6173 2.48631 19.8871 2.48631C23.1569 2.48631 25.7996 5.12901 25.7996 8.3988C25.7996 11.6462 23.1569 14.3113 19.8871 14.3113ZM19.8871 5.82328C18.4762 5.82328 17.334 6.96546 17.334 8.3764C17.334 9.78733 18.4762 10.9295 19.8871 10.9295C21.298 10.9295 22.4402 9.78733 22.4402 8.3764C22.4402 6.98786 21.298 5.82328 19.8871 5.82328Z" fill="white"/>
<path d="M40.4919 16.3716C40.4247 16.3716 40.3799 16.3716 40.3127 16.3716L23.9414 14.6919C23.0904 14.6023 22.4409 13.8857 22.4409 13.0122V8.39868C22.4409 7.72681 22.1721 7.07733 21.7018 6.58463C21.2315 6.09192 20.582 5.84557 19.9102 5.84557C18.9919 5.84557 18.2305 5.08411 18.2305 4.16588C18.2305 3.29245 18.9023 2.55339 19.7758 2.4862C19.7982 2.4862 19.7982 2.4862 19.8206 2.4862H43.4929C44.4111 2.4862 45.1726 3.24766 45.1726 4.16588C45.1726 5.08411 44.4111 5.84557 43.4929 5.84557C41.4325 5.84557 39.7752 7.52525 39.7752 9.56327C39.7752 10.3695 40.044 11.1534 40.5143 11.8028C40.5367 11.8252 40.5591 11.87 40.5815 11.8924L41.746 13.6841C41.9476 13.9528 42.082 14.3112 42.082 14.6919C42.1716 15.6101 41.4325 16.3492 40.4919 16.3716ZM25.8002 11.4893L37.1997 12.6539C36.7294 11.6909 36.483 10.6159 36.483 9.54087C36.483 8.17473 36.8638 6.89817 37.5356 5.82317H25.1956C25.5763 6.60702 25.7778 7.48046 25.7778 8.37629V11.4893H25.8002Z" fill="white"/>
<path d="M25.0161 59.9316C24.6129 59.9316 24.1874 59.7748 23.8739 59.4837C22.8661 58.543 21.5671 58.0279 20.201 58.0279C18.8348 58.0279 17.5359 58.543 16.5281 59.4837C15.8562 60.1107 14.7812 60.0883 14.1541 59.4165C13.527 58.7446 13.5494 57.6696 14.2213 57.0425C15.8338 55.5196 17.9614 54.6686 20.201 54.6686C22.4405 54.6686 24.5457 55.5196 26.1806 57.0425C26.8525 57.6696 26.8973 58.7446 26.2478 59.4165C25.9119 59.7524 25.464 59.9316 25.0161 59.9316Z" fill="#C10B19"/>
<path d="M29.7192 54.9147C29.3161 54.9147 28.8906 54.758 28.577 54.4668C26.2927 52.3168 23.314 51.1522 20.201 51.1522C17.088 51.1522 14.087 52.3392 11.825 54.4668C11.1531 55.0939 10.0781 55.0715 9.45104 54.3996C8.82396 53.7277 8.84636 52.6527 9.51823 52.0257C12.4297 49.2934 16.2146 47.7929 20.201 47.7929C24.1875 47.7929 27.9723 49.2934 30.8838 52.0257C31.5557 52.6527 31.6005 53.7277 30.951 54.3996C30.615 54.7356 30.1671 54.9147 29.7192 54.9147Z" fill="#C10B19"/>
<path d="M20.1786 65.0601C19.7307 65.0601 19.3052 64.8809 18.9916 64.5674C18.6781 64.2538 18.4989 63.8283 18.4989 63.3804C18.4989 62.9325 18.6781 62.5069 18.9916 62.1934C19.3052 61.8799 19.7307 61.7007 20.1786 61.7007C20.6265 61.7007 21.052 61.8799 21.3656 62.1934C21.6791 62.5069 21.8583 62.9325 21.8583 63.3804C21.8583 63.8283 21.6791 64.2538 21.3656 64.5674C21.0744 64.8809 20.6265 65.0601 20.1786 65.0601Z" fill="#C10B19"/>
<path d="M41.835 83.5366C41.387 83.5366 40.9615 83.3575 40.648 83.0439C40.3344 82.7304 40.1553 82.3049 40.1553 81.8569C40.1553 81.409 40.3344 80.9835 40.648 80.67C40.9615 80.3564 41.387 80.1773 41.835 80.1773C42.2829 80.1773 42.7084 80.3564 43.0219 80.67C43.3355 80.9835 43.5146 81.409 43.5146 81.8569C43.5146 82.3049 43.3355 82.7304 43.0219 83.0439C42.7084 83.3575 42.2605 83.5366 41.835 83.5366Z" fill="white"/>
</svg>
