<svg width="86" height="86" viewBox="0 0 86 86" fill="none" xmlns="http://www.w3.org/2000/svg">
<g clip-path="url(#clip0_134_305)">
<path d="M15.3296 63.5276C12.0128 63.5276 9.31442 66.2259 9.31442 69.5428C9.61678 77.5111 21.042 77.5107 21.3432 69.5428C21.3432 66.2259 18.6455 63.5276 15.3296 63.5276ZM15.3296 72.1985C13.8652 72.1985 12.6739 71.007 12.6739 69.5426C12.8075 66.0252 17.8508 66.0245 17.9836 69.5426C17.9836 71.007 16.793 72.1985 15.3296 72.1985Z" fill="#C10B19"/>
<path d="M29.5713 67.869C30.7673 66.6375 31.0024 64.7387 30.1437 63.2525L28.1846 59.8567C27.3259 58.3701 25.5637 57.6248 23.9002 58.0449L22.1093 58.4953C21.9833 58.5274 21.8497 58.5091 21.737 58.4442C21.6243 58.3793 21.5414 58.273 21.5059 58.1479L21.0008 56.3727C20.533 54.7205 19.0063 53.5667 17.2882 53.5667H13.3693C11.6543 53.5667 10.1281 54.7193 9.65742 56.3707L9.15199 58.1474C9.11671 58.2727 9.0338 58.3793 8.92098 58.4442C8.80816 58.5092 8.67439 58.5275 8.54828 58.4951L6.75884 58.0452C5.09235 57.6255 3.33028 58.3708 2.47462 59.857L0.514341 63.2515C-0.344854 64.7387 -0.109688 66.6374 1.08529 67.868L2.37249 69.1955C2.46331 69.2883 2.51412 69.413 2.51403 69.5429C2.51393 69.6727 2.46294 69.7974 2.37198 69.89L1.0863 71.216C-0.109688 72.4476 -0.344854 74.3464 0.514173 75.8334L2.47344 79.2261C3.33028 80.7144 5.09252 81.4599 6.75749 81.0401L8.54828 80.5899C8.6743 80.5575 8.80799 80.5757 8.92077 80.6406C9.03355 80.7055 9.11648 80.8119 9.15182 80.9371L9.65675 82.7123C10.1242 84.3635 11.651 85.5166 13.3693 85.5166H17.2882C19.0064 85.5166 20.5332 84.3635 21.0001 82.7141L21.5056 80.9376C21.5408 80.8122 21.6237 80.7056 21.7366 80.6405C21.8494 80.5755 21.9833 80.5573 22.1095 80.5898L23.8989 81.0396C25.5632 81.4597 27.3258 80.7144 28.1851 79.2273L30.1434 75.8334C31.0024 74.3461 30.7673 72.4473 29.5729 71.2176L28.2879 69.8907L28.2869 69.8897C28.196 69.7967 28.1451 69.6718 28.1454 69.5417C28.1456 69.4116 28.1968 69.2868 28.2881 69.1941L29.5713 67.869ZM25.8745 72.2281L27.1612 73.5566C27.2364 73.6349 27.2842 73.7355 27.2973 73.8432C27.3104 73.951 27.2881 74.0601 27.2337 74.1541L25.2756 77.548C25.2208 77.6421 25.1368 77.7158 25.0365 77.758C24.9361 77.8002 24.8247 77.8087 24.7191 77.7822L22.9287 77.332C20.8938 76.8206 18.8496 78.0001 18.2746 80.0181L17.7683 81.7973C17.7381 81.9013 17.675 81.9927 17.5884 82.0577C17.5018 82.1227 17.3965 82.1577 17.2882 82.1576H13.3693C13.2608 82.1576 13.1551 82.1223 13.0684 82.057C12.9817 81.9916 12.9186 81.8998 12.8886 81.7955L12.3828 80.0176C11.8164 78.0295 9.73503 76.8279 7.72906 77.3322L5.93727 77.7827C5.8321 77.8091 5.72122 77.8004 5.62139 77.7582C5.52156 77.7159 5.43821 77.6423 5.38396 77.5484L3.42334 74.1533C3.3692 74.0591 3.34712 73.9499 3.36045 73.8421C3.37379 73.7343 3.4218 73.6337 3.49725 73.5556L4.78361 72.2291C6.24533 70.7225 6.24517 68.3625 4.78395 66.8567L3.49624 65.5287C3.42104 65.4506 3.37327 65.3501 3.36012 65.2425C3.34697 65.1348 3.36916 65.0258 3.42334 64.9319L5.38463 61.5351C5.43906 61.4415 5.52256 61.3681 5.62246 61.3263C5.72235 61.2844 5.83318 61.2763 5.93811 61.3031L7.72839 61.7531C9.76274 62.266 11.8078 61.0856 12.3827 59.0672L12.8881 57.2909C12.918 57.1862 12.9811 57.0942 13.0678 57.0284C13.1545 56.9627 13.2602 56.9268 13.369 56.9262H17.2879C17.5103 56.9262 17.7077 57.075 17.7686 57.29L18.2744 59.0677C18.8492 61.0858 20.8935 62.2658 22.9283 61.7533L24.7201 61.3028C24.8254 61.2765 24.9364 61.2851 25.0365 61.3272C25.1365 61.3693 25.2202 61.4427 25.275 61.5364L27.2341 64.9322C27.2882 65.0266 27.3102 65.136 27.2968 65.2439C27.2833 65.3519 27.235 65.4525 27.1593 65.5306L25.8755 66.8564C24.4144 68.362 24.4139 70.7214 25.8745 72.2281ZM50.368 70.5776C50.8849 69.9189 50.8264 68.9472 50.2346 68.3548L45.6281 63.748C44.9721 63.0924 43.9085 63.0922 43.2526 63.748C42.5966 64.404 42.5964 65.4676 43.2526 66.1237L44.9918 67.8629H36.5465C35.6187 67.8629 34.8667 68.6151 34.8667 69.5427C34.8667 70.4702 35.6187 71.2224 36.5465 71.2224H44.9916L43.2526 72.9615C42.5966 73.6174 42.5964 74.681 43.2526 75.3372C43.8998 75.984 44.9809 75.9844 45.6281 75.3372L50.2346 70.7306C50.2821 70.6823 50.3267 70.6312 50.368 70.5776ZM50.7003 15.7424C50.6409 15.4019 50.4784 15.0878 50.2348 14.8426L45.6282 10.2358C44.9723 9.58024 43.9087 9.58007 43.2527 10.2358C42.5968 10.8918 42.5966 11.9554 43.2527 12.6115L44.9919 14.3507H36.5465C35.6187 14.3507 34.8667 15.1029 34.8667 16.0305C34.8667 16.9581 35.6187 17.7103 36.5465 17.7103H44.9916L43.2526 19.4493C42.5966 20.1053 42.5964 21.1689 43.2526 21.825C43.8998 22.4719 44.9809 22.4722 45.6281 21.825L50.2346 17.2184C50.6186 16.8343 50.7928 16.2769 50.7003 15.7424ZM15.5759 35.66C14.6481 35.66 13.8961 36.4122 13.8961 37.3397V44.3116L12.1571 42.5725C11.5011 41.9167 10.4375 41.9167 9.78139 42.5725C9.12544 43.2284 9.12544 44.2921 9.78139 44.9482L14.388 49.5547C15.0363 50.2031 16.1142 50.1971 16.7635 49.5547L21.37 44.9482C22.026 44.2922 22.0261 43.2286 21.37 42.5725C20.7141 41.9169 19.6505 41.9167 18.9945 42.5725L17.2553 44.3117V37.3397C17.2556 36.4122 16.5036 35.66 15.5759 35.66ZM70.0544 35.66C69.1267 35.66 68.3746 36.4122 68.3746 37.3397V44.3116L66.6356 42.5725C65.9797 41.9167 64.916 41.9167 64.2599 42.5725C63.604 43.2284 63.604 44.2921 64.2599 44.9482L68.8665 49.5547C69.5149 50.2031 70.5928 50.1971 71.242 49.5547L75.8486 44.9482C76.5045 44.2922 76.5047 43.2286 75.8486 42.5725C75.1926 41.9169 74.129 41.9167 73.4731 42.5725L71.7338 44.3117V37.3397C71.7342 36.4122 70.9821 35.66 70.0544 35.66ZM80.2903 54.5208H60.0091C56.8608 54.5208 54.2995 57.0821 54.2995 60.2304V78.8546C54.2995 82.0029 56.8608 84.5642 60.0091 84.5642H74.9874C77.2137 84.4816 77.212 81.2865 74.9874 81.2047H60.0091C58.7134 81.2047 57.659 80.1505 57.659 78.8546V60.2304C57.659 58.9345 58.7132 57.8803 60.0091 57.8803H80.2903C81.5861 57.8803 82.6405 58.9345 82.6405 60.2304V73.6653C82.7231 75.8916 85.9182 75.89 86 73.6653V60.2304C86 57.0821 83.4387 54.5208 80.2903 54.5208ZM1.79028 32.0203H28.8675C29.7952 32.0203 30.5472 31.2681 30.5472 30.3405V25.3113C30.5472 20.0905 26.733 15.7461 21.7453 14.9123C22.7531 13.5712 23.3511 11.9055 23.3511 10.1026V8.45296C22.9465 -2.17789 7.70723 -2.16966 7.30644 8.45296V10.1026C7.30644 11.9055 7.9046 13.5712 8.91228 14.9123C3.92458 15.7461 0.11036 20.0906 0.11036 25.3113V30.3405C0.110528 31.2682 0.862555 32.0203 1.79028 32.0203ZM10.6659 8.45296C10.9011 2.27397 19.7586 2.27868 19.9916 8.45296V10.1026C19.7565 16.2816 10.8989 16.2769 10.6659 10.1026V8.45296ZM3.47004 25.3113C3.47004 21.3488 6.69383 18.125 10.6565 18.125H20.0014C23.9639 18.125 27.1879 21.3488 27.1879 25.3113V28.6608H23.8085V25.0327C23.7259 22.8063 20.5308 22.808 20.449 25.0327V28.6608H10.2551V25.0327C10.1724 22.8063 6.97737 22.808 6.89557 25.0327V28.6608H3.47004V25.3113ZM70.4962 31.4384C79.0451 31.4384 86 24.4835 86 15.9346C85.2206 -4.6053 55.7686 -4.59959 54.9922 15.9348C54.9922 24.4834 61.9472 31.4384 70.4962 31.4384ZM70.4962 3.79012C77.1925 3.79012 82.6405 9.23824 82.6405 15.9346C82.0299 32.0235 58.9598 32.0191 58.3517 15.9344C58.3517 9.23807 63.7997 3.79012 70.4962 3.79012Z" fill="white"/>
<path d="M67.4208 20.7031C68.0769 21.3591 69.1404 21.3591 69.7965 20.7031L76.9583 13.5413C77.6143 12.8854 77.6143 11.8218 76.9583 11.1657C76.3024 10.5099 75.2387 10.5099 74.5826 11.1657L68.6087 17.1395L66.3312 14.862C65.6752 14.2062 64.6116 14.2062 63.9555 14.862C63.2995 15.5179 63.2995 16.5815 63.9555 17.2376L67.4208 20.7031ZM75.7704 63.4469H64.0314C61.8051 63.5295 61.8067 66.7246 64.0314 66.8064H75.7704C77.9967 66.7238 77.9951 63.5287 75.7704 63.4469ZM64.0314 72.0071C61.8051 72.0897 61.8067 75.2848 64.0314 75.3666H70.1494C72.3758 75.284 72.3741 72.0889 70.1494 72.0071H64.0314ZM84.6209 81.1278C84.042 79.7394 81.9941 79.7894 81.4888 81.2053C80.9761 82.6416 82.571 83.9816 83.896 83.2311C84.6276 82.8168 84.939 81.9046 84.6209 81.1278Z" fill="#C10B19"/>
</g>
<defs>
<clipPath id="clip0_134_305">
<rect width="86" height="86" fill="white"/>
</clipPath>
</defs>
</svg>
