<svg width="86" height="86" viewBox="0 0 86 86" fill="none" xmlns="http://www.w3.org/2000/svg">
<g clip-path="url(#clip0_134_312)">
<path d="M24.1142 43.0368C24.1142 53.4619 32.5958 61.9435 43.021 61.9435C68.069 60.9931 68.0621 25.0766 43.0208 24.1299C32.5958 24.1301 24.1142 32.6116 24.1142 43.0368ZM58.57 43.0368C58.57 51.6106 51.5948 58.5858 43.021 58.5858C22.4213 57.8041 22.427 28.2663 43.0211 27.4877C51.5948 27.4877 58.57 34.4632 58.57 43.0368Z" fill="#C10B19"/>
<path d="M36.3338 42.1725C35.6783 41.5169 34.6152 41.5169 33.9594 42.1725C33.3038 42.8281 33.3038 43.8912 33.9594 44.5469L38.9936 49.5811C39.6492 50.2367 40.7123 50.2367 41.368 49.5811L52.0821 38.8671C52.7377 38.2115 52.7377 37.1484 52.0821 36.4927C51.4263 35.8371 50.3636 35.8371 49.7077 36.4927L40.1807 46.0199L36.3338 42.1725Z" fill="#C10B19"/>
<path d="M86 43.0368C86 36.7942 84.6885 30.7707 82.1021 25.1338C81.7153 24.2909 80.7185 23.9214 79.8762 24.3081C79.0333 24.6947 78.6636 25.6915 79.0503 26.534C83.8389 36.8056 83.8157 49.2383 79.061 59.5147L77.655 55.7229C77.5188 55.3562 77.2589 55.0485 76.9201 54.8529C76.5813 54.6573 76.1849 54.5861 75.7992 54.6516L71.3182 55.4139C80.1617 35.6083 65.5451 12.5563 43.8554 12.1671L40.2298 7.79288L43.8506 3.42452C54.1398 3.63431 63.7794 7.74619 71.0701 15.0542C71.7248 15.7109 72.7881 15.7119 73.4443 15.057C74.1007 14.4021 74.1021 13.3392 73.4472 12.6826C65.3398 4.55646 54.5542 0.073375 43.0767 0.0589297H43.0756L43.0213 0.0584258C10.1849 -0.168164 -10.7641 36.2303 5.79575 64.5287C22.2708 93.098 63.8158 93.0725 80.2618 64.5032L80.2622 64.5025C84.0159 58.004 86 50.5812 86 43.0368ZM70.5443 43.0368C70.5443 47.8706 69.2733 52.6249 66.8685 56.7862L66.8682 56.7867C59.5347 69.8842 41.9045 74.5445 29.0653 66.7635C5.11648 52.4062 15.0533 15.7751 43.0107 15.5137L43.0549 15.5141H43.0552C58.2129 15.5327 70.5443 27.8793 70.5443 43.0368ZM15.0053 15.0206C21.6199 8.40597 30.1621 4.41789 39.3599 3.58123L36.7569 6.72191C36.5073 7.02314 36.3707 7.40208 36.3707 7.7933C36.3707 8.18453 36.5073 8.56347 36.7569 8.86469L39.6378 12.3403C18.3215 14.3442 5.25657 38.8876 15.8811 57.7779L13.9014 63.1164L8.31763 62.1667C-0.176715 47.1584 2.603 27.0634 15.0053 15.0206ZM16.5656 65.5887L18.1435 61.3333C30.9556 78.949 58.0982 77.7823 69.3672 59.152L74.9903 58.1956L76.9562 63.497C73.557 69.1223 68.7876 73.8449 63.1213 77.1877C45.9213 87.6461 22.1314 82.5538 10.7176 65.9808L14.7097 66.6599C14.8064 66.6842 15.3678 66.8154 15.9118 66.4699C16.3872 66.1684 16.5328 65.7045 16.5656 65.5887Z" fill="white"/>
<path d="M75.4652 20.2178C75.8124 21.0649 76.814 21.4754 77.6577 21.126C79.6706 20.1777 78.4659 17.2738 76.3734 18.0268C75.53 18.3771 75.1131 19.3728 75.4652 20.2178Z" fill="white"/>
</g>
<defs>
<clipPath id="clip0_134_312">
<rect width="86" height="86" fill="white"/>
</clipPath>
</defs>
</svg>
