<svg width="86" height="86" viewBox="0 0 86 86" fill="none" xmlns="http://www.w3.org/2000/svg">
<g clip-path="url(#clip0_134_321)">
<path d="M42.7308 71.1741C40.1552 71.1741 37.6245 70.7709 35.2058 70.0095C34.5115 69.7855 34.0412 69.1361 34.0412 68.4194V59.0132C29.898 56.1689 27.3896 51.3986 27.3896 46.3596C27.3896 40.5814 30.5922 35.3408 35.7433 32.6981C36.2584 32.4294 36.8855 32.4518 37.3782 32.7653C37.8709 33.0789 38.1844 33.6164 38.1844 34.1986V43.2241L42.7308 45.7997L47.2995 43.2241V34.1539C47.2995 33.5716 47.613 33.0341 48.1057 32.7205C48.5984 32.407 49.2255 32.3846 49.7406 32.6533C54.8917 35.296 58.0943 40.5366 58.0943 46.3148C58.0943 51.3538 55.5635 56.1241 51.4427 58.9684V68.3746C51.4427 69.1137 50.9724 69.7407 50.2781 69.9647C47.837 70.7709 45.3063 71.1517 42.7308 71.1741ZM37.3782 67.1204C39.1026 67.5684 40.8943 67.7923 42.7084 67.7923C44.5224 67.7923 46.3141 67.5684 48.0386 67.1204V58.0725C48.0386 57.4903 48.3521 56.9304 48.8448 56.6392C52.4953 54.4444 54.6901 50.5924 54.6901 46.3372C54.6901 42.821 53.1672 39.5736 50.6141 37.3117V44.2096C50.6141 44.8142 50.2781 45.3741 49.763 45.6653L43.5146 49.1814C42.9995 49.4726 42.3724 49.4726 41.8573 49.1814L35.6313 45.6653C35.0938 45.3741 34.7803 44.8142 34.7803 44.2096V37.3117C32.2047 39.5512 30.7042 42.821 30.7042 46.3372C30.7042 50.5924 32.899 54.4444 36.5495 56.6392C37.0646 56.9528 37.3558 57.4903 37.3558 58.0725V67.1204H37.3782Z" fill="#C10B19"/>
<path d="M42.7314 71.1741C41.8132 71.1741 41.0518 70.4126 41.0518 69.4944V58.0725C41.0518 57.1543 41.8132 56.3929 42.7314 56.3929C43.6497 56.3929 44.4111 57.1543 44.4111 58.0725V69.4944C44.4111 70.4126 43.6497 71.1741 42.7314 71.1741Z" fill="#C10B19"/>
<path d="M42.7087 71.1741C29.1817 71.1741 18.163 60.1554 18.163 46.6283C18.163 33.1013 29.1817 22.0825 42.7087 22.0825C56.2358 22.0825 67.2545 33.1013 67.2545 46.6283C67.2545 60.1554 56.2582 71.1741 42.7087 71.1741ZM42.7087 25.4195C31.0181 25.4195 21.5223 34.9153 21.5223 46.6059C21.5223 58.2965 31.0181 67.7923 42.7087 67.7923C54.3993 67.7923 63.8951 58.2965 63.8951 46.6059C63.8951 34.9377 54.3993 25.4195 42.7087 25.4195Z" fill="white"/>
<path d="M25.9346 85.0146C22.6872 85.0146 19.6414 83.2678 18.0289 80.4459L1.23203 51.3538C-0.402864 48.5319 -0.402864 45.0382 1.23203 42.2163L18.0289 13.1242C19.6638 10.3023 22.6872 8.55547 25.9346 8.55547H59.5058C59.8866 8.55547 60.2673 8.57786 60.648 8.62265C61.1631 8.68983 61.6334 9.00338 61.8798 9.45129C62.1485 9.89921 62.1709 10.4591 61.9694 10.9518C61.4319 12.2508 61.1407 13.6617 61.1407 15.095C61.1407 21.0075 65.9558 25.8226 71.8683 25.8226C71.8683 25.8226 71.8683 25.8226 71.8907 25.8226C72.4058 25.8226 72.9209 25.7778 73.436 25.7106C74.1079 25.5986 74.8022 25.9346 75.1381 26.5393L84.186 42.2163C85.8209 45.0382 85.8209 48.5319 84.186 51.3538L67.3892 80.4459C65.7543 83.2678 62.7308 85.0146 59.4834 85.0146H49.8085C48.8902 85.0146 48.1288 84.2532 48.1288 83.335C48.1288 82.4167 48.8902 81.6553 49.8085 81.6553H59.4834C61.5439 81.6553 63.4699 80.5579 64.4777 78.7662L81.2745 49.6741C82.3047 47.8824 82.3047 45.6877 81.2745 43.896L72.7641 29.1596C72.473 29.182 72.1818 29.182 71.8683 29.182C64.097 29.182 57.7814 22.8664 57.7814 15.095C57.7814 14.02 57.8933 12.9674 58.1397 11.9372H25.9346C23.8742 11.9372 21.9481 13.0346 20.9179 14.8263L4.14348 43.896C3.11327 45.6877 3.11327 47.8824 4.14348 49.6741L20.9403 78.7662C21.9705 80.5579 23.8966 81.6553 25.9346 81.6553H34.9601C35.8783 81.6553 36.6398 82.4167 36.6398 83.335C36.6398 84.2532 35.8783 85.0146 34.9601 85.0146H25.9346Z" fill="white"/>
<path d="M71.9131 29.1821C64.1418 29.1821 57.8262 22.8665 57.8262 15.0952C57.8262 7.32385 64.1418 1.00824 71.9131 1.00824C79.6845 1.00824 86.0001 7.32385 86.0001 15.0952C86.0001 22.8665 79.6845 29.1821 71.9131 29.1821ZM71.9131 4.34521C66.0006 4.34521 61.1855 9.1603 61.1855 15.0728C61.1855 20.9853 66.0006 25.8004 71.9131 25.8004C77.8256 25.8004 82.6407 20.9853 82.6407 15.0728C82.6407 9.1603 77.8256 4.34521 71.9131 4.34521Z" fill="white"/>
<path d="M69.9868 20.3582C69.5613 20.3582 69.1358 20.2014 68.7999 19.8655L65.4853 16.5509C64.8358 15.9014 64.8358 14.8264 65.4853 14.1769C66.1348 13.5274 67.2098 13.5274 67.8592 14.1769L69.9868 16.3045L75.6306 10.6608C76.28 10.0113 77.355 10.0113 78.0045 10.6608C78.654 11.3103 78.654 12.3853 78.0045 13.0347L71.1738 19.8655C70.8379 20.2014 70.4123 20.3582 69.9868 20.3582Z" fill="#C10B19"/>
<path d="M42.3955 85.0146C41.9476 85.0146 41.5221 84.8355 41.2085 84.5219C40.895 84.2084 40.7158 83.7829 40.7158 83.335C40.7158 82.887 40.895 82.4615 41.2085 82.148C41.5221 81.8344 41.9476 81.6553 42.3955 81.6553C42.8434 81.6553 43.2689 81.8344 43.5825 82.148C43.896 82.4615 44.0752 82.887 44.0752 83.335C44.0752 83.7829 43.896 84.2084 43.5825 84.5219C43.2689 84.8355 42.8434 85.0146 42.3955 85.0146Z" fill="white"/>
</g>
<defs>
<clipPath id="clip0_134_321">
<rect width="86" height="86" fill="white"/>
</clipPath>
</defs>
</svg>
