<svg width="86" height="86" viewBox="0 0 86 86" fill="none" xmlns="http://www.w3.org/2000/svg">
<g clip-path="url(#clip0_134_331)">
<path d="M42.9999 41.5444C38.6999 41.5444 35.2062 38.0507 35.2062 33.7507V31.4215C35.2062 27.1215 38.6999 23.6278 42.9999 23.6278C47.2999 23.6278 50.7936 27.1215 50.7936 31.4215V33.7507C50.7936 38.0507 47.2999 41.5444 42.9999 41.5444ZM42.9999 27.0096C40.5588 27.0096 38.5655 29.0028 38.5655 31.4439V33.7731C38.5655 36.2142 40.5588 38.2075 42.9999 38.2075C45.441 38.2075 47.4343 36.2142 47.4343 33.7731V31.4439C47.4343 29.0028 45.441 27.0096 42.9999 27.0096Z" fill="#C10B19"/>
<path d="M57.7366 57.8936H28.2861C27.3679 57.8936 26.6064 57.1321 26.6064 56.2139V49.9431C26.6064 43.4707 31.8695 38.1853 38.3642 38.1853H47.6809C54.1532 38.1853 59.4387 43.4483 59.4387 49.9431V56.2139C59.4163 57.1321 58.6548 57.8936 57.7366 57.8936ZM29.9658 54.5342H56.0569V49.9431C56.0569 45.3071 52.2944 41.5446 47.6585 41.5446H38.3418C33.7059 41.5446 29.9434 45.3071 29.9434 49.9431V54.5342H29.9658Z" fill="#C10B19"/>
<path d="M35.0498 57.8936C34.1316 57.8936 33.3701 57.1321 33.3701 56.2139V49.9878C33.3701 49.0696 34.1316 48.3082 35.0498 48.3082C35.968 48.3082 36.7295 49.0696 36.7295 49.9878V56.2139C36.7295 57.1321 35.9904 57.8936 35.0498 57.8936Z" fill="#C10B19"/>
<path d="M51.1963 57.8936C50.2781 57.8936 49.5166 57.1321 49.5166 56.2139V50.2342C49.5166 49.316 50.2781 48.5545 51.1963 48.5545C52.1145 48.5545 52.876 49.316 52.876 50.2342V56.2139C52.876 57.1321 52.1369 57.8936 51.1963 57.8936Z" fill="#C10B19"/>
<path d="M71.4873 86C71.1514 86 70.8154 85.9776 70.4795 85.9552C65.978 85.6417 61.9691 83.3349 59.4384 79.6396C57.2436 76.437 56.4374 72.5625 57.154 68.7329C57.8707 64.9032 60.0431 61.611 63.2681 59.4162C67.3217 56.6615 72.4503 56.124 76.9967 57.9829C77.8477 58.3412 78.2732 59.3266 77.9149 60.1777C77.5566 61.0287 76.5712 61.4542 75.7201 61.0959C72.2264 59.6626 68.2623 60.0657 65.1493 62.1933C62.6858 63.873 61.0061 66.4261 60.4462 69.3599C59.8863 72.2938 60.5134 75.2724 62.1931 77.7584C64.1415 80.625 67.2321 82.3943 70.7035 82.6182C73.2342 82.7974 75.6753 82.1255 77.7581 80.6922C79.8633 79.2589 81.3639 77.2433 82.1253 74.8245C82.4836 73.6599 82.6628 72.4506 82.6404 71.2412C82.618 70.323 83.3571 69.5391 84.2977 69.5391H84.3201C85.2383 69.5391 85.9774 70.2782 85.9998 71.1964C86.0222 72.7641 85.7982 74.3318 85.3279 75.8323C84.3425 78.9677 82.3717 81.6104 79.6618 83.4693C77.1982 85.1266 74.3988 86 71.4873 86Z" fill="white"/>
<path d="M14.5573 85.9778C11.2651 85.9778 8.15206 84.9028 5.57655 82.8648C2.03802 80.1101 0 75.9221 0 71.4205C0 63.4028 6.53957 56.8633 14.5573 56.8633C22.5749 56.8633 29.1145 63.4028 29.1145 71.4205C29.1145 75.9221 27.0765 80.0877 23.538 82.8648C20.9624 84.9028 17.8494 85.9778 14.5573 85.9778ZM14.5573 60.2226C8.37602 60.2226 3.35937 65.2393 3.35937 71.4205C3.35937 74.8695 4.92707 78.0945 7.63696 80.2221C9.63018 81.7898 12.0041 82.6184 14.5573 82.6184C17.088 82.6184 19.4843 81.7898 21.4776 80.2221C24.2098 78.0721 25.7551 74.8695 25.7551 71.4205C25.7551 65.2617 20.7385 60.2226 14.5573 60.2226Z" fill="white"/>
<path d="M14.5573 29.1147C11.2651 29.1147 8.15206 28.0398 5.57655 26.0017C2.03802 23.2471 0 19.059 0 14.5575C0 6.5398 6.53957 0.000234604 14.5573 0.000234604C22.5749 0.000234604 29.1145 6.5398 29.1145 14.5575C29.1145 19.059 27.0765 23.2247 23.538 26.0017C20.9624 28.0398 17.8494 29.1147 14.5573 29.1147ZM14.5573 3.3596C8.37602 3.3596 3.35937 8.37626 3.35937 14.5575C3.35937 18.0064 4.92707 21.2314 7.63696 23.359C9.63018 24.9491 12.0265 25.7554 14.5573 25.7554C17.088 25.7554 19.4843 24.9267 21.4776 23.359C24.1874 21.2314 25.7551 18.0288 25.7551 14.5575C25.7551 8.39865 20.7385 3.3596 14.5573 3.3596Z" fill="white"/>
<path d="M71.443 29.1147C68.1508 29.1147 65.0378 28.0398 62.4623 26.0017C58.9238 23.2247 56.8857 19.059 56.8857 14.5575C56.8857 6.5398 63.4253 0.000234604 71.443 0.000234604C79.4607 0.000234604 86.0003 6.5398 86.0003 14.5575C86.0003 19.059 83.9622 23.2247 80.4237 26.0017C77.8482 28.0398 74.7352 29.1147 71.443 29.1147ZM71.443 3.3596C65.2618 3.3596 60.2451 8.37626 60.2451 14.5575C60.2451 18.0288 61.8128 21.2314 64.5227 23.359C66.5159 24.9267 68.8899 25.7554 71.443 25.7554C73.9737 25.7554 76.3701 24.9267 78.3633 23.359C81.0732 21.2314 82.6409 18.0288 82.6409 14.5575C82.6409 8.39865 77.6242 3.3596 71.443 3.3596Z" fill="white"/>
<path d="M14.5573 76.6836C11.3547 76.6836 8.75674 74.0857 8.75674 70.8831V69.3154C8.75674 66.1128 11.3547 63.5149 14.5573 63.5149C17.7598 63.5149 20.3578 66.1128 20.3578 69.3154V70.8831C20.3578 74.0857 17.7598 76.6836 14.5573 76.6836ZM14.5573 66.8966C13.2135 66.8966 12.1161 67.994 12.1161 69.3378V70.9055C12.1161 72.2492 13.2135 73.3466 14.5573 73.3466C15.901 73.3466 16.9984 72.2492 16.9984 70.9055V69.3378C16.9984 67.994 15.901 66.8966 14.5573 66.8966Z" fill="white"/>
<path d="M14.5569 85.9778C11.2648 85.9778 8.15175 84.9028 5.57624 82.8648C5.17311 82.5512 4.92676 82.0585 4.92676 81.5434V80.4236C4.92676 76.5044 8.12935 73.3018 12.0486 73.3018H17.0877C21.0069 73.3018 24.2095 76.5044 24.2095 80.4236V81.5434C24.2095 82.0585 23.9632 82.5512 23.56 82.8648C20.9621 84.9028 17.8491 85.9778 14.5569 85.9778ZM8.28612 80.7148C10.145 81.9689 12.295 82.6408 14.5569 82.6408C16.8189 82.6408 18.9689 81.9689 20.8278 80.7148V80.446C20.8278 78.3856 19.1481 76.6835 17.0653 76.6835H12.0486C9.9882 76.6835 8.28612 78.3632 8.28612 80.446V80.7148Z" fill="white"/>
<path d="M14.5573 19.8206C11.3547 19.8206 8.75674 17.2226 8.75674 14.0201V12.4523C8.75674 9.24975 11.3547 6.65184 14.5573 6.65184C17.7598 6.65184 20.3578 9.24975 20.3578 12.4523V14.0201C20.3578 17.2226 17.7598 19.8206 14.5573 19.8206ZM14.5573 10.0336C13.2135 10.0336 12.1161 11.131 12.1161 12.4747V14.0424C12.1161 15.3862 13.2135 16.4836 14.5573 16.4836C15.901 16.4836 16.9984 15.3862 16.9984 14.0424V12.4747C16.9984 11.131 15.901 10.0336 14.5573 10.0336Z" fill="white"/>
<path d="M14.5569 29.1147C11.2648 29.1147 8.15175 28.0398 5.57624 26.0017C5.17311 25.6882 4.92676 25.1955 4.92676 24.6804V23.5606C4.92676 19.6413 8.12935 16.4387 12.0486 16.4387H17.0877C21.0069 16.4387 24.2095 19.6413 24.2095 23.5606V24.6804C24.2095 25.1955 23.9632 25.6882 23.56 26.0017C20.9621 28.0398 17.8491 29.1147 14.5569 29.1147ZM8.28612 23.8517C10.145 25.1059 12.295 25.7778 14.5569 25.7778C16.8189 25.7778 18.9689 25.1059 20.8278 23.8517V23.583C20.8278 21.5226 19.1481 19.8205 17.0653 19.8205H12.0486C9.9882 19.8205 8.28612 21.5002 8.28612 23.583V23.8517Z" fill="white"/>
<path d="M71.4421 76.6836C68.2395 76.6836 65.6416 74.0857 65.6416 70.8831V69.3154C65.6416 66.1128 68.2395 63.5149 71.4421 63.5149C74.6447 63.5149 77.2426 66.1128 77.2426 69.3154V70.8831C77.2426 74.0857 74.6447 76.6836 71.4421 76.6836ZM71.4421 66.8966C70.0984 66.8966 69.001 67.994 69.001 69.3378V70.9055C69.001 72.2492 70.0984 73.3466 71.4421 73.3466C72.7859 73.3466 73.8832 72.2492 73.8832 70.9055V69.3378C73.8832 67.994 72.7859 66.8966 71.4421 66.8966Z" fill="white"/>
<path d="M71.4425 85.9778C68.1504 85.9778 65.0373 84.9028 62.4618 82.8648C62.0587 82.5512 61.8123 82.0585 61.8123 81.5434V80.4236C61.8123 76.5044 65.0149 73.3018 68.9342 73.3018H73.9733C77.8925 73.3018 81.0951 76.5044 81.0951 80.4236V81.5434C81.0951 82.0585 80.8488 82.5512 80.4456 82.8648C77.8477 84.9028 74.7347 85.9778 71.4425 85.9778ZM65.1717 80.7148C67.0306 81.9689 69.1806 82.6408 71.4425 82.6408C73.7045 82.6408 75.8545 81.9689 77.7133 80.7148V80.446C77.7133 78.3856 76.0337 76.6835 73.9509 76.6835H68.9118C66.8514 76.6835 65.1493 78.3632 65.1493 80.446V80.7148H65.1717Z" fill="white"/>
<path d="M71.4421 19.8206C68.2395 19.8206 65.6416 17.2226 65.6416 14.0201V12.4523C65.6416 9.24975 68.2395 6.65184 71.4421 6.65184C74.6447 6.65184 77.2426 9.24975 77.2426 12.4523V14.0201C77.2426 17.2226 74.6447 19.8206 71.4421 19.8206ZM71.4421 10.0336C70.0984 10.0336 69.001 11.131 69.001 12.4747V14.0424C69.001 15.3862 70.0984 16.4836 71.4421 16.4836C72.7859 16.4836 73.8832 15.3862 73.8832 14.0424V12.4747C73.8832 11.131 72.7859 10.0336 71.4421 10.0336Z" fill="white"/>
<path d="M71.4425 29.1147C68.1504 29.1147 65.0373 28.0398 62.4618 26.0017C62.0587 25.6882 61.8123 25.1955 61.8123 24.6804V23.5606C61.8123 19.6413 65.0149 16.4387 68.9342 16.4387H73.9733C77.8925 16.4387 81.0951 19.6413 81.0951 23.5606V24.6804C81.0951 25.1955 80.8488 25.6882 80.4456 26.0017C77.8477 28.0398 74.7347 29.1147 71.4425 29.1147ZM65.1717 23.8517C67.0306 25.1059 69.1806 25.7778 71.4425 25.7778C73.7045 25.7778 75.8545 25.1059 77.7133 23.8517V23.583C77.7133 21.5226 76.0337 19.8205 73.9509 19.8205H68.9118C66.8514 19.8205 65.1493 21.5002 65.1493 23.583V23.8517H65.1717Z" fill="white"/>
<path d="M82.0801 65.8662C81.6322 65.8662 81.2066 65.687 80.8931 65.3735C80.5796 65.06 80.4004 64.6344 80.4004 64.1865C80.4004 63.7386 80.5796 63.3131 80.8931 62.9996C81.2066 62.686 81.6322 62.5068 82.0801 62.5068C82.528 62.5068 82.9535 62.686 83.267 62.9996C83.5806 63.3131 83.7598 63.7386 83.7598 64.1865C83.7598 64.6344 83.5806 65.06 83.267 65.3735C82.9535 65.687 82.528 65.8662 82.0801 65.8662Z" fill="white"/>
<path d="M50.8605 15.3862H46.5605C45.6423 15.3862 44.8809 14.6248 44.8809 13.7065C44.8809 12.7883 45.6423 12.0269 46.5605 12.0269H50.8605C51.7788 12.0269 52.5402 12.7883 52.5402 13.7065C52.5402 14.6248 51.7788 15.3862 50.8605 15.3862Z" fill="white"/>
<path d="M39.4611 15.3862H35.1611C34.2429 15.3862 33.4814 14.6248 33.4814 13.7065C33.4814 12.7883 34.2429 12.0269 35.1611 12.0269H39.4611C40.3793 12.0269 41.1408 12.7883 41.1408 13.7065C41.1408 14.6248 40.3793 15.3862 39.4611 15.3862Z" fill="white"/>
<path d="M50.8605 73.1001H46.5605C45.6423 73.1001 44.8809 72.3386 44.8809 71.4204C44.8809 70.5022 45.6423 69.7407 46.5605 69.7407H50.8605C51.7788 69.7407 52.5402 70.5022 52.5402 71.4204C52.5402 72.361 51.7788 73.1001 50.8605 73.1001Z" fill="white"/>
<path d="M39.4611 73.1001H35.1611C34.2429 73.1001 33.4814 72.3386 33.4814 71.4204C33.4814 70.5022 34.2429 69.7407 35.1611 69.7407H39.4611C40.3793 69.7407 41.1408 70.5022 41.1408 71.4204C41.1408 72.361 40.3793 73.1001 39.4611 73.1001Z" fill="white"/>
<path d="M71.868 52.093C70.9498 52.093 70.1884 51.3316 70.1884 50.4133V46.2701C70.1884 45.3519 70.9498 44.5904 71.868 44.5904C72.7863 44.5904 73.5477 45.3519 73.5477 46.2701V50.4133C73.5477 51.354 72.8087 52.093 71.868 52.093Z" fill="white"/>
<path d="M71.868 40.6934C70.9498 40.6934 70.1884 39.9319 70.1884 39.0137V34.7137C70.1884 33.7955 70.9498 33.034 71.868 33.034C72.7863 33.034 73.5477 33.7955 73.5477 34.7137V39.0137C73.5477 39.9319 72.8087 40.6934 71.868 40.6934Z" fill="white"/>
<path d="M14.1317 52.272C13.2135 52.272 12.4521 51.5105 12.4521 50.5923V46.1131C12.4521 45.1949 13.2135 44.4335 14.1317 44.4335C15.05 44.4335 15.8114 45.1949 15.8114 46.1131V50.5923C15.8114 51.5105 15.0724 52.272 14.1317 52.272Z" fill="white"/>
<path d="M14.1317 40.6934C13.2135 40.6934 12.4521 39.9319 12.4521 39.0137V34.7137C12.4521 33.7955 13.2135 33.034 14.1317 33.034C15.05 33.034 15.8114 33.7955 15.8114 34.7137V39.0137C15.8114 39.9319 15.0724 40.6934 14.1317 40.6934Z" fill="white"/>
</g>
<defs>
<clipPath id="clip0_134_331">
<rect width="86" height="86" fill="white"/>
</clipPath>
</defs>
</svg>
