<svg width="54" height="31" viewBox="0 0 54 31" fill="none" xmlns="http://www.w3.org/2000/svg">
<path d="M3.48196 21.3697C3.47693 21.4702 3.51246 21.6157 3.59885 21.7362C3.68525 21.8567 3.79704 22.0024 3.83257 22.0928C3.86818 22.1831 3.8986 22.3388 3.90882 22.4091C3.91897 22.4794 4.10557 22.6055 3.84782 22.6903C3.78682 22.7104 3.73092 22.6652 3.58871 22.7204C3.52436 22.7454 3.73603 22.8912 3.64461 22.9113C3.5531 22.9314 3.49218 22.7857 3.42103 22.836C3.34989 22.8862 3.44131 22.9665 3.39564 23.0569C3.34997 23.1474 3.29399 23.1874 3.22293 23.2327C3.15178 23.2779 3.12639 23.4235 3.02986 23.3331C2.93332 23.2427 2.88254 23.077 2.74025 23.0469C2.59796 23.0168 2.54206 23.077 2.45567 23.0168C2.36927 22.9565 2.24734 23.1122 2.18634 23.1825C2.12533 23.2528 2.1457 23.298 2.2067 23.318C2.2677 23.3381 2.39977 23.3933 2.47092 23.4134C2.54206 23.4336 2.58271 23.5641 2.52178 23.5842C2.46078 23.6043 2.28296 23.519 2.23209 23.519C2.18131 23.519 2.13476 23.4984 2.08988 23.4688C2.05323 23.4445 2.02297 23.4335 1.98312 23.4602C1.94328 23.487 1.93059 23.4807 1.87645 23.4414C1.82231 23.402 1.76179 23.3124 1.69807 23.3139C1.63435 23.3155 1.59929 23.3407 1.59139 23.4257C1.58341 23.5107 1.69647 23.6287 1.68218 23.7199C1.66788 23.8112 1.70445 23.9135 1.64712 23.8758C1.58979 23.838 1.56264 23.7562 1.49741 23.7451C1.43209 23.7341 1.36837 23.7845 1.3429 23.7986C1.31743 23.8127 1.22185 23.8317 1.18688 23.8065C1.15183 23.7813 1.11997 23.7278 1.06104 23.8176C1.00211 23.9073 1.06583 24.126 0.951166 24.0143C0.836504 23.9025 0.753542 23.6948 0.692618 23.6797C0.631614 23.6646 0.626504 23.7299 0.626504 23.7851C0.626504 23.8404 0.550328 23.8102 0.514716 23.8353C0.479184 23.8604 0.514716 23.8906 0.550328 23.9759C0.585941 24.0613 0.565579 24.1266 0.560469 24.212C0.555438 24.2973 0.651975 24.3626 0.702759 24.4429C0.753542 24.5233 0.687508 24.5333 0.71801 24.689C0.748512 24.8447 0.880581 24.8647 0.885691 25.0405C0.890801 25.2162 0.900942 25.4121 0.900942 25.5527C0.900942 25.6933 0.919626 25.8958 0.926334 25.9561C1.0279 25.9092 1.06854 25.8423 1.12276 25.9092C1.17698 25.9761 1.30569 26.1703 1.33955 26.2774C1.3734 26.3846 1.45469 26.4314 1.49533 26.5251C1.53597 26.6189 1.59698 26.6791 1.67148 26.7394C1.74598 26.7997 1.98983 27.0072 2.03734 27.1076C2.08477 27.208 2.03056 27.3487 2.09156 27.3955C2.15256 27.4424 2.22706 27.5428 2.19999 27.6299C2.17292 27.7169 2.22027 27.8441 2.34907 27.8576C2.47778 27.8709 2.64036 27.8843 2.64036 27.9713C2.64036 28.0584 2.742 28.0316 2.80293 28.132C2.86393 28.2325 2.80293 28.2793 2.88421 28.3329C2.9655 28.3865 2.97907 28.487 2.91807 28.5337C2.85706 28.5806 2.80293 28.661 2.86385 28.728C2.92478 28.7949 2.99257 28.9154 3.00614 29.0025C3.01964 29.0895 3.10771 29.0895 3.13486 29.1833C3.16192 29.277 3.18899 29.3373 3.19578 29.4444C3.20257 29.5515 3.12807 29.5583 3.19578 29.6788C3.26357 29.7993 3.27707 29.893 3.36514 29.9198C3.45321 29.9466 3.43293 29.8663 3.55486 29.8663C3.67679 29.8663 3.74458 29.8797 3.81908 29.873C3.89357 29.8663 4.02908 29.8395 4.02908 29.7725C4.02908 29.7055 4.02229 29.2503 4.02229 29.1967C4.02229 29.1431 4.03586 28.7079 4.06293 28.6477C4.09 28.5874 4.25936 28.3597 4.35422 28.2861C4.44908 28.2125 4.44229 28.0652 4.44229 27.9781C4.44229 27.8911 4.27972 27.717 4.34743 27.5831C4.41514 27.4492 4.51 27.4358 4.60486 27.4023C4.69972 27.3688 4.97743 27.255 5.05201 27.1814C5.12651 27.1077 5.22137 27.0273 5.3298 27.101C5.43816 27.1746 5.57374 27.2282 5.64824 27.1881C5.72274 27.1479 5.72274 27.2282 5.79732 27.2483C5.87189 27.2685 5.85153 27.1881 5.93282 27.1747C6.0141 27.1613 6.21061 27.2149 6.2241 27.1413C6.23768 27.0676 6.12925 26.9806 6.12925 26.8936C6.12925 26.8065 6.10896 26.6793 6.16989 26.7128C6.23089 26.7462 6.2986 26.9203 6.34603 26.7797C6.39346 26.6391 6.37989 26.3177 6.37989 26.1637C6.37989 26.0097 6.26475 25.8825 6.19696 25.8222C6.12925 25.762 5.91924 25.7152 6.0276 25.5946C6.13595 25.4741 6.21053 25.4138 6.12917 25.3C6.04788 25.1862 5.95302 25.1393 6.07495 25.0389C6.19688 24.9384 6.36623 24.8514 6.47467 24.8179C6.58302 24.7845 6.56953 24.6104 6.5966 24.5301C6.62367 24.4497 6.66431 24.3961 6.79302 24.3694C6.92174 24.3426 7.02339 24.2689 7.0776 24.2154C7.13182 24.1619 7.21989 24.0279 7.30797 24.1485C7.39604 24.269 7.26053 24.731 7.41632 24.7578C7.5721 24.7845 7.68054 24.731 7.71439 24.6239C7.74825 24.5167 7.76182 24.3293 7.90411 24.3293C8.04632 24.3293 8.21576 24.3494 8.29704 24.2891C8.37833 24.2289 8.43255 24.2824 8.58162 24.3092C8.7307 24.3359 8.82548 24.2489 8.92034 24.2154C9.0152 24.182 9.13713 24.202 9.21163 24.2958C9.28613 24.3895 9.21841 24.6172 9.35392 24.5903C9.48942 24.5636 9.53685 24.4431 9.60456 24.5301C9.67227 24.6171 9.71978 24.7979 9.80777 24.8381C9.89585 24.8782 10.0856 25.0925 10.0856 25.2264C10.0856 25.3603 10.2008 25.5142 10.2008 25.5678C10.2008 25.6214 10.0924 25.7553 10.0991 25.8155C10.1059 25.8758 10.2618 25.8222 10.3092 25.762C10.3566 25.7017 10.4582 25.521 10.4989 25.6348C10.5396 25.7485 10.526 26.0298 10.6277 26.0632C10.7292 26.0967 10.8783 26.0565 10.9596 26.0097C11.0409 25.9628 11.0679 25.9226 11.1899 25.9762C11.3118 26.0298 11.4541 25.9695 11.4609 26.1168C11.4677 26.2642 11.5489 26.3109 11.6167 26.2842C11.6844 26.2574 11.7726 26.1436 11.8403 26.2106C11.9081 26.2775 11.9961 26.2842 12.0097 26.4449C12.0232 26.6056 12.0232 26.7462 12.1384 26.7931C12.2536 26.84 12.2671 26.9136 12.2942 26.9538C12.3212 26.9939 12.3619 26.9672 12.4703 26.9069C12.5787 26.8466 12.6397 26.7462 12.6803 26.8333C12.721 26.9203 12.809 27.0408 12.9445 27.0609C13.08 27.0811 13.2358 27.0878 13.3036 27.0141C13.3713 26.9404 13.5136 26.8199 13.4323 26.7462C13.351 26.6726 13.1952 26.6458 13.1952 26.5387C13.1952 26.4315 13.1613 26.4182 13.0936 26.378C13.0259 26.3379 13.0597 26.3111 13.053 26.2241C13.0462 26.137 12.7887 25.9629 13.0055 26.0031C13.2223 26.0433 13.5183 26.013 13.5136 25.9027C13.5068 25.742 13.4526 25.7152 13.561 25.6482C13.6694 25.5813 13.7304 25.5277 13.8117 25.5813C13.893 25.6349 14.1165 25.8023 14.1504 25.7287C14.1843 25.655 14.1233 25.5412 14.0555 25.4943C13.9878 25.4474 13.7981 25.3938 13.859 25.3402C13.92 25.2867 14.1165 25.2934 14.0622 25.2265C14.008 25.1595 13.7912 25.126 13.8658 25.0791C13.9403 25.0323 13.9877 24.9787 13.9877 24.9118C13.9877 24.8448 14.069 24.818 14.1368 24.8448C14.2045 24.8717 14.3604 24.9788 14.4553 25.0122C14.5501 25.0457 14.611 25.0992 14.7737 25.1127C14.9363 25.1261 15.1192 25.1328 15.2615 25.1595C15.4038 25.1864 15.5189 25.1662 15.607 25.2265C15.6951 25.2867 15.8035 25.3402 15.817 25.2532C15.8306 25.1662 15.9186 25.1595 16.0067 25.1729C16.0948 25.1863 16.3184 25.2599 16.4539 25.2599C16.5894 25.2599 16.8672 25.2599 16.9687 25.2599C17.0704 25.2599 17.2465 25.2265 17.2939 25.1796C17.3414 25.1327 17.4701 25.0055 17.6056 25.0791C17.7411 25.1528 17.863 25.2399 17.9511 25.3135C18.0392 25.3871 18.1272 25.3269 18.2085 25.3402C18.2898 25.3537 18.3102 25.4607 18.3169 25.5344C18.3237 25.6081 18.3169 25.7286 18.3575 25.8089C18.3982 25.8892 18.2965 25.9093 18.256 25.9763C18.2153 26.0433 18.1408 26.1369 18.1882 26.1905C18.2356 26.2441 18.283 26.2574 18.405 26.291C18.5269 26.3244 18.5608 26.2241 18.6353 26.1972C18.7098 26.1705 18.7234 26.2642 18.7437 26.3579C18.7641 26.4516 18.8793 26.465 18.947 26.4784C19.0148 26.4918 19.0485 26.6391 19.1366 26.6123C19.2247 26.5856 19.3127 26.5923 19.2857 26.6458C19.2586 26.6994 19.0215 26.7261 19.0148 26.8064C19.008 26.8868 18.947 26.9605 19.0622 27.014C19.1773 27.0676 19.096 26.947 19.2045 26.9336C19.3129 26.9202 19.2993 27.0073 19.4415 27.0073C19.5838 27.0073 19.6245 26.9068 19.7125 26.8599C19.8006 26.8131 19.8548 26.9269 19.9836 26.8465C20.1123 26.7662 20.1258 26.6859 20.2139 26.6792C20.302 26.6724 20.4239 26.6523 20.4985 26.6122C20.573 26.572 20.7085 26.5385 20.7085 26.6322C20.7085 26.7259 20.5527 26.6724 20.5256 26.8063C20.4985 26.9402 20.4849 27.0071 20.6475 27.1344C20.8101 27.2616 20.9591 27.3688 21.0201 27.5562C21.0811 27.7437 21.3061 28.404 21.3724 28.594C21.4401 28.7881 21.5281 29.4308 21.6569 29.4442C21.7856 29.4577 21.8669 29.4241 21.9008 29.3304C21.9346 29.2367 22.0092 29.0693 22.0837 29.1028C22.1582 29.1362 22.3209 29.2167 22.2734 29.297C22.226 29.3773 22.2056 29.4509 22.2802 29.4509C22.3548 29.4509 22.3344 29.4978 22.4292 29.5447C22.5241 29.5916 22.6054 29.5983 22.7205 29.5983C22.8357 29.5983 22.9577 29.5246 23.0592 29.4978C23.1609 29.4711 23.2509 29.4887 23.3302 29.5514C23.4319 29.6317 23.5809 29.7589 23.5877 29.8259C23.5945 29.8929 23.4657 30.0335 23.6079 30.1005C23.7502 30.1675 23.8382 30.1741 23.9196 30.2611C24.0009 30.3482 24.0279 30.529 24.0957 30.5758C24.1634 30.6227 24.299 30.6227 24.3532 30.6696C24.4074 30.7165 24.4548 30.7499 24.5835 30.6897C24.7122 30.6294 24.7665 30.4822 24.7867 30.5825C24.8071 30.683 24.8545 30.9307 24.9697 30.9642C25.0848 30.9976 25.2 31.0043 25.2949 30.9976C25.3898 30.9909 25.4236 30.9373 25.4778 30.857C25.532 30.7767 25.6337 30.7767 25.7759 30.7767C25.9181 30.7767 25.9453 30.6896 26.0604 30.6629C26.1755 30.6361 26.2976 30.5156 26.3111 30.4419C26.3247 30.3683 26.5482 30.2678 26.6092 30.2478C26.6702 30.2278 26.8531 30.1005 26.9751 30.0603C27.097 30.0201 27.1715 29.9264 27.2189 29.8862C27.2664 29.8461 27.3544 29.9398 27.4222 29.8929C27.49 29.8461 27.5036 29.6987 27.5509 29.7323C27.5984 29.7657 27.639 29.8394 27.7407 29.8327C27.8423 29.826 27.7949 29.8729 27.9236 29.9198C28.0523 29.9666 28.1268 29.9465 28.242 29.9465C28.3572 29.9465 28.4452 29.9331 28.4723 30.0336C28.4994 30.134 28.5807 30.3081 28.7027 30.3081C28.8246 30.3081 28.8517 30.3415 28.9737 30.3483C29.0956 30.355 29.0482 30.2345 29.1905 30.2679C29.3327 30.3014 29.4817 30.3884 29.5698 30.3617C29.6579 30.3348 29.807 30.355 29.8679 30.3751C29.9289 30.3951 29.9966 30.3215 30.0779 30.2612C30.1592 30.201 30.3827 30.1005 30.3895 30.0001C30.3963 29.8996 30.3015 29.7657 30.1998 29.6519C30.0982 29.5381 30.0915 29.4979 30.0915 29.4042C30.0915 29.3105 30.0915 29.1967 30.1457 29.1431C30.1998 29.0895 30.2338 29.0159 30.2473 28.9556C30.2609 28.8954 30.376 28.8686 30.4099 28.7882C30.4438 28.7079 30.4031 28.574 30.498 28.5941C30.5928 28.6142 30.6538 28.6812 30.8503 28.7347C31.0468 28.7883 31.1213 28.7682 31.2703 28.7816C31.4193 28.795 31.5751 28.8486 31.7038 28.8619C31.8326 28.8754 31.9816 28.8084 32.0426 28.9155C32.1036 29.0227 32.1306 29.257 32.2391 29.3842C32.3475 29.5114 32.5169 29.6252 32.693 29.6319C32.8691 29.6386 33.0521 29.6721 33.1537 29.5783C33.2554 29.4846 33.4044 29.4377 33.5331 29.3775C33.6618 29.3172 33.8312 29.2369 33.9463 29.2436C34.0615 29.2503 34.136 29.2971 34.2512 29.257C34.3663 29.2168 34.4273 29.2034 34.5086 29.2904C34.5899 29.3775 34.6779 29.3842 34.7931 29.3842C34.9083 29.3842 35.0234 29.3641 35.0438 29.4645C35.0641 29.565 35.1928 29.6051 35.281 29.6453C35.369 29.6855 35.5722 29.6922 35.64 29.6453C35.7077 29.5984 35.9449 29.6186 36.06 29.6186C36.1753 29.6186 36.27 29.5114 36.3649 29.4981C36.4598 29.4846 36.663 29.3709 36.8188 29.2637C36.9747 29.1566 37.0898 29.036 37.2525 28.9959C37.4151 28.9557 37.4286 28.8151 37.4964 28.7347C37.5641 28.6544 37.6929 28.5339 37.7877 28.42C37.8826 28.3062 37.9639 28.1187 38.1129 28.1723C38.2619 28.2259 38.3229 28.3732 38.4719 28.3062C38.6209 28.2393 38.6549 28.025 38.8309 28.0451C39.0071 28.0652 39.1223 28.1322 39.2307 28.1523C39.339 28.1723 39.5897 28.1925 39.6642 28.1255C39.7387 28.0585 39.7862 27.9246 39.8607 27.8309C39.9352 27.7371 40.0978 27.6501 40.125 27.5229C40.152 27.3957 40.0979 27.3957 40.0437 27.2752C39.9895 27.1547 39.9894 26.5654 40.0165 26.4584C40.0437 26.3512 40.0775 26.1838 40.1385 26.0633C40.1995 25.9428 40.1927 25.8424 40.1182 25.7889C40.0437 25.7353 40.0437 25.6282 40.0098 25.5746C39.9759 25.521 39.8675 25.4809 39.793 25.5479C39.7185 25.6148 39.6237 25.5479 39.6507 25.4274C39.6778 25.3069 39.7185 25.0859 39.8811 25.0123C40.0437 24.9387 40.1588 24.7847 40.3011 24.6641C40.4434 24.5436 40.6263 24.4833 40.7076 24.4164C40.7889 24.3495 40.8905 24.3294 41.0395 24.3428C41.1886 24.3562 41.2903 24.4231 41.3986 24.3495C41.507 24.2759 41.5883 24.1353 41.7442 24.2223C41.9 24.3093 42.1303 24.45 42.2997 24.5504C42.4691 24.6509 42.6249 24.7512 42.7062 24.8584C42.7875 24.9655 43.0246 25.1262 43.133 25.24C43.2414 25.3538 43.5869 25.4944 43.6208 25.6016C43.6546 25.7088 43.7563 25.9765 43.885 25.9765C44.0137 25.9765 44.1696 25.8159 44.3187 25.769C44.4677 25.7221 44.6099 25.8226 44.6844 25.7556C44.7589 25.6886 44.7387 25.5279 44.881 25.6551C45.0232 25.7823 45.118 25.8426 45.2536 25.7756C45.3891 25.7087 45.5381 25.8292 45.5855 25.8894C45.633 25.9497 45.7887 26.0032 45.843 26.1371C45.8972 26.271 45.9446 26.1974 46.08 26.2777C46.2156 26.3581 46.351 26.2041 46.4663 26.0969C46.5814 25.9898 46.7101 25.9496 46.7237 25.8024C46.7372 25.6551 46.683 25.5948 46.7711 25.5078C46.8591 25.4207 47.0014 25.327 47.0488 25.2332C47.0963 25.1395 47.1572 24.952 47.2859 24.9387C47.4146 24.9252 47.4756 25.0726 47.5637 25.173C47.6518 25.2734 47.7195 25.327 47.645 25.4408C47.5705 25.5546 47.523 25.6149 47.5975 25.6885C47.672 25.7621 47.7601 25.9295 47.7466 25.9831C47.733 26.0366 47.7533 26.1304 47.8143 26.2375C47.8753 26.3446 48.0041 26.4316 47.9701 26.5455C47.9363 26.6593 47.9295 26.7061 47.9701 26.82C48.0108 26.9338 47.9972 26.9606 47.9837 27.0544C47.9701 27.1481 48.031 27.2218 48.0582 27.2954C48.0853 27.369 47.9904 27.3757 47.8753 27.456C47.7601 27.5364 47.5433 27.4628 47.4823 27.5833C47.4213 27.7037 47.4417 27.8176 47.3469 27.9247C47.252 28.0319 47.191 28.0252 47.3536 28.1591C47.5163 28.293 47.6449 28.3599 47.7195 28.5407C47.794 28.7215 48.0108 28.8621 48.0447 28.996C48.0786 29.1299 48.2208 29.2304 48.1193 29.3375C48.0176 29.4446 47.9634 29.4647 47.9431 29.545C47.9228 29.6253 47.9635 29.7124 48.0516 29.7458C48.1396 29.7793 48.1667 29.6722 48.1599 29.5785C48.1531 29.4847 48.2276 29.4981 48.2751 29.4044C48.3225 29.3106 48.2818 29.0562 48.2818 28.9491C48.2818 28.842 48.3699 28.7213 48.3834 28.8554C48.4038 29.0563 48.4715 28.9626 48.4783 28.7818C48.4815 28.6948 48.5799 28.7282 48.5866 28.8018C48.5934 28.8754 48.7739 28.7624 48.8983 28.7684C49.0406 28.7751 49.1489 28.7951 49.2031 28.7349C49.2574 28.6746 49.4945 28.2729 49.5554 28.1256C49.6163 27.9783 49.6706 27.7574 49.6774 27.6101C49.6841 27.4628 49.6638 26.4585 49.6706 26.3246C49.6774 26.1907 49.7044 25.3939 49.7044 25.2332C49.7044 25.0726 49.6705 24.8918 49.6163 24.7579C49.5621 24.624 49.4741 24.3428 49.4741 24.1754C49.4741 24.0081 49.3996 23.6532 49.4063 23.5126C49.4131 23.3719 49.4877 23.1979 49.4063 23.0707C49.3251 22.9434 49.088 22.5484 49.0202 22.4145C48.9525 22.2806 48.7898 22.207 48.7628 22.0931C48.7357 21.9793 48.6544 21.9324 48.5866 21.852C48.5189 21.7717 48.397 21.7047 48.3496 21.5708C48.3195 21.4859 48.2866 21.4118 48.2494 21.333L3.48236 21.333C3.48268 21.3453 3.48252 21.3578 3.48196 21.3697ZM32.818 28.4738C32.9432 28.4608 33.1738 28.2849 33.3121 28.2198C33.4504 28.1547 33.4965 28.0115 33.5427 27.8943C33.5887 27.7771 33.6349 27.6925 33.7206 27.6405C33.8062 27.5884 33.9248 27.3605 33.9512 27.3019C33.9775 27.2434 34.0764 27.2304 34.1291 27.1717C34.1818 27.1132 34.353 26.8658 34.2674 26.9113C34.1818 26.9569 34.0434 27.1001 33.9907 27.1066C33.938 27.1131 34.1159 26.8788 34.162 26.7941C34.208 26.7095 34.208 26.6183 34.3332 26.41C34.4584 26.2017 34.4255 26.0975 34.4123 25.9607C34.3991 25.824 34.3596 25.7328 34.4386 25.6222C34.5177 25.5116 34.4782 25.4724 34.4584 25.3032C34.4386 25.1339 34.5375 25.0102 34.6363 24.9907C34.723 24.9735 34.7219 25.1795 34.7286 25.3227C34.7352 25.466 34.7154 25.7784 34.7549 25.9022C34.7944 26.0258 34.8669 26.104 34.834 26.2277C34.8011 26.3514 34.7813 26.423 34.7088 26.4816C34.6363 26.5402 34.5507 26.6444 34.6231 26.6769C34.6956 26.7094 34.8207 26.7745 34.7483 26.8461C34.6759 26.9178 34.6363 26.9243 34.5967 27.0024C34.5572 27.0805 34.5045 27.2367 34.4321 27.3018C34.3596 27.367 34.1554 27.5362 34.1093 27.6079C34.0632 27.6795 34.0368 27.7967 33.9709 27.7967C33.905 27.7967 33.7733 27.8097 33.7996 27.9204C33.826 28.0311 33.8062 28.1938 33.6942 28.2849C33.5822 28.3761 33.4175 28.4802 33.3187 28.5128C33.2199 28.5454 32.9695 28.617 32.9103 28.6105C32.8509 28.604 32.6929 28.4868 32.818 28.4738Z" fill="url(#paint0_linear_970_1299)"/>
<path d="M37.6756 9.88447C37.8648 9.97996 37.913 9.96402 37.905 10.0635C37.897 10.163 37.905 10.1828 37.7722 10.2027C37.6393 10.2226 37.43 10.4136 37.4018 10.4574C37.3737 10.5011 37.6836 10.3937 37.7078 10.4812C37.7319 10.5687 37.7239 10.6244 37.5911 10.6085C37.4582 10.5926 37.2811 10.5647 37.1925 10.5886C37.1039 10.6124 36.9711 10.6921 36.9751 10.7995C36.9791 10.9069 36.9591 11.0263 36.8261 11.0501C36.6933 11.074 36.5525 10.9904 36.4477 10.9507C36.3431 10.9109 36.2223 10.8592 36.2706 11.0302C36.3189 11.2013 36.4075 11.436 36.4518 11.5673C36.496 11.6986 36.5564 11.8696 36.484 11.8776C36.4116 11.8855 36.4156 11.8259 36.3149 11.8259C36.2143 11.8259 36.0492 11.8617 35.9726 11.7662C35.8961 11.6707 35.703 11.6588 35.6949 11.5752C35.6869 11.4917 35.7593 11.5394 35.7352 11.4678C35.7111 11.3962 35.5983 11.3206 35.5822 11.3047C35.5661 11.2888 35.5258 11.2888 35.558 11.3763C35.5902 11.4638 35.5902 11.5434 35.5138 11.4957C35.4373 11.448 35.2963 11.4042 35.3286 11.3525C35.3608 11.3008 35.4776 11.3564 35.5057 11.249C35.5339 11.1416 35.554 11.0421 35.4131 11.0263C35.2722 11.0103 35.1998 11.0183 35.1998 10.9586C35.1998 10.899 35.2038 10.7517 35.1394 10.7199C35.0751 10.6881 35.1233 10.6285 35.0308 10.5727C34.9381 10.517 34.8093 10.5767 34.757 10.5211C34.7047 10.4653 34.6603 10.4176 34.5637 10.4932C34.4671 10.5688 34.4912 10.6802 34.4308 10.6961C34.3705 10.712 34.3302 10.5807 34.298 10.6244C34.2658 10.6682 34.2577 10.7796 34.2014 10.7557C34.145 10.7319 34.0041 10.6603 33.9276 10.6762C33.8512 10.6921 33.6902 10.6881 33.7545 10.8354C33.819 10.9825 33.9478 11.0223 33.9276 11.1815C33.9075 11.3406 33.9238 11.3439 33.7827 11.4083C33.678 11.456 33.6297 11.5038 33.5613 11.5515C33.4929 11.5992 33.4446 11.631 33.3842 11.5992C33.3238 11.5674 33.2232 11.4759 33.1588 11.5236C33.0943 11.5714 33.199 11.6629 33.0783 11.6629C32.9576 11.6629 32.8328 11.651 32.8166 11.5674C32.8005 11.4839 32.9052 11.4242 32.8328 11.3526C32.7603 11.2809 32.6918 11.4242 32.5349 11.4361C32.3779 11.448 32.3497 11.4839 32.2127 11.4958C32.0759 11.5077 31.9899 11.576 31.9149 11.647C31.8183 11.7385 31.8384 11.8698 31.7861 11.9175C31.7338 11.9652 31.6895 11.8737 31.6573 11.7743C31.6251 11.6748 31.609 11.5196 31.5365 11.5276C31.4641 11.5356 31.5284 11.6827 31.456 11.7225C31.3835 11.7623 31.2306 11.8458 31.2306 11.7543C31.2306 11.6628 31.3152 11.5951 31.2789 11.5394C31.2427 11.4837 31.1824 11.4599 31.13 11.5116C31.0776 11.5633 31.0616 11.6508 30.9931 11.6468C30.9247 11.6428 30.9006 11.607 30.8603 11.6786C30.82 11.7503 30.7395 11.9412 30.8402 11.9213C30.9408 11.9014 31.0535 11.7781 31.0374 11.8576C31.0212 11.9371 30.961 12.0645 30.9246 12.1003C30.8884 12.1361 30.8804 12.0486 30.7878 12.1679C30.6952 12.2872 30.5825 12.3787 30.502 12.4105C30.4214 12.4423 30.2846 12.4384 30.2443 12.506C30.2041 12.5736 30.2081 12.5935 30.1558 12.7248C30.1035 12.8562 30.0471 12.9317 30.0189 12.8919C29.9907 12.8521 30.0632 12.8243 30.0793 12.7169C30.0954 12.6095 30.0511 12.4583 30.1034 12.4224C30.1557 12.3866 30.2282 12.4026 30.2645 12.3071C30.3007 12.2116 30.2605 12.1559 30.357 12.1241C30.4536 12.0923 30.4657 12.0485 30.518 11.957C30.5703 11.8655 30.5744 11.7661 30.6308 11.7103C30.6872 11.6546 30.7395 11.6587 30.7395 11.5432C30.7395 11.4278 30.7113 11.4319 30.7797 11.3682C30.8481 11.3045 30.9166 11.1653 30.981 11.0778C31.0454 10.9903 31.1863 10.8868 31.2104 10.7317C31.2346 10.5765 31.2708 10.4889 31.2547 10.3856C31.2387 10.2821 31.1622 10.302 31.1219 10.2622C31.0817 10.2225 31.1783 10.1946 31.1663 10.111C31.1541 10.0275 31.0938 9.9439 31.0454 9.90018C30.9971 9.85638 30.9166 9.76492 30.8804 9.7609C30.8465 9.75719 30.7631 9.71505 30.756 9.66715L29.9096 9.66715C29.864 9.7085 29.8286 9.76216 29.8258 9.80067C29.8218 9.85638 29.7211 9.87232 29.6648 9.89615C29.6084 9.92006 29.5158 9.86435 29.5601 9.80067C29.5817 9.76974 29.6298 9.71892 29.6653 9.66715H28.5077C28.5067 9.67417 28.5059 9.68159 28.5054 9.68925C28.4973 9.80856 28.5778 9.86033 28.5939 9.94784C28.6101 10.0354 28.606 10.099 28.5336 10.1229C28.4611 10.1468 28.4208 10.1547 28.3082 10.1587C28.1954 10.1626 28.1109 10.2024 28.1552 10.2462C28.1994 10.29 28.284 10.3179 28.3001 10.3894C28.3162 10.461 28.433 10.5128 28.3726 10.5207C28.3122 10.5286 28.3243 10.4332 28.2196 10.4291C28.115 10.4252 28.1271 10.4252 28.0707 10.4888C28.0143 10.5525 27.9096 10.6121 27.8935 10.5882C27.8774 10.5644 27.8492 10.5524 27.805 10.6081C27.7606 10.6638 27.7044 10.6916 27.6399 10.6757C27.5755 10.6598 27.5514 10.5723 27.6279 10.5524C27.7044 10.5325 27.801 10.4807 27.8211 10.4251C27.8412 10.3694 27.8211 10.3694 27.7205 10.3734C27.6199 10.3774 27.5312 10.5087 27.491 10.5166C27.4508 10.5246 27.2495 10.5525 27.1488 10.5803C27.0482 10.6082 26.9757 10.6281 27.0724 10.6917C27.169 10.7553 27.3541 10.7951 27.169 10.807C26.9838 10.819 26.9919 10.8388 26.8953 10.8946C26.7986 10.9503 26.7665 10.99 26.6658 10.99C26.5652 10.99 26.5208 10.9941 26.4082 11.0855C26.2954 11.1771 26.2351 11.173 26.1908 11.2407C26.1464 11.3083 26.0861 11.3799 26.0176 11.364C25.9492 11.3481 25.913 11.2447 25.8445 11.3202C25.7761 11.3958 25.8968 11.4435 25.7882 11.4794C25.6794 11.5152 25.6553 11.5431 25.6754 11.5908C25.6955 11.6385 25.5989 11.6863 25.5264 11.7221C25.454 11.7579 25.4177 11.8295 25.3292 11.8256C25.2406 11.8216 25.1279 11.8574 25.2205 11.8932C25.3131 11.929 25.3735 11.9131 25.45 11.9012C25.5265 11.8892 25.5305 11.9091 25.5667 11.9847C25.6029 12.0603 25.6231 12.0484 25.6875 12.12C25.7519 12.1916 25.8203 12.2234 25.78 12.2831C25.7398 12.3427 25.611 12.3388 25.5345 12.3587C25.458 12.3786 25.458 12.4502 25.3493 12.4581C25.2406 12.4661 25.1883 12.4501 25.0876 12.47C24.987 12.4899 24.9186 12.4741 24.7857 12.47C24.6529 12.4661 24.4959 12.4263 24.4315 12.4621C24.3671 12.4979 24.1859 12.5934 24.2342 12.7167C24.2825 12.8401 24.3308 12.9355 24.2987 13.0747C24.2665 13.214 24.1739 13.3612 24.2866 13.4089C24.3993 13.4567 24.5282 13.4646 24.5361 13.5522C24.5442 13.6397 24.5321 13.7153 24.5805 13.7749C24.6288 13.8346 24.6851 13.938 24.5805 13.9539C24.4758 13.9698 24.3389 13.9818 24.2866 13.8942C24.2343 13.8067 24.1457 13.6754 24.0772 13.6078C24.0088 13.5402 24.0008 13.4924 23.9445 13.4367C23.8881 13.381 23.8922 13.4049 23.7794 13.3572C23.6667 13.3094 23.6506 13.3094 23.6546 13.2259C23.6586 13.1423 23.6465 13.0349 23.5137 13.1105C23.3808 13.1861 23.2158 13.2656 23.3043 13.3333C23.3929 13.4009 23.4654 13.373 23.4412 13.4407C23.4171 13.5083 23.4251 13.5163 23.4855 13.5361C23.5459 13.556 23.6545 13.6316 23.5378 13.6714C23.4211 13.7112 23.3808 13.6794 23.3043 13.6038C23.2278 13.5282 23.103 13.4367 23.0467 13.556C22.9904 13.6753 22.9541 13.7311 23.0467 13.8265C23.1393 13.922 23.1514 13.9657 23.256 14.0493C23.3607 14.1329 23.3486 14.0811 23.4291 14.1607C23.5096 14.2403 23.6425 14.4392 23.5338 14.4511C23.4251 14.463 23.3567 14.3994 23.3245 14.304C23.2923 14.2085 23.236 14.2164 23.1272 14.1687C23.0185 14.121 22.8736 14.0533 22.8293 14.0016C22.7851 13.9499 22.7931 13.9737 22.8253 13.8583C22.8575 13.743 22.7931 13.7151 22.8293 13.6117C22.8656 13.5082 22.9259 13.4923 22.9662 13.4047C23.0064 13.3172 23.0104 13.1144 23.0104 13.0148C23.0104 12.9154 23.0145 12.8756 22.9662 12.8438C22.9179 12.812 22.8534 12.8477 22.8656 12.9074C22.8776 12.9671 22.8656 13.17 22.8374 13.2416C22.8092 13.3133 22.8052 13.3808 22.6844 13.4287C22.5636 13.4764 22.471 13.4446 22.4187 13.5043C22.3663 13.5639 22.4026 13.6315 22.3503 13.6793C22.298 13.727 22.1571 13.7151 22.2014 13.8106C22.2457 13.9061 22.3463 13.9657 22.3544 14.105C22.3624 14.2442 22.4228 14.3278 22.3865 14.4472C22.3503 14.5666 22.3061 14.6461 22.2376 14.7336C22.1692 14.8211 22.1209 14.9445 22.0766 15.0041C22.0323 15.0638 22.0564 15.1553 22.0564 15.2508C22.0564 15.3463 22.0081 15.394 22.0162 15.4855C22.0243 15.577 22.0485 15.6009 22.1209 15.6009C22.1933 15.6009 22.1692 15.6725 22.2617 15.6685C22.3544 15.6646 22.3946 15.577 22.459 15.5969C22.5234 15.6168 22.5999 15.6566 22.7408 15.7402C22.8816 15.8237 23.0065 15.9072 23.0065 16.0027C23.0065 16.0982 23.0185 16.1459 23.0185 16.2494C23.0185 16.3528 23.0548 16.4363 22.9742 16.4881C22.8937 16.5398 22.8092 16.6274 22.8212 16.695C22.8333 16.7626 22.8454 16.878 22.942 16.9019C23.0387 16.9257 23.1755 16.9377 23.1795 16.9775C23.1836 17.0173 23.1433 17.0412 22.9823 17.0213C22.8213 17.0014 22.7327 16.9815 22.7085 16.8781C22.6844 16.7746 22.6723 16.6155 22.7246 16.5638C22.7769 16.5121 22.7729 16.4285 22.8011 16.3449C22.8293 16.2614 22.8253 16.2097 22.8051 16.146C22.785 16.0823 22.7166 16.0107 22.7166 15.9471C22.7166 15.8834 22.7205 15.8237 22.632 15.8277C22.5434 15.8317 22.2617 15.8596 22.1932 15.8993C22.1248 15.9391 22.0604 15.9948 22.0402 16.1102C22.0201 16.2255 22.0724 16.3051 22.0483 16.4245C22.0242 16.5439 22.0363 16.691 21.9396 16.7507C21.843 16.8104 21.8028 16.7825 21.7303 16.9178C21.6578 17.053 21.686 17.1525 21.5451 17.2042C21.4043 17.2559 21.3398 17.2759 21.3237 17.3196C21.3076 17.3634 21.2512 17.3315 21.1747 17.3514C21.0982 17.3713 21.1224 17.4428 21.0821 17.5065C21.0419 17.5702 21.0178 17.6378 20.9211 17.5821C20.8245 17.5264 20.8245 17.4389 20.7158 17.4389C20.607 17.4389 20.5145 17.4469 20.4622 17.3871C20.4099 17.3275 20.3213 17.228 20.273 17.1922C20.2247 17.1564 20.1482 17.0769 20.1724 17.0053C20.1965 16.9336 20.2287 16.9336 20.3253 16.9973C20.422 17.061 20.5226 17.0848 20.6031 17.1087C20.6836 17.1326 20.5387 17.2201 20.6917 17.232C20.8447 17.2439 20.9252 17.2002 20.893 17.1365C20.8608 17.0729 20.9212 17.0769 20.9936 17.0371C21.0661 16.9973 21.1507 16.9058 21.215 16.8183C21.2794 16.7307 21.364 16.6233 21.4404 16.6074C21.5169 16.5915 21.5733 16.5517 21.5853 16.4682C21.5974 16.3846 21.537 16.2932 21.6175 16.2334C21.698 16.1738 21.8389 15.9748 21.7946 15.9112C21.7504 15.8476 21.5813 15.6725 21.6256 15.5611C21.6699 15.4497 21.7625 15.3264 21.7786 15.1991C21.7946 15.0718 21.8188 14.8132 21.843 14.7336C21.8672 14.654 21.8833 14.5944 21.9638 14.471C22.0443 14.3477 22.0766 14.2204 22.0685 14.105C22.0604 13.9896 21.8793 13.8226 21.9356 13.735C21.992 13.6475 22.1208 13.5043 22.2134 13.3809C22.306 13.2576 22.3584 13.0229 22.3584 12.9393C22.3584 12.8558 22.4429 12.82 22.3825 12.7524C22.3221 12.6848 22.2939 12.6649 22.1812 12.6171C22.0685 12.5694 21.9477 12.5177 21.8712 12.4898C21.7947 12.462 21.7424 12.3546 21.686 12.3824C21.6297 12.4103 21.5291 12.5814 21.4606 12.7126C21.3922 12.8439 21.3238 13.0985 21.207 13.2019C21.0903 13.3054 21.1467 13.2974 20.9333 13.3849C20.72 13.4725 20.6716 13.4645 20.6072 13.5799C20.5428 13.6952 20.4985 13.8146 20.579 13.8226C20.6595 13.8306 20.6515 13.8862 20.6112 13.9339C20.571 13.9817 20.5588 14.0851 20.5106 14.2164C20.4623 14.3477 20.5267 14.4233 20.426 14.4272C20.3254 14.4312 20.3174 14.3874 20.261 14.5625C20.2046 14.7375 20.3495 14.6898 20.4059 14.7455C20.4623 14.8012 20.5065 14.829 20.4985 14.9444C20.4905 15.0598 20.426 15.1036 20.5025 15.2388C20.579 15.3741 20.6636 15.3462 20.6313 15.4259C20.5991 15.5054 20.4985 15.589 20.434 15.6725C20.3697 15.7561 20.3052 15.7919 20.269 15.7043C20.2327 15.6168 20.2247 15.5452 20.1603 15.4179C20.0959 15.2906 20.1522 15.2388 20.0315 15.1474C19.9108 15.0558 19.8423 14.9365 19.7578 14.845C19.6732 14.7534 19.6894 14.6222 19.5645 14.4909C19.4397 14.3596 19.3834 14.304 19.2506 14.2204C19.1177 14.1368 19.0896 14.1011 19.013 14.0493C18.9365 13.9976 18.8399 13.9101 18.7997 13.93C18.7594 13.9499 18.6025 14.0095 18.6789 13.922C18.7554 13.8345 18.7111 13.7271 18.6668 13.6356C18.6225 13.544 18.6306 13.4287 18.6064 13.3491C18.5823 13.2696 18.4736 13.2934 18.4374 13.3411C18.4012 13.3889 18.2764 13.3809 18.3408 13.5321C18.4052 13.6832 18.4816 13.743 18.4777 13.8106C18.4737 13.8782 18.4777 13.9061 18.53 13.9498C18.5823 13.9936 18.5622 13.9219 18.5582 14.0811C18.5542 14.2402 18.6227 14.3715 18.5744 14.4432C18.526 14.5148 18.4737 14.6142 18.3449 14.6262C18.2161 14.6381 18.1355 14.658 18.0792 14.6102C18.0228 14.5625 18.1396 14.5307 18.0993 14.4312C18.0591 14.3317 18.0873 14.292 17.9867 14.292C17.8861 14.292 17.725 14.3635 17.5921 14.3715C17.4593 14.3795 17.403 14.3397 17.3064 14.28C17.2097 14.2202 17.1534 14.1566 16.9923 14.1845C16.8313 14.2123 16.8233 14.3556 16.6904 14.276C16.5575 14.1965 16.2758 14.1606 16.4046 14.0811C16.5334 14.0016 16.6019 14.0731 16.6261 14.0135C16.6502 13.9538 16.6542 13.8145 16.7146 13.7907C16.775 13.7668 16.8757 13.7311 16.9199 13.727C16.9641 13.7231 16.787 13.6196 16.6985 13.6196C16.6099 13.6196 16.4489 13.6037 16.3804 13.6753C16.312 13.747 16.3321 13.9101 16.2275 13.8901C16.1228 13.8703 16.2516 13.7668 16.1389 13.727C16.0262 13.6873 15.9416 13.7151 15.9255 13.6633C15.9094 13.6117 15.8612 13.5679 15.7887 13.5997C15.7162 13.6315 15.6276 13.6911 15.5834 13.6911C15.5392 13.6911 15.2573 13.7667 15.205 13.7031C15.1527 13.6394 15.1003 13.5997 15.0843 13.6474C15.0681 13.6951 15.0722 13.719 14.9555 13.6911C14.8387 13.6633 14.7542 13.5678 14.7139 13.6633C14.6737 13.7587 14.6374 13.8065 14.5368 13.894C14.4362 13.9815 14.396 14.0611 14.3033 14.0054C14.2108 13.9497 14.0014 13.9458 14.0095 13.8304C14.0176 13.715 14.09 13.6872 14.0498 13.5798C14.0095 13.4724 13.9289 13.3729 13.9974 13.3172C14.0658 13.2615 14.1222 13.2138 14.2308 13.1979C14.3395 13.182 14.4201 13.3093 14.5207 13.3093C14.6213 13.3093 14.6696 13.1821 14.6696 13.0706C14.6696 12.9592 14.726 12.7524 14.6535 12.6608C14.5811 12.5693 14.3798 12.5137 14.3394 12.4142C14.2992 12.3147 14.259 12.1437 14.2147 12.2312C14.1704 12.3187 14.2107 12.4142 14.2187 12.4977C14.2268 12.5813 14.2308 12.6728 14.1261 12.7563C14.0214 12.8399 13.8885 12.9433 13.808 13.011C13.7276 13.0786 13.5665 13.0786 13.6389 13.2099C13.7114 13.3412 13.6872 13.4526 13.6028 13.5521C13.5182 13.6515 13.3532 13.6913 13.3048 13.7748C13.2565 13.8584 13.1761 13.9976 13.1398 13.9181C13.1035 13.8385 13.0875 13.7828 13.1116 13.7191C13.1357 13.6555 13.1317 13.556 13.0592 13.5003C12.9868 13.4446 12.9787 13.4048 12.9466 13.3531C12.9143 13.3014 12.8539 13.3491 12.7573 13.361C12.6607 13.3729 12.5158 13.4207 12.4152 13.3849C12.3145 13.3491 12.2904 13.3292 12.2058 13.361C12.1213 13.3928 12.1253 13.3889 11.9643 13.3969C11.8033 13.4048 11.7992 13.3889 11.7509 13.5361C11.7026 13.6833 11.6906 13.8265 11.6422 13.9061C11.5939 13.9856 11.4933 14.0612 11.4449 14.0095C11.3966 13.9578 11.3443 13.9817 11.296 13.8504C11.2477 13.7191 11.2759 13.6594 11.1913 13.6077C11.1068 13.556 10.982 13.5918 11.0504 13.5202C11.1188 13.4485 11.1229 13.4128 11.1068 13.3531C11.0907 13.2934 11.1228 13.2059 11.0987 13.1383C11.0745 13.0706 11.0222 12.9712 10.9579 12.9911C10.8935 13.011 10.8774 13.0706 10.7968 13.0349C10.7163 12.9991 10.672 13.0508 10.668 13.1304C10.6639 13.2099 10.6036 13.3572 10.6358 13.4486C10.668 13.5402 10.7485 13.56 10.7807 13.6237C10.8129 13.6873 10.7767 13.6753 10.7284 13.747C10.6801 13.8186 10.7162 13.9101 10.6237 13.8942C10.5311 13.8783 10.4909 13.8744 10.4144 13.8147C10.3379 13.755 10.2695 13.6516 10.2655 13.568C10.2614 13.4845 10.3018 13.401 10.2816 13.2657C10.2615 13.1305 10.1689 13.1384 10.1528 13.0549C10.1367 12.9714 10.1247 12.9116 10.2373 12.8202C10.3501 12.7286 10.3862 12.681 10.4225 12.5775C10.4587 12.4741 10.4667 12.3229 10.6117 12.2751C10.7566 12.2274 10.8251 12.2314 10.8975 12.0882C10.9699 11.945 10.9659 11.8654 10.9377 11.754C10.9096 11.6426 10.9136 11.6546 10.9498 11.5749C10.9861 11.4954 10.9418 11.4198 10.9418 11.3442C10.9418 11.2686 10.8975 11.1731 10.9539 11.1294C11.0102 11.0856 11.0183 10.9902 11.0183 10.9305C11.0183 10.8708 11.0827 10.9145 11.0948 10.9623C11.1069 11.01 11.1189 11.0697 11.1029 11.1731C11.0868 11.2766 11.0868 11.368 11.1391 11.4118C11.1914 11.4556 11.1592 11.5153 11.1995 11.6147C11.2397 11.7141 11.2777 11.8383 11.2929 11.9035C11.3273 12.0505 11.3614 12.1128 11.4798 12.2483C11.5981 12.3837 11.6355 12.6115 11.6791 12.6792C11.7227 12.7469 11.9469 12.9808 12.3206 12.9994C12.6944 13.0178 12.9449 12.8981 12.9948 12.8365C13.0446 12.775 13.0363 12.6536 13.0799 12.6167C13.1235 12.5797 13.1087 12.4784 13.1788 12.4511C13.2791 12.412 13.1677 12.2852 13.1491 12.2298C13.1304 12.1744 13.198 12.1287 13.198 12.0548C13.198 11.9809 13.1802 11.922 13.1179 11.9035C13.0556 11.8851 13.1111 11.5921 13.0556 11.5773C12.9838 11.5582 12.9996 11.4727 13.0058 11.3372C13.012 11.2018 12.9684 11.0109 12.9498 10.9062C12.9311 10.8016 12.9062 10.5061 12.8501 10.4568C12.7941 10.4076 12.6633 10.2968 12.657 10.2229C12.6507 10.1491 12.5923 10.0204 12.5511 10.0691C12.5334 10.0899 12.473 10.1469 12.451 10.1224C12.4354 10.105 12.5199 10.0013 12.5387 9.94587C12.5574 9.89047 12.4951 9.86585 12.4577 9.78583C12.4363 9.74006 12.4313 9.69437 12.4391 9.66699H11.0172C11.0179 9.66968 11.0181 9.67228 11.0189 9.67496C11.0438 9.76113 10.9886 9.97065 10.9628 10.069C10.9353 10.1739 10.9682 10.2038 10.8748 10.2418C10.7814 10.2798 10.5782 10.2418 10.4684 10.2852C10.3585 10.3286 10.189 10.4579 10.0773 10.724C9.96551 10.9902 9.90451 11.0755 9.83336 11.1307C9.76222 11.186 9.67079 11.1458 9.57929 11.196C9.48786 11.2462 9.44211 11.2914 9.41672 11.3567C9.39132 11.4219 9.30493 11.3818 9.24903 11.4219C9.19314 11.4621 9.20839 11.5876 9.19817 11.6329C9.18803 11.6781 9.10164 11.668 9.06099 11.7182C9.02035 11.7684 8.99999 11.8739 9.0051 11.9191C9.01021 11.9643 9.0356 12.0496 8.95424 12.0748C8.87295 12.0999 8.62398 12.0597 8.61384 12.14C8.6037 12.2204 8.63412 12.4916 8.60873 12.5869C8.58334 12.6823 8.54773 12.8882 8.46644 12.9485C8.38516 13.0088 8.03965 13.069 7.9634 13.069C7.88722 13.069 7.47561 13.1041 7.30289 13.1041C7.13018 13.1041 6.78468 13.0739 6.68303 13.0739C6.58139 13.0739 6.2766 13.0539 6.25113 13.079C6.22574 13.1041 6.31717 13.1744 6.3832 13.1744C6.44924 13.1744 6.55088 13.1945 6.58139 13.2346C6.61189 13.2748 6.55088 13.2698 6.47982 13.3049C6.40867 13.3401 6.36803 13.3652 6.36803 13.4355C6.36803 13.5058 6.37825 13.6364 6.42903 13.6765C6.47982 13.7167 6.53068 13.7468 6.52557 13.8422C6.52046 13.9376 6.53068 14.0933 6.49507 14.0632C6.45954 14.033 6.39853 13.8924 6.36803 13.8322C6.33753 13.7719 6.36292 13.6816 6.28164 13.6816C6.20035 13.6816 6.07331 13.7067 6.04281 13.6565C6.01231 13.6063 5.96655 13.5862 5.93613 13.5862C5.90563 13.5862 5.91074 13.5008 5.85988 13.4807C5.80909 13.4606 5.7532 13.5008 5.7532 13.5661C5.7532 13.6314 5.71256 13.7871 5.65155 13.772C5.59055 13.7569 5.42798 13.7218 5.37208 13.7318C5.31619 13.7419 5.16887 13.7017 5.09773 13.8072C5.02658 13.9126 4.95041 13.998 4.86401 14.0432C4.77761 14.0884 4.82848 14.1186 4.75222 14.1989C4.67605 14.2793 4.65569 14.2742 4.5439 14.2893C4.43211 14.3043 4.42708 14.3545 4.40161 14.455C4.37622 14.5554 4.32032 14.6258 4.23393 14.686C4.14753 14.7462 4.14753 14.7563 4.112 14.8466C4.07647 14.937 4.04085 15.0625 3.96468 15.1328C3.8885 15.2032 3.77161 15.1981 3.81225 15.3136C3.85289 15.4292 3.84778 15.5246 3.92907 15.5798C4.01035 15.635 4.00021 15.7054 3.94935 15.7806C3.89856 15.8559 3.98496 15.8811 4.05603 15.9564C4.12717 16.0317 4.25421 16.0919 4.22371 16.2175C4.1932 16.343 4.12206 16.4284 4.05099 16.5238C3.97985 16.6192 3.95957 16.6996 3.87317 16.7146C3.78678 16.7297 3.72585 16.8452 3.70549 16.9105C3.68521 16.9758 3.55817 17.2218 3.55817 17.3373C3.55817 17.4529 3.55817 17.6236 3.59881 17.6788C3.63946 17.734 3.66996 17.7591 3.60896 17.8245C3.54803 17.8897 3.62421 18.0354 3.51242 18.0554C3.40063 18.0756 3.2177 18.0805 3.17706 18.0053C3.13641 17.93 3.14663 17.7743 3.04491 17.7441C2.94326 17.714 2.93823 17.8395 2.86198 17.945C2.78572 18.0504 2.62315 18.1659 2.57229 18.2613C2.5215 18.3567 2.59265 18.5526 2.68918 18.5576C2.78572 18.5626 2.88226 18.4872 2.90765 18.5726C2.93304 18.658 2.91779 18.8187 3.07533 18.8639C3.23287 18.9091 3.35983 18.9041 3.2989 19.0598C3.2379 19.2155 3.25315 19.351 3.18712 19.4213C3.12108 19.4916 3.06519 19.3812 3.00418 19.4213C2.94318 19.4615 2.87204 19.582 2.85175 19.6222C2.83147 19.6623 2.89751 19.7427 2.94837 19.8482C2.99915 19.9536 3.09569 20.1896 3.01441 20.295C2.93312 20.4005 2.79594 20.4708 2.87212 20.5612C2.94837 20.6516 3.04483 20.7872 3.0398 20.8324C3.03477 20.8776 3.31927 21.0935 3.39041 21.1136C3.45309 21.1313 3.48024 21.2387 3.48232 21.3327L48.2491 21.3327C48.2277 21.2873 48.2048 21.2404 48.1799 21.189C48.1122 21.0483 48.1979 20.8667 48.1412 20.8032C48.0936 20.7499 48.0555 20.7719 48.0428 20.7248C48.0301 20.6778 48.0396 20.6025 47.9952 20.6025C47.9508 20.6025 47.8397 20.6182 47.808 20.5774C47.7763 20.5366 47.8239 20.4582 47.7667 20.4143C47.7096 20.3703 47.7128 20.3076 47.6144 20.3201C47.5161 20.3327 47.3763 20.3829 47.3573 20.3327C47.3383 20.2825 47.4399 20.2982 47.4875 20.248C47.5351 20.1978 47.5858 20.1225 47.5415 20.0755C47.4971 20.0285 47.4335 20.0441 47.3193 20.0536C47.205 20.063 47.0749 20.0818 46.9765 20.0567C46.8782 20.0316 46.8178 19.9689 46.7385 19.9532C46.6591 19.9375 46.5131 19.9124 46.4306 19.9564C46.3481 20.0002 46.4084 20.0818 46.3353 20.1226C46.2624 20.1634 46.1291 20.1665 46.0973 20.2041C46.0655 20.2418 46.1004 20.3171 46.1608 20.3579C46.2211 20.3987 46.2624 20.4363 46.1957 20.4708C46.129 20.5053 46.1449 20.5429 46.1608 20.6182C46.1766 20.6935 46.183 20.7907 46.1481 20.8472C46.1131 20.9037 46.0148 21.0794 45.9576 21.0354C45.9005 20.9915 45.9418 20.8629 45.9418 20.7719C45.9418 20.6809 45.983 20.5963 45.9196 20.6307C45.8561 20.6652 45.764 20.7437 45.7577 20.6684C45.7513 20.5931 45.7736 20.5241 45.7227 20.5304C45.672 20.5367 45.5355 20.6401 45.5863 20.7186C45.637 20.797 45.7006 20.7531 45.7164 20.8064C45.7323 20.8597 45.7576 20.9162 45.6847 20.9727C45.6117 21.0292 45.5703 21.0605 45.5354 20.979C45.5004 20.8974 45.491 20.8033 45.4434 20.75C45.3958 20.6966 45.3959 20.5963 45.3165 20.5932C45.2371 20.59 45.1895 20.6904 45.0245 20.7688C44.8594 20.8472 44.669 21.0103 44.6213 20.8504C44.5737 20.6904 44.5547 20.6308 44.6213 20.5461C44.688 20.4614 44.761 20.3642 44.7483 20.1979C44.7356 20.0316 44.7261 20.0034 44.7927 19.8529C44.8593 19.7023 44.8625 19.4514 44.7927 19.0687C44.7229 18.686 44.7864 18.6076 44.8308 18.479C44.8752 18.3503 44.8657 18.1339 44.8689 18.0838C44.872 18.0336 44.8625 17.8861 44.9164 17.8328C44.9704 17.7795 44.9514 17.7607 44.9101 17.676C44.8689 17.5913 44.7514 17.5034 44.7577 17.4344C44.7641 17.3654 44.8815 17.2243 44.8657 17.0768C44.8498 16.9294 44.8054 16.8415 44.8086 16.7191C44.8117 16.5968 44.8277 16.4494 44.8784 16.371C44.9291 16.2925 45.1323 16.004 45.2338 15.9255C45.3354 15.8471 45.4783 15.5931 45.6052 15.5774C45.7322 15.5617 45.7829 15.5931 45.8464 15.5209C45.9099 15.4488 45.8369 15.4112 45.8052 15.3704C45.7734 15.3296 45.7703 15.2951 45.9098 15.2543C46.0496 15.2135 46.04 15.1727 46.113 15.1163C46.1859 15.0599 46.1796 14.9782 46.2495 14.8935C46.3193 14.8088 46.3225 14.8653 46.4177 14.8214C46.5129 14.7774 46.5446 14.7022 46.5002 14.674C46.4558 14.6457 46.3987 14.6363 46.4241 14.5893C46.4494 14.5423 46.4241 14.536 46.4082 14.4764C46.3924 14.4168 46.3543 14.3227 46.4019 14.285C46.4494 14.2474 46.5669 14.1595 46.6494 14.1408C46.7319 14.122 46.9223 14.1972 46.9382 14.1313C46.9541 14.0654 46.9192 13.9086 46.9922 13.8772C47.0652 13.8459 47.0683 13.8897 47.1699 13.8929C47.2715 13.8961 47.2715 13.7706 47.3413 13.8019C47.4111 13.8333 47.3096 13.9337 47.3033 14.009C47.297 14.0843 47.189 14.2631 47.3509 14.2317C47.5128 14.2003 47.4938 14.0748 47.535 13.9901C47.5762 13.9054 47.5508 13.8489 47.6175 13.8113C47.6841 13.7737 47.7063 13.6388 47.7063 13.5353C47.7063 13.4317 47.7095 13.3909 47.8206 13.369C47.9317 13.3471 47.919 13.2404 47.9603 13.162C48.0016 13.0836 48.1412 13.0522 48.1158 12.9519C48.0904 12.8515 47.992 12.7135 47.8905 12.8264C47.7889 12.9393 47.8175 13.0554 47.7413 13.0711C47.6651 13.0868 47.6334 13.0303 47.5922 12.9739C47.5509 12.9175 47.5096 12.908 47.5255 12.8265C47.5395 12.7544 47.4124 12.7654 47.389 12.5692C47.3763 12.4625 47.3763 12.0893 47.3255 12.0045C47.2748 11.9199 47.1922 11.9292 47.1858 11.785C47.1795 11.6407 47.1604 11.6062 47.1001 11.5247C47.0398 11.4431 47.0398 11.349 47.043 11.2267C47.0462 11.1044 47.0747 11.073 47.154 10.9758C47.2334 10.8785 47.1763 10.8408 47.2112 10.7844C47.2462 10.728 47.1826 10.6715 47.2493 10.5993C47.316 10.5272 47.4079 10.546 47.4461 10.5272C47.4842 10.5084 47.5604 10.4645 47.5477 10.3546C47.535 10.2449 47.5794 10.2323 47.6492 10.3295C47.719 10.4268 47.7794 10.6275 47.8524 10.6558C47.9254 10.6839 47.9318 10.662 47.992 10.7122C48.0523 10.7624 48.0618 10.6996 48.0682 10.6306C48.0746 10.5616 48.1286 10.5898 48.1857 10.6588C48.2428 10.7278 48.3126 10.8564 48.3158 10.7561C48.3189 10.6557 48.3856 10.5836 48.3222 10.4706C48.2586 10.3577 48.2269 10.2103 48.2142 10.1287C48.2016 10.0471 48.1539 9.89339 48.1381 9.80556C48.1277 9.74803 48.1231 9.70408 48.1343 9.66731L37.6643 9.66731C37.6648 9.74803 37.5148 9.80335 37.6756 9.88447ZM8.50716 14.9172C8.5605 14.8685 8.60969 14.7428 8.63029 14.6455C8.65081 14.5482 8.5728 14.4346 8.54413 14.3454C8.51539 14.2562 8.57695 14.2521 8.65488 14.244C8.73282 14.2359 8.66718 14.0818 8.67541 14.0331C8.68363 13.9844 8.74927 14.0372 8.76979 14.0777C8.79031 14.1183 8.87239 13.9723 8.95439 13.9114C9.03648 13.8506 8.98314 14.0047 8.96669 14.094C8.95024 14.1832 8.92972 14.2359 8.97899 14.2845C9.02825 14.3332 9.16775 14.1791 9.20057 14.1183C9.23339 14.0574 9.20464 13.7939 9.24568 13.7655C9.28672 13.737 9.31954 13.8953 9.31954 13.9763C9.31954 14.0574 9.29902 14.1507 9.17597 14.3291C9.05285 14.5075 9.04055 14.463 8.98314 14.5319C8.92565 14.6008 8.93387 14.7508 8.92573 14.8847C8.91751 15.0185 8.84772 15.0469 8.74926 15.0428C8.65081 15.0388 8.62127 15.0694 8.52769 15.0509C8.42508 15.0307 8.45375 14.9659 8.50716 14.9172ZM6.82069 14.167C6.86173 14.1062 6.96019 13.8912 6.99716 13.8101C7.03412 13.729 7.11206 13.6155 7.12843 13.5344C7.14487 13.4533 7.11206 13.3803 7.17354 13.36C7.2351 13.3397 7.26385 13.3519 7.30896 13.3397C7.35408 13.3276 7.3623 13.2586 7.44023 13.283C7.51817 13.3074 7.53461 13.3154 7.59618 13.3114C7.65774 13.3074 7.71922 13.3033 7.72745 13.352C7.73567 13.4006 7.72753 13.466 7.73567 13.5142C7.7439 13.5629 7.73974 13.648 7.71515 13.7575C7.69048 13.867 7.71922 13.9724 7.71515 14.0697C7.71108 14.167 7.66181 14.4104 7.60025 14.4712C7.53869 14.532 7.38689 14.5117 7.29251 14.4874C7.19813 14.4631 7.17354 14.3942 7.06686 14.3212C6.96019 14.2482 6.8904 14.4226 6.81654 14.3698C6.74276 14.3171 6.77965 14.2278 6.82069 14.167Z" fill="url(#paint1_linear_970_1299)"/>
<path d="M48.8173 9.75214C48.811 9.80233 48.7412 9.78039 48.7602 9.88077C48.7792 9.98114 48.8142 9.99369 48.7856 10.0784C48.757 10.163 48.7316 10.1881 48.7856 10.2979C48.8395 10.4077 48.9474 10.3418 48.9474 10.4704C48.9474 10.599 48.8966 10.6273 48.9665 10.7245C49.0364 10.8217 49.0427 10.9252 49.0427 11.0068C49.0427 11.0884 49.0777 11.1354 49.1157 11.1918C49.1538 11.2483 49.1347 11.3832 49.1633 11.4521C49.1918 11.5212 49.3569 11.6875 49.3823 11.8004C49.4076 11.9133 49.4236 12.0513 49.4553 12.1706C49.487 12.2897 49.5092 12.3556 49.5282 12.4152C49.5473 12.4748 49.5124 12.547 49.4648 12.5877C49.4172 12.6285 49.3695 12.7006 49.4362 12.7508C49.5028 12.801 49.506 12.8167 49.4553 12.87C49.4045 12.9233 49.2902 13.0111 49.3568 13.0394C49.4236 13.0676 49.5567 13.099 49.6044 13.1649C49.652 13.2307 49.6997 13.3845 49.7346 13.4347C49.7695 13.4848 49.7758 13.5036 49.7727 13.604C49.7695 13.7044 49.7917 13.7577 49.8616 13.8361C49.9314 13.9145 50.125 14.1529 50.1916 14.1999C50.2583 14.247 50.3757 14.4383 50.5725 14.5544C50.7693 14.6705 51.3533 14.9214 51.5057 15.0249C51.658 15.1284 52.0008 15.3009 52.1246 15.3857C52.2483 15.4704 52.2865 15.4797 52.4198 15.5018C52.5531 15.5237 52.6833 15.5677 52.7785 15.646C52.8737 15.7245 53.08 15.8625 53.1815 15.8938C53.2831 15.9251 53.2831 15.8781 53.3624 15.9314C53.4418 15.9848 53.483 16.0538 53.4957 16.0067C53.5084 15.9597 53.4925 15.8217 53.4577 15.7087C53.4227 15.5958 53.3847 15.5425 53.3815 15.3951C53.3783 15.2477 53.3497 15.1441 53.2989 15.0531C53.2481 14.9622 53.1149 14.7552 53.0419 14.6861C52.9689 14.6171 52.8229 14.5638 52.8038 14.4728C52.7848 14.3818 52.7308 14.2219 52.7753 14.1341C52.8197 14.0462 52.7308 14.0117 52.8038 13.9803C52.8768 13.9489 52.9181 13.9489 52.9657 13.9051C53.0133 13.8611 53.08 13.8078 52.9784 13.8078C52.8768 13.8078 52.7499 13.8172 52.7277 13.7796C52.7055 13.7419 52.6992 13.7011 52.642 13.6792C52.5848 13.6573 52.5182 13.6259 52.4548 13.5725C52.3912 13.5192 52.3372 13.4878 52.3246 13.3749C52.3119 13.262 52.2643 13.0706 52.2834 12.9954C52.3024 12.9201 52.3881 12.8573 52.4389 12.8008C52.4897 12.7444 52.5436 12.5216 52.4738 12.4621C52.404 12.4025 52.1627 12.4119 52.0961 12.3868C52.0294 12.3617 51.8739 12.3052 51.8041 12.2111C51.7343 12.1171 51.5914 11.9759 51.5946 11.8881C51.5978 11.8002 51.5248 11.7375 51.6295 11.7092C51.7343 11.681 51.8771 11.6528 51.8263 11.5399C51.7756 11.427 51.6485 11.3987 51.5882 11.3548C51.528 11.3109 51.4328 11.2639 51.3947 11.3235C51.3566 11.3831 51.3471 11.4521 51.255 11.3925C51.163 11.3329 51.0995 11.2827 51.0296 11.2357C50.9598 11.1887 50.9376 11.0914 50.8773 11.0098C50.817 10.9282 50.7408 10.8561 50.6614 10.922C50.5821 10.9879 50.4551 11.0349 50.5186 11.0945C50.5821 11.1541 50.6297 11.2074 50.5472 11.2388C50.4646 11.2702 50.4011 11.314 50.2679 11.1854C50.1346 11.0568 50.0457 10.8498 49.9696 10.7243C49.8933 10.5989 49.9219 10.5361 49.8362 10.4515C49.7505 10.3668 49.6585 10.3009 49.5854 10.2288C49.5124 10.1566 49.4299 10.0406 49.4045 9.95905C49.3791 9.87745 49.3124 9.85236 49.395 9.83673C49.4775 9.82103 49.506 9.7897 49.4965 9.72381C49.494 9.70621 49.4905 9.68617 49.489 9.66699H48.8198C48.8253 9.69508 48.821 9.72357 48.8173 9.75214Z" fill="#0059B2"/>
<path d="M12.6259 9.77352C12.6813 9.75861 12.6954 9.72704 12.676 9.66699H12.5024C12.5364 9.70905 12.5712 9.78828 12.6259 9.77352Z" fill="#0059B2"/>
<path d="M37.4543 9.7766C37.4784 9.75435 37.5013 9.70787 37.5252 9.66699H37.3857C37.3889 9.7474 37.4158 9.81211 37.4543 9.7766Z" fill="#0059B2"/>
<path d="M12.4763 9.64437C12.4851 9.64808 12.4937 9.65652 12.5023 9.66717H12.6758C12.6712 9.65289 12.6653 9.6375 12.6569 9.61975C12.6133 9.52742 12.6944 9.42894 12.6133 9.41663C12.5323 9.40432 12.4077 9.49664 12.358 9.46587C12.3081 9.43509 12.3517 9.28121 12.2895 9.3243C12.2272 9.36739 12.1736 9.46847 12.1352 9.41963C12.0775 9.3464 12.0857 9.19189 11.9539 9.27577C11.8803 9.32264 11.7757 9.22511 11.7507 9.19433C11.7258 9.16356 11.6442 9.19788 11.5695 9.25951C11.4947 9.32106 11.4342 9.24728 11.3992 9.23781C11.304 9.21209 11.2741 9.37362 11.2616 9.40432C11.2492 9.43509 11.081 9.42278 11.0561 9.47202C11.032 9.51969 10.9967 9.58487 11.0171 9.66717H12.4389C12.4447 9.64673 12.4576 9.63648 12.4763 9.64437Z" fill="white"/>
<path d="M29.6888 9.52216C29.6163 9.45453 29.5196 9.44656 29.4553 9.49824C29.3909 9.55001 29.3466 9.52215 29.3667 9.49824C29.3869 9.47441 29.2661 9.47836 29.2339 9.49027C29.2017 9.50219 29.0205 9.55396 29.1051 9.4823C29.1896 9.41065 29.3425 9.36291 29.3546 9.30728C29.3667 9.25156 29.3908 9.17999 29.3224 9.1362C29.254 9.0924 29.1574 9.10037 29.0769 9.08451C28.9964 9.06857 28.9279 8.98902 28.8716 9.09248C28.8152 9.19593 28.6743 9.3869 28.6301 9.45847C28.5886 9.52547 28.5226 9.56461 28.5076 9.66712H29.6651C29.7027 9.61251 29.726 9.55688 29.6888 9.52216Z" fill="white"/>
<path d="M50.4584 7.60342C50.3092 7.4497 50.2204 7.32115 50.2077 7.19876C50.195 7.07644 50.2299 6.92588 50.1569 6.83805C50.0839 6.75022 50.0203 6.68117 50.0171 6.59027C50.0139 6.49928 49.9759 6.48358 49.9537 6.38951C49.9315 6.29537 49.9442 6.26404 49.9029 6.18876C49.8616 6.11348 49.8838 6.08523 49.8743 5.99116C49.8648 5.8971 49.8807 5.83121 49.8585 5.72452C49.8363 5.61783 49.8775 5.60528 49.8077 5.46727C49.7379 5.32925 49.7411 5.19439 49.7379 5.10032C49.7347 5.00618 49.7125 4.96231 49.6839 4.89326C49.6553 4.82429 49.6331 4.80227 49.5633 4.7898C49.4935 4.77726 49.4204 4.71452 49.5157 4.68004C49.6109 4.64555 49.7124 4.63301 49.7727 4.53263C49.833 4.43225 49.9187 4.31617 49.9917 4.25659C50.0647 4.19701 50.0425 4.18131 49.9981 4.10919C49.9537 4.03706 49.8585 3.94292 49.8077 3.92414C49.7569 3.90536 49.6998 3.92414 49.668 3.95554C49.6363 3.98695 49.5951 3.97748 49.5665 3.943C49.5379 3.90851 49.5221 3.86771 49.43 3.91159C49.3379 3.95554 49.2841 4.06215 49.2206 4.06839C49.1571 4.0747 49.0841 4.08725 49.0269 4.03075C48.9698 3.97425 48.9159 3.85824 48.8682 3.90212C48.8206 3.94607 48.8015 3.98056 48.719 3.98056C48.6365 3.98056 48.5953 3.90212 48.5699 3.93668C48.5445 3.97117 48.5858 4.0182 48.5318 4.07786C48.4778 4.13744 48.4334 4.19394 48.3478 4.19078C48.262 4.18762 48.1826 4.13436 48.1478 4.18762C48.1128 4.24097 48.1605 4.33819 48.1256 4.40092C48.0906 4.46366 47.9764 4.517 47.9415 4.5013C47.9066 4.4856 47.9764 4.33819 48.0113 4.2723C48.0462 4.20641 48.1096 4.16561 48.189 4.059C48.2684 3.95231 48.3255 3.89589 48.3414 3.78296C48.3573 3.67004 48.3033 3.66065 48.281 3.57905C48.2588 3.49754 48.2874 3.45358 48.2271 3.39085C48.1667 3.32811 48.1603 3.32811 48.116 3.22458C48.0716 3.12105 47.9954 3.04269 47.9287 3.00189C47.862 2.96109 47.7954 2.93292 47.7383 2.97995C47.6811 3.02698 47.5161 3.09919 47.4622 3.02698C47.4082 2.95486 47.3828 2.92976 47.3955 2.88581C47.4082 2.84186 47.3415 2.81992 47.3129 2.78228C47.2843 2.74464 47.3002 2.72585 47.351 2.71638C47.4017 2.70699 47.3478 2.63479 47.424 2.61601C47.5001 2.59715 47.4938 2.62856 47.5478 2.70068C47.6017 2.77281 47.6588 2.8136 47.7128 2.77596C47.7668 2.73832 47.7635 2.61285 47.8429 2.66612C47.9222 2.71946 47.992 2.79474 48.008 2.70692C48.0238 2.61909 48.0175 2.55635 48.0492 2.46852C48.081 2.38069 47.9127 2.25838 48.0396 2.17678C48.1667 2.09527 48.2269 1.98858 48.3444 2.00744C48.4619 2.0263 48.5284 2.07017 48.6269 2.02314C48.7253 1.97611 48.719 1.95102 48.7666 1.83809C48.8142 1.72517 48.8428 1.67182 48.9317 1.62479C49.0206 1.57776 49.0998 1.58084 49.1697 1.52757C49.2396 1.47423 49.1951 1.43343 49.2459 1.38016C49.2967 1.32682 49.3411 1.33629 49.3125 1.27979C49.2839 1.22329 49.2427 1.22021 49.2268 1.15747C49.2109 1.09474 49.2553 1.00691 49.2077 0.994362C49.1601 0.981815 49.1538 1.03516 49.0618 1.0885C48.9697 1.14185 48.8999 1.18257 48.8555 1.10421C48.811 1.02577 48.8365 0.950487 48.7666 0.894064C48.6968 0.837563 48.6238 0.881517 48.5729 0.894064C48.5222 0.906612 48.5412 0.821939 48.4397 0.85011C48.3381 0.878361 48.2809 0.84072 48.3508 0.777985C48.4206 0.71525 48.465 0.639967 48.4587 0.561529C48.4523 0.48309 48.4301 0.4737 48.3984 0.414121C48.3666 0.354542 48.4524 0.294963 48.3634 0.272947C48.2745 0.251009 48.1381 0.301197 48.1412 0.222758C48.1444 0.14432 48.2681 0.00630222 48.1318 6.81496e-05C47.9952 -0.00616592 47.627 0.417277 47.4969 0.457996C47.3668 0.498794 47.3382 0.464309 47.2938 0.567763C47.2493 0.671296 47.1636 0.740265 47.2208 0.777906C47.2779 0.815547 47.3762 0.850032 47.2906 0.903376C47.2049 0.956721 47.062 0.966111 47.0874 1.07272C47.1128 1.17933 47.1414 1.18565 47.2525 1.1888C47.3636 1.19196 47.589 1.22329 47.6365 1.24838C47.6841 1.27347 47.7126 1.32051 47.5636 1.35815C47.4144 1.39579 47.3731 1.45229 47.3065 1.4272C47.2399 1.4021 47.1605 1.39587 47.062 1.39271C46.9637 1.38955 46.9129 1.27979 46.8145 1.32682C46.7161 1.37385 46.7605 1.43035 46.6717 1.43035C46.5828 1.43035 46.4714 1.46886 46.3987 1.53389C46.1855 1.72454 46.1252 1.92347 45.9924 1.95133C45.8595 1.97919 45.8072 2.06275 45.7549 2.1423C45.7026 2.22184 45.6583 2.06276 45.5174 2.15027C45.3765 2.23778 45.3443 2.27361 45.304 2.35718C45.2638 2.44074 45.2678 2.48446 45.151 2.48446C45.0343 2.48446 44.9337 2.62769 44.8813 2.67937C44.829 2.73106 44.6921 2.90214 44.6116 2.95786C44.5311 3.01357 44.3781 3.16469 44.3097 3.17266C44.2412 3.18063 44.2412 3.39148 44.1809 3.48302C44.1205 3.57448 44.0963 3.65804 44.048 3.7297C43.9997 3.80127 43.9152 3.87292 43.9756 3.89675C44.0359 3.92066 43.9957 3.97235 43.9273 4.01212C43.8588 4.0519 43.73 4.23892 43.6977 4.28271C43.6655 4.32651 43.5165 4.40203 43.5528 4.46571C43.589 4.52939 43.7018 4.5612 43.738 4.64074C43.7742 4.72028 43.7903 4.74025 43.8426 4.72825C43.8949 4.71634 43.8869 4.67254 43.9955 4.67254C44.1042 4.67254 44.2451 4.66062 44.3578 4.76408C44.4705 4.86753 44.4383 4.89539 44.4262 4.99482C44.4142 5.09425 44.4302 5.1659 44.3377 5.1659C44.2452 5.1659 44.1243 5.13804 44.0358 5.1977C43.9472 5.25736 43.9513 5.34487 43.8788 5.34487C43.8064 5.34487 43.758 5.28119 43.6735 5.26927C43.589 5.25736 43.5367 5.22548 43.5769 5.18176C43.6171 5.13804 43.7541 5.06639 43.75 5.0226C43.746 4.9788 43.6977 4.91117 43.6131 4.89531C43.5286 4.87937 43.4441 4.92317 43.3957 4.97888C43.3474 5.03459 43.2669 5.09819 43.3555 5.20962C43.444 5.32104 43.5165 5.36081 43.5165 5.49607C43.5165 5.63132 43.4078 5.72286 43.3314 5.82229C43.2549 5.92172 43.2509 6.00134 43.1985 6.05706C43.1462 6.11277 43.0254 6.1048 42.9771 6.2122C42.9288 6.3196 42.8966 6.48271 42.8483 6.55034C42.8001 6.61796 42.7074 6.68954 42.7396 6.76514C42.7718 6.84073 42.804 6.85265 42.7195 6.90442C42.6349 6.9561 42.4498 7.09933 42.3652 7.09933C42.2806 7.09933 42.3048 7.10327 42.2162 6.99587C42.1277 6.88847 42.1478 6.83671 42.031 6.82085C41.9143 6.80491 41.7332 6.73728 41.6205 6.79694C41.5077 6.85659 41.2944 6.9561 41.2219 7.04362C41.1494 7.13113 40.9763 7.31018 40.916 7.43747C40.8556 7.56475 40.7791 7.8632 40.7187 7.9706C40.6584 8.078 40.5698 8.16954 40.4812 8.21728C40.3926 8.26502 40.3483 8.26502 40.3605 8.20931C40.3725 8.1536 40.3041 8.13371 40.2396 8.13371C40.1752 8.13371 40.147 8.05014 40.0665 8.10585C39.986 8.16157 39.9619 8.17348 39.9458 8.26502C39.9297 8.35656 39.9176 8.50767 39.9056 8.39633C39.8935 8.28491 39.9337 8.19739 39.8693 8.20536C39.8049 8.21333 39.8129 8.30085 39.7686 8.32073C39.7244 8.34062 39.668 8.24916 39.6116 8.29288C39.5553 8.33667 39.5351 8.45196 39.4667 8.38836C39.3983 8.32468 39.4265 8.26107 39.4828 8.22122C39.5391 8.18145 39.5754 8.13766 39.5391 8.10191C39.5029 8.06608 39.3942 8.06214 39.2976 8.07011C39.201 8.07808 38.9433 8.20536 38.895 8.28491C38.8467 8.36445 38.7621 8.42813 38.7944 8.51565C38.8266 8.60316 38.8789 8.78616 38.8829 8.86175C38.8869 8.93735 38.8668 9.10046 38.7985 9.10843C38.73 9.1164 38.6616 9.04475 38.718 8.97712C38.7743 8.9095 38.7904 8.84187 38.7622 8.81401C38.734 8.78616 38.6213 8.7583 38.6576 8.73044C38.6938 8.70259 38.7743 8.70653 38.7743 8.6509C38.7743 8.62036 38.7018 8.52362 38.565 8.68673C38.4934 8.77195 38.4684 8.97318 38.3677 8.92938C38.1386 8.82972 38.6307 8.60805 38.6615 8.49173C38.6868 8.39625 38.447 8.48013 38.3999 8.51959C38.2952 8.60711 37.9611 8.80604 37.8483 8.88961C37.7357 8.97318 37.7397 9.02487 37.635 9.02881C37.5303 9.03284 37.3572 9.00096 37.3935 9.10441C37.4297 9.20786 37.6149 9.18798 37.5745 9.29538C37.5343 9.40278 37.4498 9.41872 37.4055 9.53014C37.3895 9.57054 37.3836 9.62136 37.3853 9.66721H37.5247C37.5606 9.6059 37.5987 9.55721 37.647 9.62168C37.6592 9.63786 37.6639 9.65293 37.664 9.66721L48.1339 9.66721C48.1398 9.6478 48.1499 9.63036 48.1663 9.61418C48.2138 9.56715 48.29 9.54206 48.2488 9.46993C48.2075 9.39781 48.1599 9.45738 48.0965 9.42913C48.033 9.40088 47.9631 9.36955 47.906 9.28796C47.8489 9.20644 47.7568 9.16564 47.6997 9.09344C47.6426 9.02131 47.6457 9.02755 47.6997 8.93033C47.7537 8.83311 47.7473 8.79547 47.7505 8.74528C47.7537 8.69509 47.7854 8.70764 47.8806 8.66368C47.9758 8.61981 48.0298 8.50996 48.0679 8.557C48.106 8.60403 48.0393 8.67931 48.0107 8.71695C47.9822 8.75459 47.9186 8.82672 47.9854 8.90831C48.052 8.98983 48.1282 9.04317 48.2139 9.10591C48.2996 9.16864 48.3853 9.24708 48.4393 9.31297C48.4932 9.37887 48.5503 9.35685 48.6011 9.37571C48.6519 9.39457 48.6202 9.43529 48.6551 9.51065C48.6901 9.58593 48.7376 9.55768 48.7852 9.60471C48.8058 9.62499 48.8153 9.64598 48.8195 9.66721H49.4887C49.4842 9.61466 49.4933 9.56865 49.5725 9.59856C49.6803 9.63935 49.7819 9.59856 49.7343 9.52328C49.6867 9.44799 49.5788 9.39149 49.5597 9.24408C49.5407 9.09668 49.4391 8.90847 49.5217 8.93356C49.6042 8.95866 49.6645 9.06527 49.801 9.128C49.9375 9.19074 49.9946 9.19074 49.9501 9.04957C49.9058 8.90839 49.7184 8.73905 49.7597 8.53514C49.801 8.33123 49.8422 8.0709 49.9375 7.97991C50.0326 7.88892 50.1247 7.8168 50.2485 7.82619C50.3723 7.83558 50.5087 7.86067 50.55 7.77916C50.5917 7.69756 50.6075 7.75714 50.4584 7.60342Z" fill="white"/>
<path d="M30.7557 9.65779C30.7597 9.60602 30.8 9.44299 30.7074 9.47085C30.6148 9.4987 30.6148 9.59419 30.5705 9.56231C30.5263 9.53051 30.5342 9.43897 30.4417 9.45885C30.3492 9.47874 30.3008 9.55434 30.2203 9.57817C30.1398 9.60208 30.0472 9.58614 29.9747 9.62196C29.9524 9.63301 29.9299 9.64903 29.9097 9.6675H30.7561C30.7556 9.66434 30.7554 9.66103 30.7557 9.65779Z" fill="white"/>
<defs>
<linearGradient id="paint0_linear_970_1299" x1="3.03117" y1="8.74926" x2="38.1379" y2="35.3916" gradientUnits="userSpaceOnUse">
<stop stop-color="#D90000"/>
<stop offset="0.1586" stop-color="#ED3D3D"/>
<stop offset="0.2903" stop-color="#FE7272"/>
<stop offset="1" stop-color="#D90000"/>
</linearGradient>
<linearGradient id="paint1_linear_970_1299" x1="2.55549" y1="15.5002" x2="48.3494" y2="15.5002" gradientUnits="userSpaceOnUse">
<stop stop-color="#263C7D"/>
<stop offset="0.0322" stop-color="#244081"/>
<stop offset="0.2299" stop-color="#1B5598"/>
<stop offset="0.4436" stop-color="#1564A8"/>
<stop offset="0.6828" stop-color="#116CB2"/>
<stop offset="1" stop-color="#106FB5"/>
</linearGradient>
</defs>
</svg>
