<svg width="36" height="36" viewBox="0 0 36 36" fill="none" xmlns="http://www.w3.org/2000/svg">
<g clip-path="url(#clip0_662_4054)">
<path d="M18 36C27.9412 36 36 27.9412 36 18C36 8.05875 27.9412 0 18 0C8.05875 0 0 8.05875 0 18C0 27.9412 8.05875 36 18 36Z" fill="#D6001C"/>
<path d="M10.2375 9.87674V15.9997C11.1697 14.8882 12.2872 14.3287 13.5832 14.3287C14.2507 14.3287 14.8485 14.4562 15.3847 14.709C15.9225 14.9602 16.3245 15.2827 16.596 15.6742C16.869 16.0695 17.0535 16.5022 17.1532 16.9792C17.2522 17.454 17.3017 18.1927 17.3017 19.1947V25.7415H14.4052V19.845C14.4052 18.675 14.3527 17.934 14.2425 17.619C14.1392 17.3104 13.9343 17.046 13.6612 16.869C13.3822 16.6807 13.035 16.5877 12.6157 16.5877C12.1357 16.5877 11.7052 16.7077 11.331 16.9462C10.9485 17.1862 10.674 17.5447 10.5 18.024C10.323 18.504 10.2345 19.2127 10.2375 20.151L10.2345 25.7415H7.34174V9.87674H10.2382M21.6427 9.87674V15.9997C22.5757 14.8882 23.6925 14.3287 24.9877 14.3287C25.653 14.3287 26.2552 14.4562 26.7922 14.709C27.3277 14.9602 27.7297 15.2827 27.9997 15.6742C28.2722 16.0669 28.4618 16.5109 28.557 16.9792C28.6567 17.454 28.7062 18.1927 28.7062 19.1947V25.7415H25.8127V19.845C25.8127 18.675 25.758 17.934 25.6477 17.619C25.5444 17.31 25.3389 17.0454 25.065 16.869C24.789 16.6807 24.4387 16.5877 24.0195 16.5877C23.5402 16.5877 23.1097 16.7077 22.7347 16.9462C22.3575 17.1862 22.0815 17.5447 21.9052 18.024C21.7312 18.504 21.6427 19.2127 21.6427 20.151V25.7415H18.75V9.87674H21.6427Z" fill="#FEFEFE"/>
</g>
<defs>
<clipPath id="clip0_662_4054">
<rect width="36" height="36" fill="white"/>
</clipPath>
</defs>
</svg>
