<svg width="86" height="86" viewBox="0 0 86 86" fill="none" xmlns="http://www.w3.org/2000/svg">
<g id="local-seo 1" clip-path="url(#clip0_172_10450)">
<g id="Group">
<g id="Group_2">
<path id="Vector" d="M38.2302 57.9883H28.1161C27.2449 57.9883 26.492 57.3796 26.3095 56.5277L25.6918 53.6447C23.514 52.8253 21.5088 51.6672 19.7083 50.1882L16.9065 51.0936C16.0777 51.361 15.1749 51.0141 14.739 50.2605L9.62999 41.4267C9.19344 40.6721 9.34394 39.715 9.99078 39.1306L12.1831 37.1503C11.9956 36.0058 11.9009 34.8486 11.9009 33.6974C11.9009 32.5461 11.9956 31.3889 12.1831 30.2443L9.99078 28.264C9.34377 27.6796 9.19344 26.7226 9.62999 25.9679L14.739 17.1342C15.1747 16.3805 16.0779 16.033 16.9065 16.3012L19.7083 17.2066C21.5088 15.7278 23.5138 14.5695 25.6918 13.7501L26.3095 10.8671C26.4919 10.0152 27.2449 9.40649 28.1161 9.40649H38.3201C39.1914 9.40649 39.9442 10.0152 40.1268 10.8671L40.7444 13.7501C42.9222 14.5693 44.9276 15.7278 46.728 17.2066L49.5297 16.3012C50.3585 16.033 51.2615 16.3805 51.6973 17.1342L56.8064 25.9679C57.243 26.7226 57.0924 27.6796 56.4456 28.264L54.2531 30.2445C54.4406 31.389 54.5355 32.5461 54.5355 33.6976C54.5355 34.2599 54.5126 34.8312 54.4676 35.3949L50.7841 35.1008C50.8214 34.6343 50.8402 34.1622 50.8402 33.6976C50.8402 32.4492 50.7052 31.1915 50.4389 29.9589C50.2994 29.3126 50.5157 28.6409 51.0063 28.1978L52.8592 26.5242L49.2457 20.2765L46.8755 21.0424C46.2453 21.2462 45.555 21.0972 45.0648 20.6517C43.1849 18.9435 41.0072 17.6856 38.5926 16.9131C37.962 16.7114 37.4877 16.1877 37.3489 15.5403L36.8265 13.1019H29.6102L29.0878 15.5403C28.9491 16.1877 28.4747 16.7114 27.8442 16.9131C25.4296 17.6856 23.252 18.9435 21.3719 20.6517C20.8819 21.0967 20.1911 21.2458 19.5612 21.0424L17.1909 20.2763L13.5775 26.5239L15.4304 28.1975C15.921 28.6407 16.1374 29.3124 15.9978 29.9588C15.7316 31.1913 15.5965 32.4492 15.5965 33.6974C15.5965 34.9456 15.7316 36.2035 15.9978 37.436C16.1374 38.0823 15.921 38.754 15.4302 39.1971L13.5775 40.8706L17.1909 47.1183L19.5612 46.3522C20.1913 46.1491 20.8819 46.2976 21.3719 46.7429C23.252 48.4511 25.4295 49.7092 27.8442 50.4815C28.4747 50.6832 28.9492 51.207 29.0878 51.8543L29.6102 54.2927H38.2306V57.9883H38.2302Z" fill="#C10B19"/>
</g>
<g id="Group_3">
<path id="Vector_2" d="M53.3781 40.9403C47.7283 40.9403 43.1321 45.5367 43.1321 51.1865C43.1321 56.836 47.7283 61.4325 53.3781 61.4325C59.0278 61.4325 63.6241 56.8362 63.6241 51.1865C63.6241 45.5367 59.0276 40.9403 53.3781 40.9403ZM53.3781 57.737C49.7659 57.737 46.8274 54.7984 46.8274 51.1863C46.8274 47.5742 49.7659 44.6356 53.3781 44.6356C56.9902 44.6356 59.9288 47.5743 59.9288 51.1863C59.9288 54.7984 56.99 57.737 53.3781 57.737Z" fill="white"/>
<path id="Vector_3" d="M83.7445 71.8293L69.3758 58.7786C70.4728 56.4763 71.0879 53.902 71.0879 51.1865C71.0879 46.325 69.1185 41.915 65.936 38.7115C66.239 36.8978 66.3935 35.0473 66.3935 33.1972C66.3935 14.8923 51.5016 0.000335693 33.1969 0.000335693C14.892 0.000335693 0 14.8925 0 33.1972C0 40.7873 2.62768 48.2037 7.40029 54.0903C7.40886 54.1017 7.41743 54.113 7.42616 54.1244L31.7399 85.2885C32.0899 85.7371 32.6273 85.9995 33.1964 85.9995C33.7654 85.9995 34.3029 85.7373 34.653 85.2888L48.0801 68.0866C49.7535 68.6124 51.533 68.8962 53.3776 68.8962C56.0931 68.8962 58.6674 68.2812 60.9697 67.1842L74.0206 81.5529C75.299 82.9603 77.0499 83.7607 78.9509 83.8064C79.0082 83.8077 79.065 83.8085 79.1221 83.8084C80.9588 83.8084 82.6796 83.0962 83.9834 81.7923C85.328 80.4478 86.0433 78.6603 85.9975 76.7596C85.9523 74.8586 85.1521 73.1077 83.7445 71.8293ZM33.1972 81.1488L10.3901 51.9159C10.3669 51.8835 10.3427 51.8516 10.3174 51.8205C6.04698 46.581 3.69528 39.9671 3.69528 33.1972C3.69528 16.9299 16.9296 3.69561 33.1969 3.69561C49.464 3.69561 62.6983 16.9299 62.6983 33.1972C62.6983 34.1499 62.6524 35.1026 62.5617 36.0486C59.8823 34.417 56.7379 33.4765 53.3781 33.4765C50.6678 33.4765 48.0982 34.0893 45.7994 35.1824C45.8565 34.695 45.8893 34.2001 45.8893 33.6976C45.8893 26.7106 40.2051 21.0265 33.2182 21.0265C26.2313 21.0265 20.5471 26.7108 20.5471 33.6976C20.5471 40.6843 26.2314 46.3687 33.2182 46.3687C34.3384 46.3687 35.4244 46.2208 36.4596 45.9467C35.9455 47.6034 35.6683 49.3632 35.6683 51.1865C35.6683 57.7546 39.2626 63.499 44.5874 66.5563L33.1972 81.1488ZM33.2182 42.6734C28.2689 42.6734 24.2424 38.6469 24.2424 33.6976C24.2424 28.7482 28.2689 24.7217 33.2182 24.7217C38.1675 24.7217 42.194 28.7482 42.194 33.6976C42.194 38.6467 38.1673 42.6734 33.2182 42.6734ZM53.3781 65.201C45.6504 65.201 39.3636 58.9141 39.3636 51.1865C39.3636 43.4588 45.6504 37.1718 53.3781 37.1718C61.1058 37.1718 67.3928 43.4588 67.3928 51.1865C67.3926 58.9141 61.1056 65.201 53.3781 65.201ZM81.3708 79.1794C80.7482 79.8022 79.9241 80.1348 79.0399 80.1121C78.1596 80.0911 77.3487 79.7202 76.7564 79.0683L64.1737 65.2151C65.3851 64.2807 66.4723 63.1934 67.4067 61.982L81.2601 74.5646C81.912 75.1567 82.2827 75.9677 82.3039 76.8481C82.3251 77.7286 81.9937 78.5565 81.3708 79.1794Z" fill="white"/>
</g>
</g>
</g>
<defs>
<clipPath id="clip0_172_10450">
<rect width="86" height="86" fill="white"/>
</clipPath>
</defs>
</svg>
