<svg width="309" height="49" viewBox="0 0 309 49" fill="none" xmlns="http://www.w3.org/2000/svg">
<g clip-path="url(#clip0_953_1454)">
<path d="M254.091 17.8237L247.544 26.7255L252.381 31.2762L262.25 17.8237L252.459 4.47095H244.3L254.091 17.8237Z" fill="#C10B19"/>
<path d="M283.995 10.1593L286.02 12.9536L288.202 15.9276L296.597 4.47095H288.163L283.995 10.1593Z" fill="white"/>
<path d="M286.02 22.6736L283.995 25.4679L288.241 31.2761H289.559H295.358H296.676L288.202 19.6997L286.02 22.6736Z" fill="white"/>
<path d="M277.743 17.8237L267.873 31.2762H269.19H275.01H276.327L282.618 22.6738L286.177 17.8237L282.618 12.9536L276.406 4.47095H267.971L277.743 17.8237Z" fill="white"/>
<path d="M1.84811 47.4033C1.39592 47.1439 1.04204 46.8046 0.786451 46.3655C0.530865 45.9264 0.412903 45.4274 0.412903 44.8885C0.412903 44.3496 0.530865 43.8506 0.786451 43.4115C1.04204 42.9724 1.39592 42.6331 1.84811 42.3736C2.3003 42.1141 2.79181 41.9944 3.36196 41.9944C3.79449 41.9944 4.1877 42.0742 4.56125 42.2139C4.91514 42.3537 5.2297 42.5732 5.48529 42.8726L4.97412 43.3716C4.56125 42.9325 4.03042 42.693 3.40129 42.693C2.98842 42.693 2.61487 42.7928 2.28064 42.9724C1.94641 43.152 1.69083 43.4115 1.49423 43.7508C1.29762 44.0901 1.21898 44.4494 1.21898 44.8685C1.21898 45.2677 1.31728 45.6469 1.49423 45.9663C1.69083 46.3056 1.94641 46.5651 2.28064 46.7447C2.61487 46.9243 2.98842 47.0241 3.40129 47.0241C4.03042 47.0241 4.54159 46.8046 4.97412 46.3455L5.48529 46.8445C5.2297 47.1439 4.91514 47.3634 4.56125 47.5031C4.20736 47.6628 3.79449 47.7227 3.36196 47.7227C2.79181 47.7826 2.3003 47.6628 1.84811 47.4033Z" fill="white"/>
<path d="M13.7426 42.0742V47.7227H12.9562V42.7728H9.73191V47.7227H8.9455V42.0742H13.7426Z" fill="white"/>
<path d="M21.8821 47.0241V47.7227H17.8517V42.0742H21.7641V42.7728H18.6381V44.5092H21.4299V45.1879H18.6381V47.0241H21.8821Z" fill="white"/>
<path d="M31.0438 47.0241V49.0001H30.2967V47.7227H25.5192V42.0742H26.3056V47.0241H29.3923V42.0742H30.1787V47.0241H31.0438Z" fill="white"/>
<path d="M34.4843 42.0742H35.2707V46.4253L38.554 42.0742H39.2815V47.7227H38.495V43.3716L35.2118 47.7227H34.4843V42.0742Z" fill="white"/>
<path d="M47.0081 46.3056H44.059L43.4495 47.7227H42.6238L45.1403 42.0742H45.9267L48.4433 47.7227H47.6175L47.0081 46.3056ZM46.7328 45.6669L45.5335 42.8925L44.3342 45.6669H46.7328Z" fill="white"/>
<path d="M56.3664 42.0742V47.7227H55.58V42.7728H53.1225L53.0635 44.4294C53.0438 45.2078 52.9652 45.8465 52.8669 46.3255C52.7686 46.8046 52.6113 47.1638 52.395 47.4233C52.1788 47.6628 51.9035 47.7826 51.53 47.7826C51.3727 47.7826 51.1957 47.7626 51.0385 47.7227L51.0974 47.0042C51.1761 47.0241 51.2744 47.0441 51.353 47.0441C51.5889 47.0441 51.7659 46.9443 51.9035 46.7646C52.0411 46.585 52.1394 46.3056 52.2181 45.9264C52.2771 45.5471 52.336 45.0681 52.3557 44.4693L52.4343 42.0942H56.3664V42.0742Z" fill="white"/>
<path d="M60.4755 42.0742H61.2619V46.4253L64.5452 42.0742H65.2726V47.7227H64.5058V43.3716L61.2029 47.7227H60.4755V42.0742Z" fill="white"/>
<path d="M72.8615 45.2875C73.0581 45.527 73.1564 45.8064 73.1564 46.1457C73.1564 46.485 73.0581 46.7645 72.8419 47.0239C72.6256 47.2834 72.3504 47.463 72.0161 47.6028C71.6622 47.7425 71.2887 47.8023 70.8758 47.8023C70.5023 47.8023 70.1287 47.7425 69.7748 47.6227C69.4013 47.503 69.0671 47.3433 68.7722 47.1237L69.0474 46.525C69.2833 46.7245 69.5586 46.8643 69.8731 46.9641C70.168 47.0639 70.4826 47.1038 70.7775 47.1038C71.2297 47.1038 71.6033 47.004 71.8982 46.8243C72.1931 46.6248 72.3504 46.3653 72.3504 46.0459C72.3504 45.7665 72.2324 45.5469 72.0161 45.3873C71.7802 45.2276 71.4656 45.1478 71.0528 45.1478H69.8142V44.4891H70.9938C71.3477 44.4891 71.6229 44.4093 71.8195 44.2696C72.0161 44.1298 72.1144 43.9103 72.1144 43.6508C72.1144 43.3514 71.9768 43.1119 71.7212 42.9522C71.4656 42.7726 71.1314 42.6928 70.7382 42.6928C70.4826 42.6928 70.2074 42.7327 69.9518 42.8125C69.6765 42.8924 69.4406 42.9922 69.185 43.1518L68.9294 42.4932C69.2047 42.3335 69.4996 42.2138 69.8142 42.1339C70.1287 42.0541 70.4433 42.0142 70.7579 42.0142C71.1511 42.0142 71.505 42.074 71.8392 42.1938C72.1734 42.3135 72.429 42.4932 72.6256 42.7327C72.8222 42.9722 72.9205 43.2516 72.9205 43.571C72.9205 43.8504 72.8419 44.1099 72.6846 44.3294C72.5273 44.549 72.311 44.7087 72.0358 44.8085C72.4093 44.8683 72.6649 45.048 72.8615 45.2875Z" fill="white"/>
<path d="M76.8722 42.0742H77.6586V46.4253L80.9419 42.0742H81.6693V47.7227H80.9026V43.3716L77.5996 47.7227H76.8722V42.0742Z" fill="white"/>
<path d="M89.6515 42.5931C90.0643 42.9324 90.261 43.4314 90.261 44.0302C90.261 44.6489 90.0643 45.1279 89.6515 45.4672C89.2386 45.8065 88.6685 45.9862 87.9607 45.9862H86.5845V47.7027H85.798V42.0542H87.9607C88.6685 42.0742 89.2386 42.2538 89.6515 42.5931ZM89.0813 44.9882C89.3369 44.7687 89.4745 44.4493 89.4745 44.0501C89.4745 43.6509 89.3369 43.3316 89.0813 43.112C88.8257 42.8925 88.4325 42.7927 87.9214 42.7927H86.5648V45.3076H87.9214C88.4325 45.3076 88.8257 45.2078 89.0813 44.9882Z" fill="white"/>
<path d="M94.8221 47.4033C94.3699 47.1439 94.016 46.8046 93.7605 46.3655C93.5049 45.9264 93.3672 45.4274 93.3672 44.8885C93.3672 44.3496 93.5049 43.8506 93.7605 43.4115C94.016 42.9724 94.3699 42.6331 94.8221 42.3736C95.2743 42.1141 95.7855 41.9944 96.336 41.9944C96.8865 41.9944 97.3976 42.1141 97.8498 42.3736C98.302 42.6331 98.6559 42.9724 98.9115 43.4115C99.1671 43.8506 99.285 44.3496 99.285 44.8885C99.285 45.4274 99.1671 45.9264 98.9115 46.3655C98.6559 46.8046 98.302 47.1439 97.8498 47.4033C97.3976 47.6628 96.9061 47.7826 96.336 47.7826C95.7855 47.7826 95.2743 47.6628 94.8221 47.4033ZM97.437 46.7846C97.7712 46.605 98.0268 46.3455 98.2037 46.0062C98.4003 45.6669 98.479 45.3076 98.479 44.9084C98.479 44.4893 98.3807 44.13 98.2037 43.7907C98.0071 43.4514 97.7515 43.1919 97.437 43.0123C97.1027 42.8327 96.7488 42.7329 96.336 42.7329C95.9231 42.7329 95.5496 42.8327 95.235 43.0123C94.9008 43.1919 94.6452 43.4514 94.4486 43.7907C94.252 44.13 94.1733 44.4893 94.1733 44.9084C94.1733 45.3076 94.2716 45.6869 94.4486 46.0062C94.6452 46.3455 94.9008 46.605 95.235 46.7846C95.5692 46.9642 95.9428 47.064 96.336 47.064C96.7488 47.064 97.1224 46.9642 97.437 46.7846Z" fill="white"/>
<path d="M107.267 45.2877C107.464 45.5272 107.562 45.8266 107.562 46.1858C107.562 46.6648 107.385 47.0441 107.031 47.3235C106.677 47.583 106.166 47.7227 105.498 47.7227H102.962V42.0742H105.36C105.97 42.0742 106.442 42.194 106.795 42.4534C107.13 42.7129 107.307 43.0522 107.307 43.5312C107.307 43.8306 107.228 44.0901 107.071 44.3097C106.913 44.5292 106.697 44.6889 106.422 44.7887C106.795 44.8885 107.071 45.0481 107.267 45.2877ZM103.748 44.5691H105.301C105.694 44.5691 105.989 44.4893 106.186 44.3296C106.383 44.1699 106.5 43.9504 106.5 43.651C106.5 43.3516 106.402 43.1121 106.186 42.9524C105.97 42.7928 105.694 42.7129 105.301 42.7129H103.748V44.5691ZM106.756 46.106C106.756 45.7866 106.658 45.5471 106.442 45.3875C106.225 45.2278 105.911 45.1479 105.478 45.1479H103.748V47.064H105.478C106.324 47.084 106.756 46.7646 106.756 46.106Z" fill="white"/>
<path d="M114.876 46.3056H111.927L111.317 47.7227H110.492L113.008 42.0742H113.794L116.311 47.7227H115.485L114.876 46.3056ZM114.601 45.6669L113.401 42.8925L112.202 45.6669H114.601Z" fill="white"/>
<path d="M124.45 42.0742V47.7227H123.664V45.2078H120.459V47.7227H119.673V42.0742H120.459V44.5092H123.664V42.0742H124.45Z" fill="white"/>
<path d="M133.337 42.0742V47.7227H132.55V45.2078H129.365V47.7227H128.559V42.0742H129.365V44.5092H132.55V42.0742H133.337Z" fill="white"/>
<path d="M141.417 44.4893C141.771 44.7887 141.948 45.2278 141.948 45.8266C141.948 46.4453 141.752 46.9044 141.378 47.2437C141.004 47.563 140.454 47.7227 139.746 47.7227H137.446V42.0742H138.232V44.0502H139.884C140.552 44.0502 141.063 44.1899 141.417 44.4893ZM140.788 46.7646C141.044 46.5451 141.162 46.2457 141.162 45.8465C141.162 45.0681 140.69 44.6889 139.727 44.6889H138.252V47.084H139.727C140.179 47.084 140.533 46.9842 140.788 46.7646ZM142.833 42.0742H143.619V47.7227H142.833V42.0742Z" fill="white"/>
<path d="M151.759 47.0241V47.7227H147.728V42.0742H151.641V42.7728H148.515V44.5092H151.307V45.1879H148.515V47.0241H151.759Z" fill="white"/>
<path d="M163.378 45.2875C163.575 45.527 163.673 45.8064 163.673 46.1457C163.673 46.485 163.575 46.7645 163.358 47.0239C163.142 47.2834 162.867 47.463 162.533 47.6028C162.179 47.7425 161.805 47.8023 161.392 47.8023C161.019 47.8023 160.645 47.7425 160.291 47.6227C159.918 47.503 159.584 47.3433 159.289 47.1237L159.564 46.525C159.8 46.7245 160.075 46.8643 160.39 46.9641C160.685 47.0639 160.999 47.1038 161.294 47.1038C161.746 47.1038 162.12 47.004 162.415 46.8243C162.71 46.6248 162.867 46.3653 162.867 46.0459C162.867 45.7665 162.749 45.5469 162.533 45.3873C162.297 45.2276 161.982 45.1478 161.569 45.1478H160.331V44.4891H161.51C161.864 44.4891 162.139 44.4093 162.336 44.2696C162.533 44.1298 162.631 43.9103 162.631 43.6508C162.631 43.3514 162.493 43.1119 162.238 42.9522C161.982 42.7726 161.648 42.6928 161.255 42.6928C160.999 42.6928 160.724 42.7327 160.468 42.8125C160.193 42.8924 159.957 42.9922 159.702 43.1518L159.446 42.4932C159.721 42.3335 160.016 42.2138 160.331 42.1339C160.645 42.0541 160.96 42.0142 161.274 42.0142C161.668 42.0142 162.021 42.074 162.356 42.1938C162.69 42.3135 162.946 42.4932 163.142 42.7327C163.339 42.9722 163.437 43.2516 163.437 43.571C163.437 43.8504 163.358 44.1099 163.201 44.3294C163.044 44.549 162.828 44.7087 162.552 44.8085C162.906 44.8683 163.181 45.048 163.378 45.2875Z" fill="white"/>
<path d="M170.987 46.3056H168.038L167.428 47.7227H166.602L169.119 42.0742H169.905L172.422 47.7227H171.596L170.987 46.3056ZM170.711 45.6669L169.512 42.8925L168.313 45.6669H170.711Z" fill="white"/>
<path d="M182.744 42.0742V47.7227H175.784V42.0742H176.57V47.0241H178.89V42.0742H179.677V47.0241H181.996V42.0742H182.744ZM183.589 47.0241V48.9602H182.842V47.7227H181.937V47.0241H183.589Z" fill="white"/>
<path d="M187.069 42.0742H187.836V46.4253L191.139 42.0742H191.866V47.7227H191.08V43.3716L187.796 47.7227H187.069V42.0742Z" fill="white"/>
<path d="M199.789 42.7728H197.882V47.7227H197.115V42.7728H195.208V42.0742H199.789V42.7728Z" fill="white"/>
<path d="M207.928 42.0742V47.7227H207.142V45.2078H203.937V47.7227H203.151V42.0742H203.937V44.5092H207.142V42.0742H207.928Z" fill="white"/>
<path d="M215.989 44.4893C216.343 44.7887 216.52 45.2278 216.52 45.8266C216.52 46.4453 216.323 46.9044 215.95 47.2437C215.576 47.563 215.026 47.7227 214.318 47.7227H212.018V42.0742H212.804V44.0502H214.456C215.144 44.0502 215.635 44.1899 215.989 44.4893ZM215.36 46.7646C215.616 46.5451 215.734 46.2457 215.734 45.8465C215.734 45.0681 215.262 44.6889 214.298 44.6889H212.824V47.084H214.298C214.77 47.084 215.124 46.9842 215.36 46.7646ZM217.405 42.0742H218.191V47.7227H217.405V42.0742Z" fill="white"/>
<path d="M226.331 47.0241V47.7227H222.3V42.0742H226.232V42.7728H223.106V44.5092H225.879V45.1879H223.106V47.0241H226.331Z" fill="white"/>
<path d="M239.267 42.0742V47.7227H238.5V42.7728H235.276V47.7227H234.49V42.0742H239.267Z" fill="white"/>
<path d="M244.379 47.4033C243.927 47.1439 243.573 46.8046 243.317 46.3655C243.062 45.9264 242.924 45.4274 242.924 44.8885C242.924 44.3496 243.062 43.8506 243.317 43.4115C243.573 42.9724 243.927 42.6331 244.379 42.3736C244.831 42.1141 245.342 41.9944 245.893 41.9944C246.443 41.9944 246.954 42.1141 247.407 42.3736C247.859 42.6331 248.213 42.9724 248.468 43.4115C248.724 43.8506 248.842 44.3496 248.842 44.8885C248.842 45.4274 248.724 45.9264 248.468 46.3655C248.213 46.8046 247.859 47.1439 247.407 47.4033C246.954 47.6628 246.463 47.7826 245.893 47.7826C245.323 47.7826 244.831 47.6628 244.379 47.4033ZM246.994 46.7846C247.328 46.605 247.584 46.3455 247.761 46.0062C247.957 45.6669 248.036 45.3076 248.036 44.9084C248.036 44.4893 247.937 44.13 247.761 43.7907C247.564 43.4514 247.308 43.1919 246.994 43.0123C246.66 42.8327 246.306 42.7329 245.893 42.7329C245.48 42.7329 245.106 42.8327 244.792 43.0123C244.458 43.1919 244.202 43.4514 244.005 43.7907C243.809 44.13 243.73 44.4893 243.73 44.9084C243.73 45.3076 243.828 45.6869 244.005 46.0062C244.202 46.3455 244.458 46.605 244.792 46.7846C245.126 46.9642 245.5 47.064 245.893 47.064C246.306 47.064 246.66 46.9642 246.994 46.7846Z" fill="white"/>
<path d="M254.445 45.2278H253.285V47.7227H252.499V42.0742H253.285V44.5292H254.465L256.195 42.0742H257.06L255.074 44.8086L257.138 47.7227H256.234L254.445 45.2278Z" fill="white"/>
<path d="M264.216 42.5931C264.629 42.9324 264.826 43.4314 264.826 44.0302C264.826 44.6489 264.629 45.1279 264.216 45.4672C263.803 45.8065 263.233 45.9862 262.525 45.9862H261.149V47.7027H260.363V42.0542H262.525C263.233 42.0742 263.803 42.2538 264.216 42.5931ZM263.646 44.9882C263.902 44.7687 264.039 44.4493 264.039 44.0501C264.039 43.6509 263.902 43.3316 263.646 43.112C263.39 42.8925 262.997 42.7927 262.486 42.7927H261.13V45.3076H262.486C262.997 45.3076 263.371 45.2078 263.646 44.9882Z" fill="white"/>
<path d="M272.277 44.4893C272.631 44.7887 272.808 45.2278 272.808 45.8266C272.808 46.4453 272.611 46.9044 272.238 47.2437C271.864 47.563 271.314 47.7227 270.606 47.7227H268.306V42.0742H269.092V44.0502H270.744C271.412 44.0502 271.923 44.1899 272.277 44.4893ZM271.648 46.7646C271.904 46.5451 272.021 46.2457 272.021 45.8465C272.021 45.0681 271.55 44.6889 270.586 44.6889H269.112V47.084H270.586C271.038 47.084 271.392 46.9842 271.648 46.7646ZM273.693 42.0742H274.479V47.7227H273.693V42.0742Z" fill="white"/>
<path d="M282.402 42.7728H280.495V47.7227H279.728V42.7728H277.821V42.0742H282.402V42.7728Z" fill="white"/>
<path d="M285.764 42.0742H286.55V46.4253L289.834 42.0742H290.561V47.7227H289.775V43.3716L286.491 47.7227H285.764V42.0742Z" fill="white"/>
<path d="M298.74 42.0742V47.7227H297.954V46.086H296.42C296.322 46.086 296.243 46.086 296.204 46.086L295.083 47.7426H294.238L295.476 45.9463C295.083 45.8066 294.769 45.587 294.572 45.2677C294.356 44.9484 294.257 44.5691 294.257 44.1101C294.257 43.4714 294.454 42.9724 294.867 42.6131C295.28 42.2539 295.811 42.0742 296.499 42.0742H298.74ZM295.437 45.0681C295.673 45.2877 296.027 45.4074 296.499 45.4074H297.973V42.7928H296.558C296.086 42.7928 295.712 42.9125 295.457 43.1321C295.201 43.3516 295.083 43.6909 295.083 44.1101C295.064 44.5292 295.201 44.8486 295.437 45.0681Z" fill="white"/>
<path d="M229.398 20.5781V27.1846H240.172L237.517 20.5781H229.398Z" fill="white"/>
<path d="M33.521 31.0965L57.3298 31.1364V29.0407L35.7033 29.0208L35.723 19.1409L56.0125 19.1609V17.0851L35.723 17.0652L35.7426 7.40486L57.1332 7.42482V5.34906L33.5407 5.3291L33.521 31.0965Z" fill="white"/>
<path d="M94.3699 31.1765L94.3896 5.3891H92.2073L92.1876 27.4042L91.9124 27.1447L69.7551 5.36914H67.4941L67.4745 31.1366L69.6568 31.1565L69.6961 9.08156L92.109 31.1765H94.3699Z" fill="white"/>
<path d="M150.402 20.7377L158.895 31.2363H161.569L152.86 20.5581L153.666 20.4184C156.123 19.9593 160.272 18.4025 160.272 13.0734C160.272 10.4387 159.289 8.4428 157.362 7.12549C155.769 6.04769 153.489 5.44891 150.953 5.44891L135.303 5.42896L135.264 31.2163H137.446L137.466 20.6579H150.323L150.402 20.7377ZM137.505 7.52468H151.11C153.332 7.52468 155.042 8.0037 156.241 8.96175C157.441 9.91979 158.05 11.297 158.05 13.0734C158.05 16.6461 155.592 18.6021 151.13 18.6021H137.505V7.52468Z" fill="white"/>
<path d="M171.714 5.3787L171.684 31.2659L173.867 31.2685L173.897 5.38132L171.714 5.3787Z" fill="white"/>
<path d="M127.93 5.42889L102.116 5.40894V7.4847L113.932 7.50466V7.66433L113.912 31.1763H116.114L116.134 7.50466H127.93V5.42889Z" fill="white"/>
<path d="M24.9491 13.8917L24.9687 13.752C24.9687 13.6522 24.9884 13.5924 24.9884 13.5325C24.9884 13.3928 25.008 13.2331 25.008 13.0934C25.008 12.9337 25.008 12.774 24.9884 12.6144L24.9491 12.1553C24.9491 12.0755 24.9294 11.9757 24.9097 11.8958L24.8901 11.7361C24.8704 11.6563 24.8704 11.5765 24.8508 11.4966L24.8311 11.3769C24.7721 11.0376 24.6738 10.7182 24.5755 10.3989C24.5362 10.2592 24.4969 10.1594 24.4576 10.0596C22.7668 5.90804 17.7534 5.44897 15.689 5.44897H0.0393208L0.0196604 11.317V13.0734L0 31.2363H2.18231L2.20197 20.7178L15.6693 20.6979C17.714 20.6979 24.4379 20.1989 24.9491 13.8917ZM2.22163 7.52474L10.6559 7.5447H15.8266C20.3092 7.5447 22.7668 9.50071 22.7668 13.0734C22.7668 13.4127 22.7471 13.752 22.6881 14.0714H22.7078L22.6685 14.271L22.5702 14.6901C21.7248 17.9235 18.4415 18.6021 15.8266 18.6021L2.22163 18.6221V7.52474Z" fill="white"/>
<path d="M252.42 31.2761L252.361 31.1563L250.67 27.2842L248.016 21.1966L240.722 4.51068L240.702 4.49072H232.111L220.413 31.296H228.513L235.08 14.9893L235.65 13.5522C235.905 12.8936 236.161 12.2549 236.416 10.8178C236.672 12.2349 236.928 12.8936 237.183 13.5522L237.753 14.9893L244.32 31.296L252.42 31.2761Z" fill="white"/>
<path d="M208.617 4.43091L208.597 4.45087L200.929 22.015L193.262 4.45087L193.242 4.43091H185.634V31.2761H192.023V11.2171C192.043 11.0773 188.917 10.9376 188.937 10.778L197.921 31.2362H203.918L212.922 10.778C212.942 10.9376 209.895 11.0773 209.914 11.2171V31.2761H216.304V4.43091H208.617Z" fill="white"/>
<path d="M265.77 17.8235L255.92 31.276H257.217H263.037H264.354L270.645 22.6736L274.224 17.8235L270.645 12.9534L264.433 4.4707H255.998L265.77 17.8235Z" fill="#C10B19"/>
<path d="M299.762 2.23544C299.369 2.95397 299.173 3.71242 299.173 4.49084C299.173 5.26925 299.369 6.00774 299.762 6.72627C300.156 7.44481 300.706 8.00367 301.394 8.38289C302.79 9.1613 304.402 9.1613 305.798 8.38289C306.486 7.98371 307.037 7.42485 307.43 6.72627C307.823 6.00774 308.02 5.26925 308.02 4.49084C308.02 3.71242 307.823 2.95397 307.43 2.23544C307.037 1.5169 306.486 0.958045 305.778 0.578819C305.071 0.199593 304.343 0 303.596 0C302.849 0 302.122 0.199593 301.414 0.578819C300.706 0.958045 300.156 1.5169 299.762 2.23544ZM301.669 1.01792C302.908 0.339307 304.265 0.339307 305.503 1.01792C306.132 1.35723 306.624 1.85621 306.978 2.49491C307.332 3.1336 307.509 3.79226 307.509 4.49084C307.509 5.16945 307.332 5.82811 306.997 6.4668C306.663 7.08554 306.172 7.58452 305.542 7.94379C304.933 8.2831 304.265 8.46273 303.596 8.46273C302.928 8.46273 302.259 8.2831 301.65 7.94379C301.04 7.58452 300.549 7.1055 300.195 6.4668C299.841 5.84807 299.684 5.16945 299.684 4.49084C299.684 3.81222 299.861 3.1336 300.215 2.49491C300.549 1.85621 301.04 1.37719 301.669 1.01792Z" fill="white"/>
<path d="M304.481 2.33533C304.245 2.25549 303.832 2.21558 303.282 2.21558H301.728V6.92596H302.279V4.81028H302.869C303.183 4.81028 303.419 4.87016 303.576 5.00987C303.793 5.16955 304.088 5.56873 304.442 6.20743L304.835 6.92596H305.503L305.031 6.14755C304.756 5.68849 304.52 5.36914 304.324 5.18951C304.225 5.10967 304.107 5.02983 303.95 4.95L303.478 4.7504L303.989 4.71048C304.383 4.69053 304.697 4.55081 304.933 4.29134C305.169 4.05183 305.287 3.7724 305.287 3.43309C305.287 3.19358 305.208 2.97403 305.071 2.77444C304.894 2.55488 304.717 2.41517 304.481 2.33533ZM304.363 4.13167C304.166 4.29134 303.832 4.37118 303.341 4.37118H302.259V2.61476H303.282C303.694 2.61476 303.97 2.65468 304.127 2.71456C304.284 2.77444 304.422 2.87423 304.52 3.01395C304.618 3.15366 304.658 3.31334 304.658 3.47301C304.658 3.75244 304.559 3.97199 304.363 4.13167Z" fill="white"/>
</g>
<defs>
<clipPath id="clip0_953_1454">
<rect width="308.02" height="49" fill="white"/>
</clipPath>
</defs>
</svg>
