<svg width="22" height="23" viewBox="0 0 22 23" fill="none" xmlns="http://www.w3.org/2000/svg">
<path d="M19.25 0.75C20.7539 0.75 22 1.99609 22 3.5V15.875C22 17.3789 20.7539 18.625 19.25 18.625H13.0625L7.69141 22.5352C7.34766 22.793 6.875 22.5781 6.875 22.1484V18.5391H2.75C1.20312 18.5391 0 17.3359 0 15.832V3.5C0 1.99609 1.20312 0.75 2.75 0.75H19.25ZM20.625 15.875V3.5C20.625 2.76953 19.9805 2.125 19.25 2.125H2.75C1.97656 2.125 1.375 2.76953 1.375 3.5V15.875C1.375 16.6484 1.97656 17.25 2.75 17.25H7.5625C7.90625 17.25 8.25 17.5938 8.25 17.9375V20.5156L12.2031 17.5508C12.4609 17.3789 12.7188 17.25 13.0195 17.25H19.25C19.9805 17.25 20.625 16.6484 20.625 15.875ZM5.32812 9.04297C6.05859 9.25781 7.43359 9.64453 7.13281 11.0625C7.00391 11.9219 6.23047 12.4375 5.19922 12.4375C5.02734 12.4375 4.85547 12.4375 4.68359 12.3945C4.33984 12.3516 3.95312 12.2227 3.65234 12.1367C3.30859 12.0078 3.05078 11.5781 3.17969 11.2344C3.30859 10.8477 3.65234 10.6328 3.99609 10.7617C4.29688 10.8906 4.59766 11.0195 4.89844 11.0625C5.37109 11.1484 5.80078 11.0195 5.80078 10.8477C5.84375 10.5898 5.32812 10.5039 4.76953 10.332C4.25391 10.1602 2.83594 9.77344 3.09375 8.35547C3.26562 7.32422 4.25391 6.80859 5.58594 6.98047C5.84375 7.02344 6.14453 7.10938 6.40234 7.19531C6.74609 7.32422 6.96094 7.71094 6.83203 8.09766C6.70312 8.44141 6.31641 8.65625 5.92969 8.52734C5.75781 8.44141 5.54297 8.39844 5.37109 8.35547C4.89844 8.26953 4.46875 8.35547 4.46875 8.57031C4.42578 8.82812 4.85547 8.91406 5.32812 9.04297ZM17.0156 9.04297C17.7461 9.25781 19.1211 9.64453 18.8203 11.0625C18.6914 11.9219 17.918 12.4375 16.8867 12.4375C16.7148 12.4375 16.543 12.4375 16.3711 12.3945C16.0273 12.3516 15.6406 12.2227 15.3398 12.1367C14.9961 12.0078 14.7383 11.5781 14.8672 11.2344C14.9961 10.8477 15.3398 10.6328 15.6836 10.7617C15.9844 10.8906 16.2852 11.0195 16.5859 11.0625C17.0586 11.1484 17.4883 11.0195 17.4883 10.8477C17.5312 10.5898 17.0156 10.5039 16.457 10.332C15.9414 10.1602 14.5234 9.77344 14.7812 8.35547C14.9531 7.32422 15.9414 6.80859 17.2734 6.98047C17.5312 7.02344 17.832 7.10938 18.0898 7.19531C18.4336 7.32422 18.6484 7.71094 18.5195 8.09766C18.3906 8.44141 18.0039 8.65625 17.6172 8.52734C17.4453 8.44141 17.2305 8.39844 17.0586 8.35547C16.5859 8.26953 16.1562 8.35547 16.1562 8.57031C16.1133 8.82812 16.543 8.91406 17.0156 9.04297ZM13.2773 6.98047C13.5352 7.06641 13.75 7.36719 13.75 7.625V11.75C13.75 12.1367 13.4062 12.4375 13.0625 12.4375C12.6758 12.4375 12.375 12.1367 12.375 11.75V9.6875L11.5156 10.8047C11.2578 11.1484 10.6992 11.1484 10.4414 10.8047L9.625 9.6875V11.75C9.625 12.1367 9.28125 12.4375 8.9375 12.4375C8.55078 12.4375 8.25 12.1367 8.25 11.75V7.625C8.25 7.36719 8.42188 7.06641 8.67969 6.98047C8.98047 6.89453 9.28125 6.98047 9.45312 7.23828L11 9.25781L12.5039 7.23828C12.6758 6.98047 12.9766 6.89453 13.2773 6.98047Z" fill="white"/>
</svg>
