<svg width="17" height="17" viewBox="0 0 17 17" fill="none" xmlns="http://www.w3.org/2000/svg">
<path d="M14.9688 0.03125C16.0938 0.03125 16.9688 0.90625 16.9688 2V10.9688C16.9688 12.0312 16.0625 12.9375 14.9688 12.9375H10.4688L6.5625 15.8438C6.3125 16.0312 5.96875 15.875 5.96875 15.5625V12.9375H2.96875C1.84375 12.9375 0.96875 12.0625 0.96875 10.9688V2C0.96875 0.90625 1.84375 0.03125 2.96875 0.03125H14.9688ZM15.5 11V2C15.5 1.75 15.25 1.5 15 1.5H3C2.71875 1.5 2.5 1.75 2.5 2V11C2.5 11.2812 2.71875 11.5 3 11.5H7.5V13.375L10 11.5H15C15.25 11.5 15.5 11.2812 15.5 11ZM11.2188 3.5C12.1875 3.5 12.9688 4.3125 12.9688 5.28125V7.25C12.9688 8.46875 11.9375 9.5 10.7188 9.5C10.3125 9.5 10 9.1875 10 8.75C10 8.34375 10.3125 8 10.75 8C11.1562 8 11.5 7.6875 11.4688 7.25V6.9375C11.375 6.9375 11.2812 6.96875 11.2188 6.96875C10.25 6.96875 9.46875 6.1875 9.46875 5.25C9.46875 4.3125 10.25 3.5 11.2188 3.5ZM6.71875 3.5C7.6875 3.5 8.46875 4.3125 8.46875 5.25L8.4375 7.25C8.4375 8.46875 7.4375 9.5 6.21875 9.5C5.8125 9.5 5.5 9.1875 5.5 8.75C5.5 8.34375 5.8125 8 6.25 8C6.65625 8 7 7.6875 6.96875 7.25V6.9375C6.875 6.9375 6.78125 6.96875 6.71875 6.96875C5.75 6.96875 4.96875 6.1875 4.96875 5.25C4.96875 4.3125 5.75 3.5 6.71875 3.5Z" fill="white"/>
</svg>
