<svg width="86" height="86" viewBox="0 0 86 86" fill="none" xmlns="http://www.w3.org/2000/svg">
<g id="project 1" clip-path="url(#clip0_172_10400)">
<g id="Group">
<g id="Group_2">
<path id="Vector" d="M3.69554 61.3082C3.69554 57.8815 6.48363 55.0934 9.91034 55.0934H12.626C13.6465 55.0934 14.4737 54.2662 14.4737 53.2458V12.2616H20.1586V8.56636H14.4737V1.84765C14.4737 0.827241 13.6465 0 12.626 0H9.91034C4.44602 0 0.000244141 4.44577 0.000244141 9.9101V61.3082C0.000244141 66.7726 4.44602 71.2183 9.91034 71.2183H33.5023V67.523H9.91034C6.48363 67.523 3.69554 64.7349 3.69554 61.3082ZM3.69554 9.9101C3.69554 6.48339 6.48363 3.69529 9.91034 3.69529H10.7784V51.3981H9.91034C7.55896 51.3981 5.39654 52.221 3.69554 53.5943V9.9101Z" fill="#C10B19"/>
<path id="Vector_2" d="M68.2233 67.523H41.7944V71.2183H68.2233V67.523Z" fill="#C10B19"/>
<path id="Vector_3" d="M84.152 8.56635H45.5972V12.2616H82.3043V67.523H76.4817V71.2183H84.152C85.1724 71.2183 85.9996 70.3911 85.9996 69.3707V10.414C85.9996 9.39359 85.1726 8.56635 84.152 8.56635Z" fill="#C10B19"/>
</g>
<g id="Group_3">
<path id="Vector_4" d="M32.9471 20.6112C36.0961 20.6112 38.658 18.0493 38.658 14.9004C38.658 11.7514 36.0961 9.18951 32.9471 9.18951C29.7982 9.18951 27.2363 11.7514 27.2363 14.9004C27.2363 18.0493 29.7982 20.6112 32.9471 20.6112ZM32.9471 12.8848C34.0585 12.8848 34.9627 13.789 34.9627 14.9004C34.9627 16.0117 34.0585 16.9159 32.9471 16.9159C31.8358 16.9159 30.9316 16.0117 30.9316 14.9004C30.9316 13.789 31.8358 12.8848 32.9471 12.8848Z" fill="white"/>
<path id="Vector_5" d="M23.698 25.7533L24.9332 25.3542C25.8456 26.0558 26.8382 26.6291 27.9006 27.0683L28.173 28.34C28.3556 29.192 29.1084 29.8005 29.9797 29.8005H35.9141C36.7856 29.8005 37.5384 29.1918 37.7208 28.3399L37.9932 27.0683C39.0556 26.6291 40.0482 26.0557 40.9606 25.3542L42.1958 25.7533C43.0247 26.0216 43.9277 25.6739 44.3634 24.9202L47.3346 19.7826C47.771 19.0281 47.6205 18.071 46.9738 17.4865L46.0055 16.612C46.0801 16.0431 46.1177 15.4707 46.1177 14.9004C46.1177 14.3302 46.0801 13.7577 46.0055 13.1888L46.9738 12.3142C47.6207 11.7299 47.771 10.7726 47.3346 10.0181L44.3634 4.88047C43.9275 4.1268 43.0244 3.77911 42.1958 4.04735L40.9606 4.44644C40.0482 3.74501 39.0556 3.17157 37.9932 2.73233L37.7208 1.46082C37.5386 0.608715 36.7856 0 35.9143 0H29.9798C29.1086 0 28.3558 0.608547 28.1732 1.46048L27.9007 2.73216C26.8383 3.1714 25.8458 3.74467 24.9334 4.44627L23.6982 4.04718C22.8703 3.77911 21.9666 4.12663 21.5307 4.8803L18.5594 10.0179C18.1228 10.7724 18.2735 11.7295 18.9203 12.3141L19.8885 13.1885C19.8139 13.7574 19.7763 14.33 19.7763 14.9003C19.7763 15.4705 19.8139 16.0429 19.8885 16.6118L18.9203 17.4863C18.2733 18.0706 18.1228 19.0279 18.5594 19.7824L21.5307 24.92C21.9666 25.674 22.8703 26.0214 23.698 25.7533ZM23.6874 16.9113C23.544 16.248 23.4714 15.5715 23.4714 14.9004C23.4714 14.2292 23.5442 13.5526 23.6874 12.8895C23.8272 12.243 23.6107 11.5713 23.1199 11.128L22.5066 10.5739L23.9822 8.02248L24.7666 8.27594C25.3962 8.47952 26.0872 8.33036 26.5771 7.88541C27.5883 6.96663 28.7589 6.29039 30.0569 5.87501C30.6875 5.67345 31.1618 5.14972 31.3006 4.50238L31.4734 3.69529H34.4204L34.5932 4.50221C34.7318 5.14956 35.2063 5.67345 35.8369 5.87501C37.1351 6.29039 38.3058 6.96663 39.3168 7.88541C39.807 8.33053 40.4973 8.47968 41.1275 8.27594L41.9118 8.02248L43.3874 10.5739L42.7739 11.128C42.2833 11.5713 42.067 12.2428 42.2065 12.889C42.3498 13.5526 42.4224 14.2292 42.4224 14.9004C42.4224 15.572 42.3497 16.2484 42.2065 16.9113C42.067 17.5577 42.2833 18.2294 42.7739 18.6726L43.3874 19.2268L41.9118 21.7782L41.1275 21.5247C40.4971 21.321 39.8068 21.4703 39.3168 21.9153C38.3058 22.834 37.1351 23.5103 35.8369 23.9257C35.2063 24.1272 34.7318 24.6509 34.5932 25.2985L34.4204 26.1054H31.4734L31.3006 25.2983C31.1618 24.6509 30.6875 24.1272 30.0569 23.9257C28.7589 23.5103 27.5883 22.834 26.5771 21.9153C26.0872 21.4703 25.3965 21.3213 24.7666 21.5247L23.9822 21.7782L22.5066 19.2268L23.1199 18.6726C23.6107 18.2294 23.827 17.5575 23.6874 16.9113Z" fill="white"/>
<path id="Vector_6" d="M78.0501 68.8844L63.5624 29.0801C62.4753 26.0978 59.8931 23.8282 56.7273 23.1831V16.2801C56.7273 15.2597 55.9 14.4325 54.8796 14.4325C53.8592 14.4325 53.032 15.2597 53.032 16.2801V23.1831C49.8638 23.8287 47.2804 26.1012 46.1945 29.0866L31.7092 68.8844C30.8653 71.2034 30.9748 73.712 32.0177 75.9486C32.7951 77.6161 34.0224 78.9825 35.5575 79.9201L34.2472 83.5198C33.8983 84.4787 34.3926 85.5389 35.3514 85.8881C35.56 85.9641 35.7735 86 35.9833 86C36.738 86 37.4466 85.5341 37.7197 84.7839L46.6069 60.3669H53.0318V61.4908C53.0318 62.5112 53.8591 63.3385 54.8795 63.3385C55.8999 63.3385 56.7271 62.5112 56.7271 61.4908V60.3669H63.1522L72.0392 84.7837C72.3123 85.5342 73.0208 86 73.7757 86C73.9855 86 74.199 85.9639 74.4074 85.8881C75.3663 85.5391 75.8607 84.4787 75.5118 83.52L74.2011 79.9187C77.8654 77.6718 79.5758 73.0771 78.0501 68.8844ZM54.8796 26.6924C57.2683 26.6924 59.309 28.2112 60.0865 30.334C60.0872 30.3358 60.0875 30.3378 60.0882 30.3397L60.0908 30.3469C60.3052 30.9366 60.4226 31.5726 60.4226 32.2354C60.4226 35.2917 57.936 37.7783 54.8796 37.7783C51.8233 37.7783 49.3367 35.2917 49.3367 32.2354C49.3367 31.5749 49.4533 30.9413 49.6661 30.3535L49.6711 30.3397C49.6723 30.3367 49.6728 30.3335 49.674 30.3304C50.4525 28.2097 52.4921 26.6924 54.8796 26.6924ZM35.1819 70.1485L47.1456 37.2789C47.893 38.4213 48.8852 39.3891 50.0489 40.106L36.8658 76.3261C36.2346 75.8072 35.7224 75.1493 35.3668 74.3869C34.7412 73.045 34.6753 71.5398 35.1819 70.1485ZM56.7273 56.6717V55.5478C56.7273 54.5274 55.9 53.7001 54.8796 53.7001C53.8592 53.7001 53.032 54.5274 53.032 55.5478V56.6717H47.952L53.5203 41.3728C53.9641 41.4385 54.4177 41.4736 54.8796 41.4736C55.3416 41.4736 55.7952 41.4385 56.2392 41.3728L61.8075 56.6717H56.7273ZM72.8927 76.3235L59.7106 40.106C60.8742 39.3891 61.8664 38.4211 62.6139 37.2788L74.5777 70.1484C75.4016 72.4121 74.653 74.8713 72.8927 76.3235Z" fill="white"/>
<path id="Vector_7" d="M53.1739 32.9418C53.2651 33.1637 53.4028 33.3727 53.5738 33.5413C54.0841 34.0632 54.9154 34.2303 55.5859 33.9411C56.5087 33.5841 56.9864 32.4344 56.5853 31.5292C55.5607 29.3003 52.323 30.6454 53.1739 32.9418Z" fill="white"/>
<path id="Vector_8" d="M21.5002 35.3898C20.4798 35.3898 19.6526 36.217 19.6526 37.2374C19.6526 38.2579 20.4798 39.0851 21.5002 39.0851H32.9469C33.9673 39.0851 34.7945 38.2579 34.7945 37.2374C34.7945 36.217 33.9673 35.3898 32.9469 35.3898H21.5002Z" fill="white"/>
<path id="Vector_9" d="M34.7945 45.5137C34.7945 44.4933 33.9673 43.6661 32.9469 43.6661H21.5002C20.4798 43.6661 19.6526 44.4933 19.6526 45.5137C19.6526 46.5341 20.4798 47.3614 21.5002 47.3614H32.9469C33.9673 47.3614 34.7945 46.5341 34.7945 45.5137Z" fill="white"/>
</g>
</g>
</g>
<defs>
<clipPath id="clip0_172_10400">
<rect width="86" height="86" fill="white"/>
</clipPath>
</defs>
</svg>
