<svg width="86" height="86" viewBox="0 0 86 86" fill="none" xmlns="http://www.w3.org/2000/svg">
<g id="right-decision 1">
<g id="Group">
<path id="Vector" d="M26.9719 36.6439C26.1457 36.6441 25.3934 36.0857 25.1819 35.2481C24.9321 34.2587 25.5316 33.2541 26.5211 33.0043C43.3632 28.3928 40.3384 4.06434 22.8784 3.69531C14.6733 3.69531 7.99767 10.3709 7.99767 18.5762C7.99767 25.3225 12.553 31.2385 19.0752 32.9629C20.0617 33.2237 20.6501 34.2349 20.3892 35.2214C20.1284 36.2078 19.1177 36.7966 18.1307 36.5354C-2.70479 30.5675 1.19745 0.453348 22.8789 0C44.6765 0.463258 48.4487 30.8312 27.4256 36.5873C27.2738 36.6256 27.1216 36.6439 26.9719 36.6439Z" fill="#C10B19"/>
<path id="Vector_2" d="M63.0271 37.1523C52.7842 37.1523 44.4509 28.8191 44.4509 18.5762C45.3848 -6.03378 80.6731 -6.02706 81.6033 18.5763C81.6031 28.8191 73.27 37.1523 63.0271 37.1523ZM63.0271 3.69531C54.8217 3.69531 48.1462 10.3709 48.1462 18.5762C48.8942 38.2907 77.1628 38.2853 77.908 18.576C77.9078 10.3709 71.2324 3.69531 63.0271 3.69531Z" fill="#C10B19"/>
<path id="Vector_3" d="M42.4361 86C41.4157 86 40.5885 85.1728 40.5885 84.1524V80.3428C40.5885 79.7373 40.8853 79.1702 41.3826 78.8249C45.6405 75.8697 48.1822 71.0397 48.1822 65.9049V55.8678C48.163 53.7121 45.1886 52.8781 43.9425 54.6802C43.5118 55.2866 42.759 55.5757 42.0337 55.4136C41.3077 55.2515 40.7497 54.67 40.6177 53.938C40.2445 51.9222 37.6028 51.3146 36.4148 53.0073C35.9841 53.6136 35.2313 53.9025 34.5058 53.7408C33.7799 53.5787 33.2217 52.9972 33.0899 52.2652C32.569 49.7201 29.0141 49.7218 28.4941 52.2652C28.3243 53.2066 27.4649 53.8617 26.511 53.7779C25.5581 53.6927 24.8278 52.8942 24.8278 51.9375V33.3769C24.7296 30.7939 21.0268 30.7959 20.9294 33.3769V63.3956C20.8386 65.8444 17.3241 65.8426 17.2341 63.3956V60.2716C17.0364 60.4234 16.853 60.61 16.6828 60.8319C15.5484 62.3102 15.2559 65.0558 15.9547 67.664C17.407 73.0849 19.9868 76.6825 24.3195 79.3296C24.869 79.6652 25.2041 80.2625 25.2041 80.9064V84.1524C25.1132 86.6012 21.5988 86.5993 21.5087 84.1524V81.9172C16.8904 78.8224 13.9794 74.5702 12.3855 68.6205C11.0698 63.4561 12.2436 57.6921 17.2343 56.2588V33.3769C17.519 25.8971 28.2413 25.9028 28.5233 33.3769V47.0879C30.9454 46.046 34.0421 46.9169 35.5654 48.9901C38.0505 47.6321 41.4599 48.4321 43.0932 50.6631C46.9553 48.5937 51.9395 51.5201 51.8777 55.8676V65.9047C51.8777 71.9236 49.0568 77.5997 44.284 81.2793V84.1524C44.2838 85.1728 43.4566 86 42.4361 86Z" fill="white"/>
<path id="Vector_4" d="M20.7874 24.6059C20.2975 24.6059 19.8275 24.4112 19.481 24.0647L15.2989 19.8826C14.5773 19.161 14.5773 17.9911 15.2989 17.2695C16.0206 16.548 17.1902 16.548 17.912 17.2695L20.7876 20.1453L27.8453 13.0875C28.5671 12.366 29.7366 12.3659 30.4584 13.0875C31.18 13.8091 31.18 14.979 30.4584 15.7005L22.0942 24.0647C21.7474 24.4112 21.2774 24.6059 20.7874 24.6059Z" fill="white"/>
<path id="Vector_5" d="M65.64 18.5762L68.934 15.2823C69.6556 14.5607 69.6556 13.3908 68.934 12.6692C68.2124 11.9478 67.0425 11.9478 66.3209 12.6692L63.0269 15.9631L59.733 12.6692C59.0113 11.9476 57.8417 11.9476 57.1199 12.6692C56.3983 13.3908 56.3983 14.5607 57.1199 15.2823L60.4138 18.5762L57.1199 21.87C56.3983 22.5916 56.3983 23.7615 57.1199 24.4831C57.8415 25.2047 59.0113 25.2046 59.733 24.4831L63.0269 21.1893L66.3208 24.4831C67.0423 25.2047 68.2121 25.2047 68.9338 24.4831C69.6554 23.7615 69.6554 22.5916 68.9338 21.87L65.64 18.5762Z" fill="white"/>
</g>
</g>
</svg>
