<svg width="32" height="35" viewBox="0 0 32 35" fill="none" xmlns="http://www.w3.org/2000/svg">
<path d="M29.9453 5.82812C31.1406 6.35938 31.9375 7.48828 31.9375 8.75C31.9375 26.0156 19.2539 34.25 15.9336 34.25C12.6133 34.25 0.0625 25.8828 0.0625 8.75C0.0625 7.48828 0.792969 6.35938 1.98828 5.82812L14.7383 0.515625C15.1367 0.382812 15.5352 0.316406 16 0.316406C16.3984 0.316406 16.7969 0.382812 17.1953 0.515625L29.9453 5.82812ZM16 31.0625C22.1758 28.4727 28.75 20.3047 28.75 8.75L16 3.4375L3.25 8.75C3.25 20.0391 9.49219 28.4062 16 31.0625ZM12.2812 16.6523L14.2734 18.6445L19.5195 12.4688C19.8516 12.0703 20.3164 11.9375 20.7812 11.9375C21.9766 11.9375 22.375 13 22.375 13.5312C22.375 13.8633 22.2422 14.2617 21.9766 14.5273L15.6016 21.9648C15.1367 22.4961 14.5391 22.5625 14.4062 22.5625C13.9414 22.5625 13.543 22.4297 13.2773 22.0977L10.0898 18.9102C9.75781 18.6445 9.625 18.2461 9.625 17.7812C9.625 16.918 10.2891 16.1875 11.2188 16.1875C11.6172 16.1875 12.0156 16.3867 12.2812 16.6523Z" fill="white"/>
</svg>
