<svg width="86" height="86" viewBox="0 0 86 86" fill="none" xmlns="http://www.w3.org/2000/svg">
<g clip-path="url(#clip0_503_1652)">
<path d="M80.2645 14.307C77.6564 14.3149 75.3828 16.083 74.7329 18.6087H65.9264C65.5463 18.6094 65.1819 18.7606 64.9131 19.0293C64.6443 19.298 64.493 19.6623 64.4922 20.0424V28.7029C65.4465 28.6182 66.4066 28.623 67.36 28.7174V21.4765H74.7329C76.5466 27.9208 85.8248 26.7875 86 20.0424C85.9965 16.8763 83.4307 14.3104 80.2645 14.307ZM80.2645 22.9101C78.682 22.9071 77.3999 21.625 77.3972 20.0424C77.5544 16.2378 82.9754 16.2378 83.1322 20.0424C83.1294 21.625 81.8471 22.9073 80.2645 22.9101ZM11.2367 25.7779H18.6096V28.7174C19.563 28.6231 20.5231 28.6183 21.4774 28.7029V24.3441C21.4767 23.9639 21.3254 23.5995 21.0566 23.3307C20.7878 23.0619 20.4234 22.9106 20.0432 22.91H11.2367C10.5868 20.3845 8.31353 18.6166 5.70579 18.6086C-1.9031 18.923 -1.90075 29.7658 5.70579 30.0794C8.31353 30.0714 10.5868 28.3033 11.2367 25.7779ZM2.83736 24.3441C2.84021 22.7611 4.12283 21.4787 5.70579 21.4763C9.51032 21.6339 9.51032 27.0545 5.70579 27.2117C4.12283 27.2095 2.84004 25.927 2.83736 24.3441ZM41.551 14.1036V20.0855H44.4188V14.1036C46.944 13.4536 48.7117 11.1802 48.7198 8.57267C48.4054 0.963778 37.5625 0.96613 37.2493 8.57267C37.2572 11.1804 39.0254 13.4537 41.551 14.1036ZM42.985 5.70424C44.5674 5.70726 45.8495 6.98938 45.8522 8.572C45.695 12.3765 40.2741 12.3765 40.1172 8.572C40.1201 6.98921 41.4024 5.70693 42.985 5.70424Z" fill="#C10B19"/>
<path d="M65.9263 31.5133C64.3933 31.5113 62.8684 31.7349 61.4005 32.1771C52.5373 19.9015 33.4303 19.9042 24.569 32.1771C14.6991 29.0597 4.10401 36.909 4.2713 47.2855C4.28088 55.9921 11.3365 63.0479 20.0432 63.0578C20.2334 63.0607 20.4222 63.0257 20.5987 62.955C20.7752 62.8842 20.9359 62.7791 21.0713 62.6457C21.2068 62.5122 21.3144 62.3532 21.3879 62.1778C21.4613 62.0024 21.4991 61.8141 21.4991 61.624C21.4991 61.4338 21.4613 61.2455 21.3879 61.0701C21.3144 60.8947 21.2068 60.7357 21.0713 60.6023C20.9359 60.4688 20.7752 60.3637 20.5987 60.2929C20.4222 60.2222 20.2334 60.1873 20.0432 60.1902C2.93443 59.4867 2.91813 35.0919 20.0432 34.3812C21.6033 34.3787 23.1505 34.6625 24.6082 35.2185C24.9105 35.3346 25.2434 35.3445 25.5521 35.2466C25.8609 35.1488 26.1273 34.949 26.3077 34.68C32.475 25.4695 44.9413 23.0027 54.1518 29.1701C56.3308 30.6291 58.2027 32.501 59.6617 34.68C59.8424 34.9487 60.1088 35.1482 60.4175 35.246C60.7261 35.3438 61.0588 35.3341 61.3612 35.2185C62.8188 34.6624 64.3661 34.3786 65.9262 34.3812C83.0328 35.0835 83.0533 59.479 65.9262 60.1902C65.5513 60.1983 65.1945 60.3529 64.9322 60.6209C64.6699 60.8889 64.5231 61.249 64.5231 61.624C64.5231 61.9989 64.6699 62.359 64.9322 62.627C65.1945 62.895 65.5513 63.0496 65.9262 63.0578C86.8385 62.1971 86.856 32.3817 65.9263 31.5133Z" fill="white"/>
<path d="M60.656 43.0618C49.1997 39.1521 36.7703 39.1521 25.314 43.0618C25.031 43.1583 24.7852 43.3409 24.6112 43.5841C24.4372 43.8273 24.3435 44.1188 24.3435 44.4178V66.0055C24.3267 70.8978 27.093 75.3742 31.476 77.5474L42.342 82.9825C42.541 83.0816 42.7602 83.1333 42.9825 83.1333C43.2049 83.1333 43.4241 83.0816 43.6231 82.9825L54.4888 77.5474C58.872 75.3742 61.6383 70.8978 61.6213 66.0055V44.4178C61.6216 44.1194 61.5288 43.8283 61.3557 43.5852C61.1827 43.3422 60.938 43.1592 60.656 43.0618ZM58.7572 66.0052C58.7636 67.8704 58.2472 69.7 57.2666 71.2866C56.286 72.8733 54.8804 74.1534 53.2093 74.9819L42.985 80.0942L32.7603 74.9822C31.0893 74.1537 29.6838 72.8735 28.7033 71.2869C27.7227 69.7003 27.2064 67.8707 27.2127 66.0055V45.4528C37.4724 42.1764 48.4979 42.1764 58.7576 45.4528L58.7572 66.0052Z" fill="white"/>
<path d="M30.0801 48.6963V66.0055C30.0753 67.3379 30.444 68.6449 31.1445 69.7783C31.845 70.9117 32.8492 71.8261 34.0431 72.4176L42.3438 76.568C42.5427 76.6673 42.762 76.719 42.9844 76.719C43.2067 76.719 43.426 76.6673 43.6249 76.568L51.9253 72.4176C53.119 71.8258 54.1229 70.9113 54.8234 69.778C55.5238 68.6447 55.8927 67.3378 55.8883 66.0055V48.6963C55.8878 48.3766 55.7806 48.0661 55.5837 47.8141C55.3869 47.5622 55.1115 47.3831 54.8013 47.3054C47.0398 45.3771 38.9243 45.3771 31.1627 47.3054C30.8533 47.3839 30.579 47.5633 30.3829 47.8152C30.1869 48.0671 30.0803 48.3771 30.0801 48.6963ZM32.9477 49.83C39.5578 48.3555 46.4116 48.3555 53.0217 49.83V66.0055C53.0244 66.8049 52.8031 67.5891 52.3829 68.2691C51.9626 68.9491 51.3601 69.4977 50.6439 69.8527L42.985 73.6821L35.3263 69.8527C34.6101 69.4977 34.0077 68.9491 33.5874 68.2691C33.1671 67.5891 32.9458 66.8049 32.9486 66.0055L32.9477 49.83Z" fill="#C10B19"/>
<path d="M36.8043 62.6117H38.8094C38.9762 63.308 39.3143 63.9515 39.7931 64.4837C40.2719 65.016 40.8762 65.4202 41.5509 65.6595V67.3575C41.5474 67.5481 41.5818 67.7374 41.6523 67.9145C41.7227 68.0916 41.8278 68.2529 41.9613 68.3889C42.0948 68.5249 42.2541 68.633 42.4298 68.7068C42.6055 68.7805 42.7942 68.8185 42.9848 68.8185C43.1754 68.8185 43.3641 68.7805 43.5398 68.7068C43.7156 68.633 43.8748 68.5249 44.0083 68.3889C44.1418 68.2529 44.2469 68.0916 44.3173 67.9145C44.3878 67.7374 44.4222 67.5481 44.4187 67.3575V65.6595C45.0934 65.4202 45.6976 65.016 46.1764 64.4837C46.6552 63.9514 46.9934 63.3079 47.1603 62.6117H49.1653C49.3536 62.6148 49.5407 62.5808 49.7158 62.5117C49.8909 62.4425 50.0507 62.3395 50.1861 62.2085C50.3214 62.0776 50.4296 61.9213 50.5046 61.7485C50.5795 61.5757 50.6197 61.3899 50.6228 61.2016C50.6259 61.0093 50.5904 60.8184 50.5183 60.6401C50.4462 60.4619 50.3389 60.2999 50.203 60.164C50.067 60.028 49.9051 59.9207 49.7268 59.8486C49.5485 59.7765 49.3576 59.741 49.1653 59.7442H46.8361C46.3429 58.7366 45.4753 57.9618 44.4187 57.5853V54.999C44.4318 54.2071 43.8004 53.5547 43.0084 53.5416C42.8161 53.5384 42.6252 53.5739 42.4469 53.646C42.2687 53.7182 42.1067 53.8254 41.9707 53.9614C41.8348 54.0973 41.7275 54.2593 41.6554 54.4376C41.5833 54.6158 41.5478 54.8068 41.5509 54.999V57.5868C40.4942 57.9633 39.6267 58.7381 39.1335 59.7457H36.8043C36.4339 59.7601 36.0835 59.9174 35.8266 60.1846C35.5697 60.4518 35.4261 60.808 35.4261 61.1787C35.4261 61.5494 35.5697 61.9056 35.8266 62.1728C36.0835 62.44 36.4339 62.5973 36.8043 62.6117ZM42.9849 60.1884C43.3652 60.1884 43.73 60.3395 43.999 60.6085C44.2679 60.8774 44.419 61.2422 44.419 61.6226C44.419 62.0029 44.2679 62.3677 43.999 62.6366C43.73 62.9056 43.3652 63.0567 42.9849 63.0567C42.6045 63.0567 42.2398 62.9056 41.9708 62.6366C41.7019 62.3677 41.5508 62.0029 41.5508 61.6226C41.5518 61.2427 41.7033 60.8787 41.972 60.6102C42.2408 60.3417 42.605 60.1907 42.9849 60.1901V60.1884Z" fill="white"/>
</g>
<defs>
<clipPath id="clip0_503_1652">
<rect width="86" height="86" fill="white"/>
</clipPath>
</defs>
</svg>
