<svg width="86" height="86" viewBox="0 0 86 86" fill="none" xmlns="http://www.w3.org/2000/svg">
<g clip-path="url(#clip0_503_1642)">
<path d="M1.43316 28.6679H41.5678C41.7584 28.6715 41.9477 28.637 42.1247 28.5666C42.3017 28.4962 42.4629 28.3911 42.5989 28.2577C42.7349 28.1242 42.8429 27.965 42.9167 27.7893C42.9904 27.6136 43.0284 27.425 43.0284 27.2345C43.0284 27.0439 42.9904 26.8553 42.9167 26.6796C42.8429 26.5039 42.7349 26.3447 42.5989 26.2113C42.4629 26.0778 42.3017 25.9728 42.1247 25.9024C41.9477 25.8319 41.7584 25.7975 41.5678 25.8011H2.86683V8.59877H54.4683V19.0619C54.4647 19.2524 54.4992 19.4417 54.5696 19.6187C54.6401 19.7958 54.7451 19.957 54.8786 20.093C55.012 20.2289 55.1713 20.337 55.347 20.4107C55.5226 20.4844 55.7113 20.5224 55.9018 20.5224C56.0923 20.5224 56.281 20.4844 56.4566 20.4106C56.6323 20.3369 56.7915 20.2288 56.925 20.0929C57.0584 19.9569 57.1634 19.7956 57.2339 19.6186C57.3043 19.4415 57.3387 19.2522 57.3351 19.0617V7.16528C57.3352 6.97712 57.2982 6.79079 57.2262 6.61693C57.1542 6.44308 57.0487 6.2851 56.9157 6.15202C56.7827 6.01894 56.6248 5.91336 56.4509 5.84131C56.2771 5.76927 56.0908 5.73216 55.9026 5.73212H1.43316C1.245 5.73203 1.05867 5.76901 0.884806 5.84095C0.710942 5.91289 0.552954 6.01838 0.419866 6.15139C0.286778 6.2844 0.181198 6.44232 0.109157 6.61614C0.0371162 6.78997 2.52452e-05 6.97628 3.2022e-06 7.16444V27.232C-0.000799573 27.612 0.149366 27.9768 0.417469 28.246C0.685573 28.5153 1.04966 28.667 1.42964 28.6679H1.43316Z" fill="white"/>
<path d="M5.73365 17.1992C5.73701 20.3644 8.30215 22.9294 11.4673 22.9329C19.0739 22.6181 19.0715 11.7789 11.4673 11.4658C8.30198 11.469 5.73701 14.0341 5.73365 17.1992ZM14.3339 17.1992C14.3311 18.7814 13.0493 20.0632 11.4671 20.0661C7.66384 19.9085 7.66384 14.4893 11.4671 14.3324C13.0493 14.3351 14.3313 15.6171 14.3339 17.1992ZM50.1683 14.3324C50.1684 13.9523 50.0174 13.5878 49.7488 13.3189C49.4801 13.0501 49.1156 12.8989 48.7355 12.8988H22.9359C22.5604 12.9058 22.2027 13.0599 21.9396 13.328C21.6765 13.596 21.5291 13.9566 21.5291 14.3322C21.5291 14.7077 21.6765 15.0683 21.9396 15.3364C22.2027 15.6044 22.5604 15.7585 22.9359 15.7656H48.737C49.1168 15.7652 49.4809 15.614 49.7493 15.3453C50.0177 15.0765 50.1684 14.7122 50.1683 14.3324ZM22.9359 18.6324C22.5604 18.6394 22.2027 18.7936 21.9396 19.0616C21.6765 19.3297 21.5291 19.6902 21.5291 20.0658C21.5291 20.4414 21.6765 20.802 21.9396 21.07C22.2027 21.3381 22.5604 21.4922 22.9359 21.4992H41.568C41.7585 21.5028 41.9478 21.4684 42.1249 21.3979C42.3019 21.3275 42.4631 21.2225 42.5991 21.089C42.7351 20.9556 42.8431 20.7963 42.9168 20.6207C42.9906 20.445 43.0286 20.2563 43.0286 20.0658C43.0286 19.8753 42.9906 19.6867 42.9168 19.511C42.8431 19.3353 42.7351 19.1761 42.5991 19.0426C42.4631 18.9091 42.3019 18.8041 42.1249 18.7337C41.9478 18.6633 41.7585 18.6288 41.568 18.6324H22.9359ZM1.43316 54.4671H42.615C42.8055 54.4707 42.9948 54.4362 43.1718 54.3658C43.3489 54.2954 43.5101 54.1904 43.6461 54.0569C43.7821 53.9234 43.8901 53.7642 43.9638 53.5885C44.0376 53.4128 44.0755 53.2242 44.0755 53.0337C44.0755 52.8432 44.0376 52.6545 43.9638 52.4789C43.8901 52.3032 43.7821 52.1439 43.6461 52.0105C43.5101 51.877 43.3489 51.772 43.1718 51.7016C42.9948 51.6311 42.8055 51.5967 42.615 51.6003H2.86682V34.3995H41.568C41.7585 34.4031 41.9478 34.3686 42.1249 34.2982C42.3019 34.2278 42.4631 34.1228 42.5991 33.9893C42.7351 33.8558 42.8431 33.6966 42.9168 33.5209C42.9906 33.3453 43.0286 33.1566 43.0286 32.9661C43.0286 32.7756 42.9906 32.5869 42.9168 32.4113C42.8431 32.2356 42.7351 32.0763 42.5991 31.9429C42.4631 31.8094 42.3019 31.7044 42.1249 31.634C41.9478 31.5635 41.7585 31.5291 41.568 31.5327H1.43316C1.05306 31.5327 0.688532 31.6837 0.419763 31.9524C0.150993 32.2212 3.93788e-08 32.5857 3.93788e-08 32.9658V53.0333C-4.40833e-05 53.2215 0.0369907 53.4079 0.10899 53.5819C0.180989 53.7558 0.286542 53.9139 0.419624 54.047C0.552705 54.1801 0.710707 54.2858 0.88461 54.3579C1.05851 54.4299 1.24491 54.4671 1.43316 54.4671Z" fill="white"/>
<path d="M5.73365 42.9999C5.73785 46.1644 8.30265 48.7285 11.4673 48.7319C19.0739 48.4171 19.0715 37.5779 11.4673 37.2648C8.30147 37.2681 5.73617 39.8341 5.73365 42.9999ZM14.3339 42.9999C14.3311 44.5821 13.0493 45.8639 11.4671 45.8668C7.66384 45.7092 7.66384 40.29 11.4671 40.1331C13.0493 40.1358 14.3313 41.4178 14.3339 42.9999ZM41.5678 38.6999H22.9359C22.5558 38.6999 22.1913 38.8509 21.9225 39.1197C21.6538 39.3885 21.5028 39.753 21.5028 40.1331C21.5028 40.5132 21.6538 40.8777 21.9225 41.1465C22.1913 41.4153 22.5558 41.5663 22.9359 41.5663H41.568C41.7562 41.5663 41.9426 41.5292 42.1165 41.4571C42.2903 41.3851 42.4483 41.2795 42.5814 41.1464C42.7145 41.0134 42.82 40.8554 42.892 40.6815C42.964 40.5076 43.0011 40.3212 43.0011 40.133C43.0011 39.9448 42.964 39.7585 42.892 39.5846C42.8199 39.4107 42.7144 39.2527 42.5813 39.1196C42.4482 38.9866 42.2902 38.881 42.1163 38.809C41.9424 38.737 41.7561 38.6999 41.5678 38.6999ZM41.5678 44.4331H22.9359C22.5604 44.4401 22.2027 44.5942 21.9396 44.8623C21.6765 45.1303 21.5291 45.4909 21.5291 45.8665C21.5291 46.2421 21.6765 46.6027 21.9396 46.8707C22.2027 47.1388 22.5604 47.2929 22.9359 47.2999H41.568C41.9435 47.2928 42.3013 47.1387 42.5643 46.8706C42.8274 46.6026 42.9747 46.242 42.9747 45.8664C42.9747 45.4908 42.8273 45.1303 42.5642 44.8622C42.3011 44.5942 41.9434 44.4401 41.5678 44.4331ZM55.902 64.7439C55.5219 64.7439 55.1573 64.8948 54.8885 65.1635C54.6196 65.4322 54.4685 65.7966 54.4683 66.1767V77.401H2.86682V60.2002H45.595C45.9751 60.2002 46.3397 60.0492 46.6084 59.7804C46.8772 59.5117 47.0282 59.1471 47.0282 58.767C47.0282 58.3869 46.8772 58.0224 46.6084 57.7536C46.3397 57.4849 45.9751 57.3339 45.595 57.3339H1.43316C1.245 57.3338 1.05867 57.3708 0.884816 57.4428C0.710961 57.5148 0.552983 57.6203 0.419902 57.7533C0.286821 57.8863 0.181243 58.0443 0.109196 58.2181C0.0371489 58.3919 4.41222e-05 58.5782 9.87423e-09 58.7664V78.8343C-4.45713e-05 79.2144 0.150872 79.579 0.419564 79.8478C0.688256 80.1167 1.05272 80.2678 1.43282 80.268H55.902C56.2821 80.268 56.6466 80.117 56.9154 79.8482C57.1841 79.5794 57.3351 79.2149 57.3351 78.8348V66.1777C57.3352 65.7976 57.1843 65.4331 56.9156 65.1642C56.6469 64.8954 56.2824 64.7443 55.9023 64.7441L55.902 64.7439Z" fill="#C10B19"/>
<path d="M5.73364 68.8008C5.737 71.9659 8.30214 74.5309 11.4673 74.5344C19.0739 74.2201 19.0715 63.3809 11.4673 63.0673C8.30197 63.0706 5.737 65.6356 5.73364 68.8008ZM14.3339 68.8008C14.3311 70.3829 13.0493 71.6647 11.4671 71.6676C7.66384 71.51 7.66384 66.0912 11.4671 65.9339C13.0493 65.9368 14.3313 67.2186 14.3339 68.8008ZM48.7352 64.5008H22.9359C22.5604 64.5078 22.2027 64.6619 21.9396 64.93C21.6765 65.198 21.5291 65.5586 21.5291 65.9342C21.5291 66.3098 21.6765 66.6703 21.9396 66.9384C22.2027 67.2064 22.5604 67.3606 22.9359 67.3676H48.737C49.1125 67.3603 49.4702 67.206 49.7331 66.9377C49.996 66.6695 50.1431 66.3089 50.1429 65.9333C50.1426 65.5577 49.995 65.1972 49.7318 64.9293C49.4685 64.6614 49.1107 64.5076 48.7352 64.5008ZM48.7352 70.2342H22.9359C22.5604 70.2413 22.2027 70.3954 21.9396 70.6635C21.6765 70.9315 21.5291 71.2921 21.5291 71.6677C21.5291 72.0432 21.6765 72.4038 21.9396 72.6719C22.2027 72.9399 22.5604 73.094 22.9359 73.1011H48.737C49.1125 73.0938 49.4702 72.9394 49.7331 72.6712C49.996 72.403 50.1431 72.0423 50.1429 71.6668C50.1426 71.2912 49.995 70.9307 49.7318 70.6628C49.4685 70.3949 49.1107 70.241 48.7352 70.2342ZM85.464 23.246C85.2958 23.1115 85.0995 23.0166 84.8895 22.9686C84.6796 22.9205 84.4615 22.9205 84.2515 22.9685C78.2582 24.3496 71.9635 23.3818 66.6619 20.264C66.4419 20.134 66.191 20.0654 65.9354 20.0654C65.6799 20.0654 65.429 20.134 65.2089 20.264C59.907 23.3821 53.6118 24.3498 47.6181 22.9682C47.4083 22.9205 47.1904 22.9206 46.9806 22.9686C46.7709 23.0166 46.5746 23.1112 46.4064 23.2455C46.2382 23.3797 46.1024 23.55 46.009 23.7439C45.9157 23.9378 45.8672 24.1502 45.8672 24.3654V46.7285C45.8786 52.8747 49.4504 58.4575 55.026 61.0438L65.3327 65.8011C65.5209 65.8882 65.7257 65.9333 65.9331 65.9333C66.1404 65.9333 66.3453 65.8882 66.5334 65.8011L76.841 61.0455C82.4164 58.4587 85.9882 52.8757 85.9998 46.7294V24.3661C86.0001 24.1512 85.952 23.939 85.8593 23.7451C85.7665 23.5513 85.6314 23.3807 85.464 23.246ZM83.1355 46.729C83.1258 51.7582 80.203 56.3261 75.6408 58.4423L65.9359 62.9216L56.2298 58.4416C51.6677 56.3258 48.7449 51.758 48.7355 46.7292V26.1019C54.638 27.0607 60.6917 26.0209 65.9359 23.1474C71.1803 26.0209 77.2341 27.0608 83.1367 26.1019L83.1355 46.729Z" fill="white"/>
<path d="M66.5304 26.6498C66.3436 26.5648 66.1407 26.5208 65.9354 26.5208C65.7302 26.5208 65.5273 26.5648 65.3405 26.6498C63.541 27.4702 61.6639 28.1085 59.7373 28.555C57.5394 29.0619 55.2908 29.3167 53.0352 29.3144C52.847 29.3144 52.6607 29.3514 52.4868 29.4233C52.313 29.4953 52.155 29.6008 52.0219 29.7338C51.8888 29.8668 51.7832 30.0248 51.7112 30.1986C51.6391 30.3724 51.602 30.5587 51.602 30.7469V46.7287C51.6056 48.6446 52.1561 50.5196 53.1889 52.1334C54.2216 53.7471 55.6937 55.0325 57.4319 55.8383L65.3353 59.4863C65.5235 59.5732 65.7283 59.6182 65.9356 59.6182C66.1429 59.6182 66.3477 59.5732 66.5359 59.4863L74.4408 55.8383C76.1789 55.0322 77.6507 53.7466 78.6832 52.1328C79.7157 50.5189 80.2661 48.6439 80.2696 46.728V30.7486C80.2623 30.365 80.1045 29.9998 79.8303 29.7316C79.5561 29.4633 79.1874 29.3137 78.8038 29.3149C76.5588 29.3152 74.3211 29.0604 72.1337 28.5555C70.2071 28.1087 68.33 27.4703 66.5304 26.6498ZM77.4027 46.7287C77.4003 48.097 77.0073 49.4363 76.2698 50.5889C75.5323 51.7416 74.4811 52.6597 73.2396 53.2353L65.9359 56.6066L58.6332 53.2365C57.3916 52.661 56.3401 51.743 55.6023 50.5904C54.8646 49.4377 54.4713 48.0984 54.4686 46.7298V32.1518C58.4195 31.9821 62.3059 31.0908 65.9358 29.5218C69.5656 31.0907 73.4521 31.9815 77.4029 32.15L77.4027 46.7287Z" fill="#C10B19"/>
</g>
<defs>
<clipPath id="clip0_503_1642">
<rect width="86" height="86" fill="white"/>
</clipPath>
</defs>
</svg>
