<svg width="33" height="24" viewBox="0 0 33 24" fill="none" xmlns="http://www.w3.org/2000/svg">
<path d="M17.875 0.375C19.6523 0.375 21.125 1.84766 21.125 3.625V14.1875C21.125 14.6445 20.7188 15 20.3125 15C19.8555 15 19.5 14.6445 19.5 14.1875V3.625C19.5 2.76172 18.7383 2 17.875 2H3.25C2.33594 2 1.625 2.76172 1.625 3.625V14.1875C1.625 14.6445 1.21875 15 0.8125 15C0.355469 15 0 14.6445 0 14.1875V3.625C0 1.84766 1.42188 0.375 3.25 0.375H17.875ZM22.75 6.875C22.75 6.01172 23.4609 5.25 24.375 5.25H27.2188C27.9805 5.25 28.6914 5.65625 29.1484 6.26562L31.9922 10.0234C32.2969 10.4805 32.5 10.9883 32.5 11.4961V17.0312C32.5 18.0469 31.7891 18.8594 30.8242 19.0625H30.875C30.875 21.3477 29.0469 23.125 26.8125 23.125C24.5273 23.125 22.75 21.3477 22.75 19.0625H14.625C14.625 21.3477 12.7969 23.125 10.5625 23.125C9.19141 23.125 8.02344 22.5156 7.3125 21.5C6.55078 22.5156 5.38281 23.125 4.0625 23.125C1.77734 23.125 0 21.3477 0 19.0625C0 16.8281 1.77734 15 4.0625 15C5.38281 15 6.55078 15.6602 7.3125 16.625C8.02344 15.6602 9.19141 15 10.5625 15C12.1875 15 13.6094 16.0156 14.2695 17.4375H22.75V6.875ZM30.0625 10.125L27.8281 7.23047C27.6758 7.02734 27.4727 6.875 27.2188 6.875H24.375V10.125H30.0625ZM30.875 11.75H24.375V15.8125C25.0352 15.3047 25.8477 15 26.8125 15C28.4375 15 29.8594 16.0156 30.5195 17.4375C30.7227 17.4375 30.875 17.2344 30.875 17.0312V11.75ZM26.8125 21.5C28.1328 21.5 29.25 20.4336 29.25 19.0625C29.25 17.7422 28.1328 16.625 26.8125 16.625C25.4414 16.625 24.375 17.7422 24.375 19.0625C24.375 20.4336 25.4414 21.5 26.8125 21.5ZM10.5625 16.625C9.19141 16.625 8.125 17.7422 8.125 19.0625C8.125 20.4336 9.19141 21.5 10.5625 21.5C11.8828 21.5 13 20.4336 13 19.0625C13 17.7422 11.8828 16.625 10.5625 16.625ZM4.0625 21.5C5.38281 21.5 6.5 20.4336 6.5 19.0625C6.5 17.7422 5.38281 16.625 4.0625 16.625C2.69141 16.625 1.625 17.7422 1.625 19.0625C1.625 20.4336 2.69141 21.5 4.0625 21.5ZM5.6875 3.625C6.09375 3.625 6.5 4.03125 6.5 4.4375V12.5625C6.5 13.0195 6.09375 13.375 5.6875 13.375C5.23047 13.375 4.875 13.0195 4.875 12.5625V4.4375C4.875 4.03125 5.23047 3.625 5.6875 3.625ZM10.5625 3.625C10.9688 3.625 11.375 4.03125 11.375 4.4375V12.5625C11.375 13.0195 10.9688 13.375 10.5625 13.375C10.1055 13.375 9.75 13.0195 9.75 12.5625V4.4375C9.75 4.03125 10.1055 3.625 10.5625 3.625ZM15.4375 3.625C15.8438 3.625 16.25 4.03125 16.25 4.4375V12.5625C16.25 13.0195 15.8438 13.375 15.4375 13.375C14.9805 13.375 14.625 13.0195 14.625 12.5625V4.4375C14.625 4.03125 14.9805 3.625 15.4375 3.625Z" fill="white"/>
</svg>
