<svg width="86" height="86" viewBox="0 0 86 86" fill="none" xmlns="http://www.w3.org/2000/svg">
<path d="M76.6836 70.2335C74.0768 70.2414 71.804 72.0087 71.1539 74.5333H65.2164V70.2335H62.3497V75.9664C62.3504 76.3463 62.5015 76.7105 62.7702 76.9792C63.0388 77.2479 63.4029 77.3992 63.7828 77.4H71.1531C72.9665 83.842 82.2407 82.7092 82.4161 75.9664C82.4126 72.8019 79.8482 70.2373 76.6836 70.2335ZM76.6836 78.8331C75.101 78.8316 73.8184 77.549 73.8169 75.9664C73.9721 72.1633 79.394 72.1633 79.5504 75.9664C79.5487 77.549 78.2662 78.8316 76.6836 78.8331ZM33.684 78.8331H26.3137C25.6636 76.3086 23.3909 74.5414 20.784 74.5333C13.1777 74.8484 13.18 85.6861 20.784 86C23.391 85.9921 25.6638 84.2246 26.3137 81.6999H35.1171C35.497 81.6992 35.8612 81.548 36.1299 81.2794C36.3986 81.0108 36.5499 80.6467 36.5507 80.2667V70.2335H33.684V78.8331ZM20.784 83.1333C19.2014 83.1318 17.9188 81.8492 17.9173 80.2666C18.0725 76.4634 23.4938 76.4634 23.6502 80.2666C23.649 81.8492 22.3666 83.1318 20.784 83.1333ZM49.4505 74.7365V70.235H46.5823V74.7365C44.0574 75.3866 42.29 77.6594 42.2821 80.2666C42.5972 87.8729 53.4349 87.87 53.7489 80.2666C53.7411 77.66 51.9746 75.3872 49.4505 74.7365ZM48.0183 83.1333C46.4357 83.1318 45.1531 81.8492 45.1515 80.2666C45.3088 76.4634 50.7286 76.4634 50.885 80.2666C50.8835 81.8492 49.6009 83.1318 48.0183 83.1333ZM73.8169 67.3667C77.7733 67.3622 80.9793 64.1562 80.9838 60.1998V25.7999C80.9791 21.8437 77.7731 18.6378 73.8169 18.6333H22.2173C20.4306 18.6335 18.7092 19.3047 17.3939 20.5139C17.1174 20.7716 16.9538 21.128 16.9388 21.5057C16.9238 21.8834 17.0585 22.2517 17.3137 22.5305C17.5689 22.8094 17.9238 22.9761 18.3014 22.9946C18.6789 23.013 19.0484 22.8816 19.3295 22.6289C20.1165 21.9038 21.1471 21.5006 22.2173 21.4992H73.8169C76.1908 21.5015 78.1146 23.4253 78.1171 25.799V34.4H60.9169C56.1673 34.4005 52.3173 38.2512 52.3176 43.0009C52.3181 47.75 56.1678 51.5997 60.9169 51.6002H78.1171V60.1998C78.1146 62.5738 76.1908 64.4975 73.8169 64.5H22.2173C21.3495 64.499 20.5024 64.2352 19.7874 63.7433C19.0725 63.2515 18.5233 62.5547 18.212 61.7447C18.077 61.3901 17.807 61.1036 17.461 60.9478C17.1151 60.792 16.7215 60.7798 16.3666 60.9137C16.0116 61.0477 15.7243 61.3169 15.5675 61.6623C15.4107 62.0078 15.3972 62.4013 15.5301 62.7567C16.0485 64.1108 16.9649 65.2762 18.1586 66.0993C19.3524 66.9223 20.7674 67.3644 22.2174 67.3674L73.8169 67.3667ZM60.9169 48.7335C53.3106 48.418 53.3135 37.5807 60.9169 37.2667H78.1171V48.7335H60.9169Z" fill="white"/>
<path d="M62.3505 38.6998C59.9773 38.7027 58.0539 40.6253 58.0504 42.9985C58.2867 48.7032 66.4152 48.7012 66.6504 42.9985C66.6468 40.6253 64.7236 38.7025 62.3505 38.6998ZM62.3505 44.4331C62.067 44.4332 61.7899 44.3492 61.5541 44.1917C61.3183 44.0343 61.1346 43.8105 61.026 43.5486C60.9174 43.2867 60.889 42.9985 60.9442 42.7204C60.9994 42.4423 61.1359 42.1869 61.3363 41.9864C61.5367 41.7858 61.7921 41.6492 62.0701 41.5938C62.3481 41.5385 62.6364 41.5667 62.8983 41.6752C63.1603 41.7836 63.3842 41.9672 63.5418 42.2029C63.6994 42.4386 63.7835 42.7157 63.7836 42.9992C63.7832 43.3792 63.6322 43.7445 63.3635 44.0133C63.0949 44.2822 62.7306 44.4336 62.3505 44.4343V44.4331ZM20.784 15.7666C23.3908 15.7585 25.6635 13.9913 26.3137 11.4667H30.8172V15.7666H33.684V10.0333C33.6833 9.65332 33.532 9.28914 33.2633 9.02052C32.9945 8.7519 32.6303 8.60075 32.2504 8.60017H26.3128C24.5009 2.15773 15.2261 3.29101 15.0505 10.0333C15.0542 13.1981 17.6191 15.763 20.784 15.7666ZM20.784 7.16655C22.3666 7.16807 23.649 8.45068 23.6504 10.0333C23.4952 13.8364 18.0738 13.8364 17.9174 10.0333C17.9188 8.45068 19.2014 7.16807 20.784 7.16655ZM62.3505 7.16655H69.7208C70.3707 9.69129 72.6435 11.4588 75.2505 11.4667C82.8568 11.1516 82.854 0.313934 75.2505 0C72.6436 0.00789453 70.3709 1.77526 69.7208 4.29983H60.9171C60.5371 4.30054 60.1729 4.45183 59.9043 4.72054C59.6357 4.98926 59.4845 5.35349 59.484 5.73345V15.7667H62.3507L62.3505 7.16655ZM75.2504 2.86672C76.833 2.86823 78.1156 4.15084 78.1171 5.73345C77.9599 9.53659 72.54 9.53659 72.3836 5.73345C72.3851 4.15084 73.6678 2.86823 75.2504 2.86672ZM46.5823 11.263V15.7666H49.449V11.265C51.9736 10.615 53.7408 8.34217 53.7488 5.73529C53.4337 -1.871 42.5961 -1.86865 42.2821 5.73529C42.291 8.34166 44.0582 10.6134 46.5823 11.263ZM48.0183 2.86672C49.6009 2.86823 50.8835 4.15084 50.885 5.73345C50.7298 9.53659 45.3079 9.53659 45.1515 5.73345C45.153 4.15084 46.4357 2.86823 48.0183 2.86672ZM16.4838 57.3331C16.7282 57.3334 16.9687 57.2713 17.1824 57.1527L23.6965 53.534C25.4098 52.5936 26.8407 51.2124 27.8409 49.5333C28.8412 47.8542 29.3745 45.9384 29.3857 43.984V30.4185C29.3854 30.1717 29.3215 29.9291 29.2 29.7143C29.0785 29.4995 28.9035 29.3198 28.6921 29.1925C20.2947 24.0377 10.4092 25.3774 4.27533 29.1925C4.06429 29.32 3.88976 29.4999 3.76861 29.7147C3.64746 29.9295 3.58381 30.1719 3.5838 30.4185V43.984C3.59509 45.9383 4.12845 47.8542 5.12869 49.5332C6.12892 51.2123 7.55968 52.5935 9.2729 53.534L15.7874 57.1527C16.0005 57.2708 16.2401 57.3329 16.4838 57.3331ZM6.45052 43.9835V31.245C9.52446 29.5547 12.9757 28.6683 16.4837 28.6683C19.9918 28.6683 23.443 29.5547 26.5169 31.245V43.9846C26.5057 45.4279 26.109 46.8419 25.3679 48.0804C24.6269 49.3189 23.5683 50.3368 22.3017 51.0289L16.4838 54.2606L10.6659 51.0289C9.39922 50.3368 8.34056 49.3187 7.59946 48.08C6.85837 46.8414 6.46159 45.4268 6.45052 43.9835Z" fill="#C10B19"/>
<path d="M15.0507 45.8668C14.8624 45.8668 14.676 45.8297 14.5021 45.7577C14.3281 45.6856 14.1701 45.58 14.037 45.4468L11.1703 42.5801C10.9055 42.3105 10.7578 41.9472 10.7595 41.5693C10.7612 41.1914 10.9121 40.8295 11.1793 40.5623C11.4465 40.2951 11.8085 40.1442 12.1864 40.1425C12.5643 40.1408 12.9276 40.2884 13.1972 40.5532L14.8271 42.1832L19.5911 35.0383C19.804 34.7267 20.1313 34.5116 20.5018 34.4398C20.8724 34.3679 21.2563 34.4451 21.5703 34.6545C21.8843 34.864 22.1031 35.1888 22.1791 35.5585C22.2552 35.9282 22.1824 36.3129 21.9766 36.6293L16.2431 45.2283C16.1121 45.4245 15.9348 45.5854 15.7268 45.6967C15.5188 45.8081 15.2866 45.8665 15.0507 45.8668Z" fill="white"/>
</svg>
